<?xml version="1.0" standalone="no"?>
<!DOCTYPE svg PUBLIC "-//W3C//DTD SVG 1.1//EN" "http://www.w3.org/Graphics/SVG/1.1/DTD/svg11.dtd" >
<svg>
<metadata>
Created by FontForge 20120731 at Sun Jun 30 14:15:02 2019
 By www-data
Copyright 2011 Eduardo Tunni (www.tipo.net.ar)
</metadata>
<defs>
<font id="Changa-Regular" horiz-adv-x="0" >
  <font-face 
    font-family="Changa"
    font-weight="400"
    font-stretch="normal"
    units-per-em="1000"
    panose-1="0 0 5 0 0 0 0 0 0 0"
    ascent="800"
    descent="-200"
    x-height="500"
    cap-height="625"
    bbox="-614 -553 1757 1223"
    underline-thickness="50"
    underline-position="-50"
    unicode-range="U+0020-FEFC"
  />
<missing-glyph horiz-adv-x="600" 
 />
    <glyph glyph-name="f_f" unicode="ff" horiz-adv-x="666" 
d="M50 0zM220 602v-102h80v-69h-80v-431h-100v431h-70v69h70q4 69 16 106.5t36.5 53t68.5 15.5q48 0 92 -10l-6 -72zM553 602v-102h80v-69h-80v-431h-100v431h-70v69h70q4 69 16 106.5t36.5 53t68.5 15.5q48 0 92 -10l-6 -72z" />
    <glyph glyph-name="f_f_i" unicode="ffi" horiz-adv-x="946" 
d="M50 0zM220 602v-102h80v-69h-80v-431h-100v431h-70v69h70q4 69 16 106.5t36.5 53t68.5 15.5q48 0 92 -10l-6 -72zM553 602v-102h80v-69h-80v-431h-100v431h-70v69h70q4 69 16 106.5t36.5 53t68.5 15.5q48 0 92 -10l-6 -72zM856 508v-508h-100v493zM757.5 599.5
q-12.5 12.5 -12.5 47.5q0 36 13 49t49 13q35 0 47.5 -13t12.5 -49q0 -35 -12 -47.5t-48 -12.5q-37 0 -49.5 12.5z" />
    <glyph glyph-name="f_f_l" unicode="ffl" horiz-adv-x="937" 
d="M50 0zM220 602v-102h80v-69h-80v-431h-100v431h-70v69h70q4 69 16 106.5t36.5 53t68.5 15.5q48 0 92 -10l-6 -72zM553 602v-102h80v-69h-80v-431h-100v431h-70v69h70q4 69 16 106.5t36.5 53t68.5 15.5q48 0 92 -10l-6 -72zM897 69l-6 -68q-37 -11 -66 -11q-38 0 -56 18.5
t-18 56.5v585l100 15v-591q20 -3 46 -5z" />
    <glyph glyph-name="fi" unicode="fi" horiz-adv-x="613" 
d="M50 0zM220 602v-102h80v-69h-80v-431h-100v431h-70v69h70q4 69 16 106.5t36.5 53t68.5 15.5q48 0 92 -10l-6 -72zM523 508v-508h-100v493zM424.5 599.5q-12.5 12.5 -12.5 47.5q0 36 13 49t49 13q35 0 47.5 -13t12.5 -49q0 -35 -12 -47.5t-48 -12.5q-37 0 -49.5 12.5z" />
    <glyph glyph-name="fl" unicode="fl" horiz-adv-x="604" 
d="M50 0zM220 602v-102h80v-69h-80v-431h-100v431h-70v69h70q4 69 16 106.5t36.5 53t68.5 15.5q48 0 92 -10l-6 -72zM564 69l-6 -68q-37 -11 -66 -11q-38 0 -56 18.5t-18 56.5v585l100 15v-591q20 -3 46 -5z" />
    <glyph glyph-name="uniFEFB" unicode="&#xfedf;&#xfe8e;" horiz-adv-x="635" arabic-form="isolated" 
d="M537 231q18 -34 18 -77q0 -89 -61 -129t-197 -40q-88 0 -136.5 14t-69 45.5t-20.5 87.5q0 48 11.5 76.5t41 49.5t89.5 44l85 32l-202 163l53 65l241 -194l62 23v239h80v-201q0 -48 -13.5 -76.5t-45.5 -40.5v-7q46 -40 64 -74zM442 96.5q28 21.5 28 54.5q0 21 -11.5 43
t-32.5 38l-50 40l-220 -82v-115h202q56 0 84 21.5z" />
    <glyph glyph-name="uniFEFC" unicode="&#xfee0;&#xfe8e;" horiz-adv-x="640" arabic-form="final" 
d="M660 90v-90h-640v90h160l-40 455h80l40 -455h200v540h80v-540h120z" />
    <glyph glyph-name="uniFEF7" unicode="&#xfedf;&#xfe84;" horiz-adv-x="635" arabic-form="isolated" 
d="M60 0zM537 231q18 -34 18 -77q0 -89 -61 -129t-197 -40q-88 0 -136.5 14t-69 45.5t-20.5 87.5q0 48 11.5 76.5t41 49.5t89.5 44l85 32l-202 163l53 65l241 -194l62 23v239h80v-201q0 -48 -13.5 -76.5t-45.5 -40.5v-7q46 -40 64 -74zM442 96.5q28 21.5 28 54.5
q0 21 -11.5 43t-32.5 38l-50 40l-220 -82v-115h202q56 0 84 21.5zM288 760v-46l-228 -61v46l44 12q-12 26 -12 74q0 78 44 109t128 31v-56q-29 0 -58 -6t-49 -18l-1 -88q0 -13 5 -18.5t16 -5.5q12 0 25 4z" />
    <glyph glyph-name="uniFEF8" unicode="&#xfee0;&#xfe84;" horiz-adv-x="640" arabic-form="final" 
d="M20 0zM660 90v-90h-640v90h160l-40 455h80l40 -455h200v540h80v-540h120zM294 760v-46l-228 -61v46l44 12q-12 26 -12 74q0 78 44 109t128 31v-56q-29 0 -58 -6t-49 -18l-1 -88q0 -13 5 -18.5t16 -5.5q12 0 25 4z" />
    <glyph glyph-name="uniFEF9" unicode="&#xfedf;&#xfe88;" horiz-adv-x="635" arabic-form="isolated" 
d="M9 0zM537 231q18 -34 18 -77q0 -89 -61 -129t-197 -40q-88 0 -136.5 14t-69 45.5t-20.5 87.5q0 48 11.5 76.5t41 49.5t89.5 44l85 32l-202 163l53 65l241 -194l62 23v239h80v-201q0 -48 -13.5 -76.5t-45.5 -40.5v-7q46 -40 64 -74zM442 96.5q28 21.5 28 54.5
q0 21 -11.5 43t-32.5 38l-50 40l-220 -82v-115h202q56 0 84 21.5zM237 -244v-46l-228 -61v46l44 12q-12 25 -12 74q0 78 44 109t128 31v-56q-29 0 -58 -6t-49 -18l-1 -88q0 -13 5 -18.5t16 -5.5q12 0 25 4z" />
    <glyph glyph-name="uniFEFA" unicode="&#xfee0;&#xfe88;" horiz-adv-x="640" arabic-form="final" 
d="M20 0zM660 90v-90h-640v90h160l-40 455h80l40 -455h200v540h80v-540h120zM344 -244v-46l-228 -61v46l44 12q-12 25 -12 74q0 78 44 109t128 31v-56q-29 0 -58 -6t-49 -18l-1 -88q0 -13 5 -18.5t16 -5.5q12 0 25 4z" />
    <glyph glyph-name="uniFEF5" unicode="&#xfedf;&#xfe82;" horiz-adv-x="635" arabic-form="isolated" 
d="M58 0zM537 231q18 -34 18 -77q0 -89 -61 -129t-197 -40q-88 0 -136.5 14t-69 45.5t-20.5 87.5q0 48 11.5 76.5t41 49.5t89.5 44l85 32l-202 163l53 65l241 -194l62 23v239h80v-201q0 -48 -13.5 -76.5t-45.5 -40.5v-7q46 -40 64 -74zM442 96.5q28 21.5 28 54.5
q0 21 -11.5 43t-32.5 38l-50 40l-220 -82v-115h202q56 0 84 21.5zM167 693q-10 7 -36 33l-59 -27l-14 28q45 32 64.5 43t32.5 11q11 0 19.5 -6.5t38.5 -34.5l59 27l14 -28q-40 -30 -61 -41.5t-35 -11.5q-13 0 -23 7z" />
    <glyph glyph-name="uniFEF6" unicode="&#xfee0;&#xfe82;" horiz-adv-x="640" arabic-form="final" 
d="M20 0zM660 90v-90h-640v90h160l-40 455h80l40 -455h200v540h80v-540h120zM173 693q-10 7 -36 33l-59 -27l-14 28q45 32 64.5 43t32.5 11q11 0 19.5 -6.5t38.5 -34.5l59 27l14 -28q-40 -30 -61 -41.5t-35 -11.5q-13 0 -23 7z" />
    <glyph glyph-name="uni06440671" unicode="&#xfedf;&#xfb51;" horiz-adv-x="635" 
d="M17 0zM537 231q18 -34 18 -77q0 -89 -61 -129t-197 -40q-88 0 -136.5 14t-69 45.5t-20.5 87.5q0 48 11.5 76.5t41 49.5t89.5 44l85 32l-202 163l53 65l241 -194l62 23v239h80v-201q0 -48 -13.5 -76.5t-45.5 -40.5v-7q46 -40 64 -74zM442 96.5q28 21.5 28 54.5
q0 21 -11.5 43t-32.5 38l-50 40l-220 -82v-115h202q56 0 84 21.5zM281 878q23 -17 23 -58v-155h-287v45h30q3 88 42 136.5t112 48.5q57 0 80 -17zM244 710v134q-14 5 -43 5q-47 0 -69.5 -33.5t-24.5 -105.5h137z" />
    <glyph glyph-name="uni06440671.fina" unicode="&#xfee0;&#xfb51;" horiz-adv-x="640" 
d="M20 0zM660 90v-90h-640v90h160l-40 455h80l40 -455h200v540h80v-540h120zM287 878q23 -17 23 -58v-155h-287v45h30q3 88 42 136.5t112 48.5q57 0 80 -17zM250 710v134q-14 5 -43 5q-47 0 -69.5 -33.5t-24.5 -105.5h137z" />
    <glyph glyph-name="uniFDF2" unicode="&#x627;&#xfedf;&#xfee0;&#xfeea;" horiz-adv-x="1539" arabic-form="isolated" 
d="M1132 1025l-54 -14v198l54 14v-198zM1263 984l1 -198l-257 -69q-12 -3 -21 -3q-21 0 -30.5 19t-9.5 62q0 59 13 108l58 8q-10 -46 -10 -91q0 -32 6 -55l72 19q-8 16 -8 65v76l54 15v-143l70 18v145zM1079 630h80v-630h-871q-90 0 -131.5 17.5t-56.5 65.5t-15 152t15 152
t56.5 65.5t131.5 17.5h244v-380h227v540h80v-540h240v540zM1439 630v-630h-80v630h80zM452 380h-213q-37 0 -53 -13t-16 -43v-178q0 -30 16 -43t53 -13h213v290z" />
    <glyph glyph-name="uniFE8E" unicode="&#x627;" horiz-adv-x="280" arabic-form="final" 
d="M100 630h80v-540h120v-90h-200v630z" />
    <glyph glyph-name="uniFE84" unicode="&#x623;" horiz-adv-x="280" arabic-form="final" 
d="M26 0zM100 470h80v-380h120v-90h-200v470zM254 685v-46l-228 -61v46l44 12q-12 26 -12 74q0 78 44 109t128 31v-56q-29 0 -58 -6t-49 -18l-1 -88q0 -13 5 -18.5t16 -5.5q12 0 25 4z" />
    <glyph glyph-name="uniFE88" unicode="&#x625;" horiz-adv-x="280" arabic-form="final" 
d="M26 0zM100 630h80v-540h120v-90h-200v630zM254 -244v-46l-228 -61v46l44 12q-12 25 -12 74q0 78 44 109t128 31v-56q-29 0 -58 -6t-49 -18l-1 -88q0 -13 5 -18.5t16 -5.5q12 0 25 4z" />
    <glyph glyph-name="uniFE82" unicode="&#x622;" horiz-adv-x="280" arabic-form="final" 
d="M24 0zM100 470h80v-380h120v-90h-200v470zM133 618q-10 7 -36 33l-59 -27l-14 28q45 32 64.5 43t32.5 11q11 0 19.5 -6.5t38.5 -34.5l59 27l14 -28q-40 -30 -61 -41.5t-35 -11.5q-13 0 -23 7z" />
    <glyph glyph-name="uniFB51" unicode="&#x671;" horiz-adv-x="280" arabic-form="final" 
d="M0 0zM100 470h80v-380h120v-90h-200v470zM247 803q23 -17 23 -58v-155h-287v45h30q3 88 42 136.5t112 48.5q57 0 80 -17zM210 635v134q-14 5 -43 5q-47 0 -69.5 -33.5t-24.5 -105.5h137z" />
    <glyph glyph-name="uni066E.init" unicode="&#x66e;" horiz-adv-x="320" 
d="M-20 90h160v380h80v-470h-240v90z" />
    <glyph glyph-name="uni066E.medi" unicode="&#x66e;" horiz-adv-x="320" 
d="M340 90v-90h-360v90h160v380h80v-380h120z" />
    <glyph glyph-name="uni066E.fina" unicode="&#x66e;" horiz-adv-x="884" 
d="M904 90v-90h-694q-52 0 -82.5 20t-44 64.5t-13.5 121.5q0 45 7.5 94.5t20.5 83.5l76 -13q-24 -81 -24 -149q0 -83 16 -132h538v380h80v-380h120z" />
    <glyph glyph-name="uniFE90" unicode="&#x628;" horiz-adv-x="884" arabic-form="final" 
d="M70 0zM904 90v-90h-694q-52 0 -82.5 20t-44 64.5t-13.5 121.5q0 45 7.5 94.5t20.5 83.5l76 -13q-24 -81 -24 -149q0 -83 16 -132h538v380h80v-380h120zM404 -181q-20 20 -20 36t19.5 35t35.5 20q16 -1 35.5 -20t19.5 -35q0 -15 -20 -35.5t-35 -19.5q-15 -1 -35 19z" />
    <glyph glyph-name="uniFE92" unicode="&#x628;" horiz-adv-x="320" arabic-form="medial" 
d="M0 0zM340 90v-90h-360v90h160v380h80v-380h120zM145 -171q-20 20 -20 36t19.5 35t35.5 20q16 -1 35.5 -20t19.5 -35q0 -15 -20 -35.5t-35 -19.5q-15 -1 -35 19z" />
    <glyph glyph-name="uniFE91" unicode="&#x628;" horiz-adv-x="320" arabic-form="initial" 
d="M0 0zM-20 90h160v380h80v-470h-240v90zM145 -171q-20 20 -20 36t19.5 35t35.5 20q16 -1 35.5 -20t19.5 -35q0 -15 -20 -35.5t-35 -19.5q-15 -1 -35 19z" />
    <glyph glyph-name="uniFB57" unicode="&#x67e;" horiz-adv-x="884" arabic-form="final" 
d="M70 0zM904 90v-90h-694q-52 0 -82.5 20t-44 64.5t-13.5 121.5q0 45 7.5 94.5t20.5 83.5l76 -13q-24 -81 -24 -149q0 -83 16 -132h538v380h80v-380h120zM403 -331q-20 20 -20 36t19.5 35t35.5 20q16 -1 35.5 -20t19.5 -35q0 -15 -20 -35.5t-35 -19.5q-15 -1 -35 19z
M331 -181q-20 20 -20 36t19.5 35t35.5 20q16 -1 35.5 -20t19.5 -35q0 -15 -20 -35.5t-35 -19.5q-15 -1 -35 19zM475 -181q-20 20 -20 36t19.5 35t35.5 20q16 -1 35.5 -20t19.5 -35q0 -15 -20 -35.5t-35 -19.5q-15 -1 -35 19z" />
    <glyph glyph-name="uniFB59" unicode="&#x67e;" horiz-adv-x="320" arabic-form="medial" 
d="M0 0zM340 90v-90h-360v90h160v380h80v-380h120zM144 -321q-20 20 -20 36t19.5 35t35.5 20q16 -1 35.5 -20t19.5 -35q0 -15 -20 -35.5t-35 -19.5q-15 -1 -35 19zM72 -171q-20 20 -20 36t19.5 35t35.5 20q16 -1 35.5 -20t19.5 -35q0 -15 -20 -35.5t-35 -19.5q-15 -1 -35 19
zM216 -171q-20 20 -20 36t19.5 35t35.5 20q16 -1 35.5 -20t19.5 -35q0 -15 -20 -35.5t-35 -19.5q-15 -1 -35 19z" />
    <glyph glyph-name="uniFB58" unicode="&#x67e;" horiz-adv-x="320" arabic-form="initial" 
d="M0 0zM-20 90h160v380h80v-470h-240v90zM81 -307q-20 20 -20 36t19.5 35t35.5 20q16 -1 35.5 -20t19.5 -35q0 -15 -20 -35.5t-35 -19.5q-15 -1 -35 19zM9 -157q-20 20 -20 36t19.5 35t35.5 20q16 -1 35.5 -20t19.5 -35q0 -15 -20 -35.5t-35 -19.5q-15 -1 -35 19zM153 -157
q-20 20 -20 36t19.5 35t35.5 20q16 -1 35.5 -20t19.5 -35q0 -15 -20 -35.5t-35 -19.5q-15 -1 -35 19z" />
    <glyph glyph-name="uniFE96" unicode="&#x62a;" horiz-adv-x="884" arabic-form="final" 
d="M70 0zM904 90v-90h-694q-52 0 -82.5 20t-44 64.5t-13.5 121.5q0 45 7.5 94.5t20.5 83.5l76 -13q-24 -81 -24 -149q0 -83 16 -132h538v380h80v-380h120zM332 509q-20 20 -20 36t19.5 35t35.5 20q16 -1 35.5 -20t19.5 -35q0 -15 -20 -35.5t-35 -19.5q-15 -1 -35 19z
M476 509q-20 20 -20 36t19.5 35t35.5 20q16 -1 35.5 -20t19.5 -35q0 -15 -20 -35.5t-35 -19.5q-15 -1 -35 19z" />
    <glyph glyph-name="uniFE98" unicode="&#x62a;" horiz-adv-x="320" arabic-form="medial" 
d="M0 0zM340 90v-90h-360v90h160v380h80v-380h120zM73 609q-20 20 -20 36t19.5 35t35.5 20q16 -1 35.5 -20t19.5 -35q0 -15 -20 -35.5t-35 -19.5q-15 -1 -35 19zM217 609q-20 20 -20 36t19.5 35t35.5 20q16 -1 35.5 -20t19.5 -35q0 -15 -20 -35.5t-35 -19.5q-15 -1 -35 19z
" />
    <glyph glyph-name="uniFE97" unicode="&#x62a;" horiz-adv-x="320" arabic-form="initial" 
d="M0 0zM-20 90h160v380h80v-470h-240v90zM73 609q-20 20 -20 36t19.5 35t35.5 20q16 -1 35.5 -20t19.5 -35q0 -15 -20 -35.5t-35 -19.5q-15 -1 -35 19zM217 609q-20 20 -20 36t19.5 35t35.5 20q16 -1 35.5 -20t19.5 -35q0 -15 -20 -35.5t-35 -19.5q-15 -1 -35 19z" />
    <glyph glyph-name="uniFE9A" unicode="&#x62b;" horiz-adv-x="884" arabic-form="final" 
d="M70 0zM904 90v-90h-694q-52 0 -82.5 20t-44 64.5t-13.5 121.5q0 45 7.5 94.5t20.5 83.5l76 -13q-24 -81 -24 -149q0 -83 16 -132h538v380h80v-380h120zM332 509q-20 20 -20 36t19.5 35t35.5 20q16 -1 35.5 -20t19.5 -35q0 -15 -20 -35.5t-35 -19.5q-15 -1 -35 19z
M476 509q-20 20 -20 36t19.5 35t35.5 20q16 -1 35.5 -20t19.5 -35q0 -15 -20 -35.5t-35 -19.5q-15 -1 -35 19zM404 659q-20 20 -20 36t19.5 35t35.5 20q16 -1 35.5 -20t19.5 -35q0 -15 -20 -35.5t-35 -19.5q-15 -1 -35 19z" />
    <glyph glyph-name="uniFE9C" unicode="&#x62b;" horiz-adv-x="320" arabic-form="medial" 
d="M0 0zM340 90v-90h-360v90h160v380h80v-380h120zM73 609q-20 20 -20 36t19.5 35t35.5 20q16 -1 35.5 -20t19.5 -35q0 -15 -20 -35.5t-35 -19.5q-15 -1 -35 19zM217 609q-20 20 -20 36t19.5 35t35.5 20q16 -1 35.5 -20t19.5 -35q0 -15 -20 -35.5t-35 -19.5q-15 -1 -35 19z
M145 759q-20 20 -20 36t19.5 35t35.5 20q16 -1 35.5 -20t19.5 -35q0 -15 -20 -35.5t-35 -19.5q-15 -1 -35 19z" />
    <glyph glyph-name="uniFE9B" unicode="&#x62b;" horiz-adv-x="320" arabic-form="initial" 
d="M0 0zM-20 90h160v380h80v-470h-240v90zM73 609q-20 20 -20 36t19.5 35t35.5 20q16 -1 35.5 -20t19.5 -35q0 -15 -20 -35.5t-35 -19.5q-15 -1 -35 19zM217 609q-20 20 -20 36t19.5 35t35.5 20q16 -1 35.5 -20t19.5 -35q0 -15 -20 -35.5t-35 -19.5q-15 -1 -35 19zM145 759
q-20 20 -20 36t19.5 35t35.5 20q16 -1 35.5 -20t19.5 -35q0 -15 -20 -35.5t-35 -19.5q-15 -1 -35 19z" />
    <glyph glyph-name="uniFB67" unicode="&#x679;" horiz-adv-x="884" arabic-form="final" 
d="M70 0zM904 90v-90h-694q-52 0 -82.5 20t-44 64.5t-13.5 121.5q0 45 7.5 94.5t20.5 83.5l76 -13q-24 -81 -24 -149q0 -83 16 -132h538v380h80v-380h120zM551.5 683.5q17.5 -16.5 17.5 -58.5v-135h-287v45h30v228h60v-120q18 28 46 42.5t71 14.5q45 0 62.5 -16.5zM509 535
v111q-18 8 -43 8q-47 0 -70 -29t-24 -90h137z" />
    <glyph glyph-name="uniFB69" unicode="&#x679;" horiz-adv-x="320" arabic-form="medial" 
d="M0 0zM340 90v-90h-360v90h160v380h80v-380h120zM292.5 783.5q17.5 -16.5 17.5 -58.5v-135h-287v45h30v228h60v-120q18 28 46 42.5t71 14.5q45 0 62.5 -16.5zM250 635v111q-18 8 -43 8q-47 0 -70 -29t-24 -90h137z" />
    <glyph glyph-name="uniFB68" unicode="&#x679;" horiz-adv-x="320" arabic-form="initial" 
d="M0 0zM-20 90h160v380h80v-470h-240v90zM292.5 783.5q17.5 -16.5 17.5 -58.5v-135h-287v45h30v228h60v-120q18 28 46 42.5t71 14.5q45 0 62.5 -16.5zM250 635v111q-18 8 -43 8q-47 0 -70 -29t-24 -90h137z" />
    <glyph glyph-name="uniFE9E" unicode="&#x62c;" horiz-adv-x="572" arabic-form="final" 
d="M592 90v-90h-56q-29 0 -46.5 13t-28.5 43l-45 118q-143 -9 -211.5 -49.5t-68.5 -125.5v-177q48 -9 141 -9q38 0 76 5t93 17l12 -84q-39 -13 -94.5 -20.5t-114.5 -7.5q-86 0 -127.5 19.5t-56 65.5t-14.5 140q0 101 36.5 163t110 93.5t190.5 39.5q-24 56 -53.5 87t-73 45
t-111.5 14q-42 0 -83 -4l-13 88q59 6 106 6q84 0 141 -21t96 -67t67 -122l68 -180h60zM267.5 7q19.5 19 35.5 20q16 -1 35.5 -20t19.5 -35q0 -15 -20 -35.5t-35 -19.5q-15 -1 -35 19t-20 36t19.5 35z" />
    <glyph glyph-name="uniFEA0" unicode="&#x62c;" horiz-adv-x="572" arabic-form="medial" 
d="M0 0zM592 90v-90h-56q-29 0 -46.5 13t-28.5 43l-34 88q-92 -144 -264 -144h-183v90h216q67 0 115.5 45t76.5 110q-24 55 -53.5 86t-73.5 45t-111 14q-42 0 -83 -4l-13 88q59 6 106 6q84 0 141 -21t96 -67t67 -122l68 -180h60zM230 -171q-20 20 -20 36t19.5 35t35.5 20
q16 -1 35.5 -20t19.5 -35q0 -15 -20 -35.5t-35 -19.5q-15 -1 -35 19z" />
    <glyph glyph-name="uniFE9F" unicode="&#x62c;" horiz-adv-x="555" arabic-form="initial" 
d="M0 0zM555 270v-90h-88q-8 0 -20 2q-97 -182 -304 -182h-163v90h186q78 0 134 45.5t88 111.5q-22 55 -51.5 86t-73.5 44t-113 13q-42 0 -83 -4l-13 88q59 6 106 6q84 0 141 -21t95.5 -67t66.5 -122h92zM230 -171q-20 20 -20 36t19.5 35t35.5 20q16 -1 35.5 -20t19.5 -35
q0 -15 -20 -35.5t-35 -19.5q-15 -1 -35 19z" />
    <glyph glyph-name="uniFB7B" unicode="&#x686;" horiz-adv-x="672" arabic-form="final" 
d="M692 90v-90h-56q-29 0 -46.5 13t-28.5 43l-43 112q-140 -2 -223.5 -19.5t-121 -53.5t-37.5 -96v-177q35 -7 70 -7q39 0 101 8l12 -84q-59 -14 -103 -14q-67 0 -102.5 21t-49 68.5t-13.5 133.5q0 106 43.5 169t139 91.5t257.5 29.5q-25 58 -54.5 90.5t-73.5 47t-113 14.5
q-42 0 -83 -4l-13 88q59 6 106 6q84 0 141 -21t96 -67t67 -122l68 -180h60zM340.5 42q19.5 -19 19.5 -35q0 -15 -20 -35.5t-35 -19.5q-15 -1 -35 19t-20 36t19.5 35t35.5 20q16 -1 35.5 -20zM484.5 42q19.5 -19 19.5 -35q0 -15 -20 -35.5t-35 -19.5q-15 -1 -35 19t-20 36
t19.5 35t35.5 20q16 -1 35.5 -20zM412.5 -108q19.5 -19 19.5 -35q0 -15 -20 -35.5t-35 -19.5q-15 -1 -35 19t-20 36t19.5 35t35.5 20q16 -1 35.5 -20z" />
    <glyph glyph-name="uniFB7D" unicode="&#x686;" horiz-adv-x="572" arabic-form="medial" 
d="M0 0zM592 90v-90h-56q-29 0 -46.5 13t-28.5 43l-34 88q-92 -144 -264 -144h-183v90h216q67 0 115.5 45t76.5 110q-24 55 -53.5 86t-73.5 45t-111 14q-42 0 -83 -4l-13 88q59 6 106 6q84 0 141 -21t96 -67t67 -122l68 -180h60zM229 -321q-20 20 -20 36t19.5 35t35.5 20
q16 -1 35.5 -20t19.5 -35q0 -15 -20 -35.5t-35 -19.5q-15 -1 -35 19zM157 -171q-20 20 -20 36t19.5 35t35.5 20q16 -1 35.5 -20t19.5 -35q0 -15 -20 -35.5t-35 -19.5q-15 -1 -35 19zM301 -171q-20 20 -20 36t19.5 35t35.5 20q16 -1 35.5 -20t19.5 -35q0 -15 -20 -35.5
t-35 -19.5q-15 -1 -35 19z" />
    <glyph glyph-name="uniFB7C" unicode="&#x686;" horiz-adv-x="555" arabic-form="initial" 
d="M0 0zM555 270v-90h-88q-8 0 -20 2q-97 -182 -304 -182h-163v90h186q78 0 134 45.5t88 111.5q-22 55 -51.5 86t-73.5 44t-113 13q-42 0 -83 -4l-13 88q59 6 106 6q84 0 141 -21t95.5 -67t66.5 -122h92zM229 -321q-20 20 -20 36t19.5 35t35.5 20q16 -1 35.5 -20t19.5 -35
q0 -15 -20 -35.5t-35 -19.5q-15 -1 -35 19zM157 -171q-20 20 -20 36t19.5 35t35.5 20q16 -1 35.5 -20t19.5 -35q0 -15 -20 -35.5t-35 -19.5q-15 -1 -35 19zM301 -171q-20 20 -20 36t19.5 35t35.5 20q16 -1 35.5 -20t19.5 -35q0 -15 -20 -35.5t-35 -19.5q-15 -1 -35 19z" />
    <glyph glyph-name="uniFEA2" unicode="&#x62d;" horiz-adv-x="572" arabic-form="final" 
d="M592 90v-90h-56q-29 0 -46.5 13t-28.5 43l-45 118q-143 -9 -211.5 -49.5t-68.5 -125.5v-177q48 -9 141 -9q38 0 76 5t93 17l12 -84q-39 -13 -94.5 -20.5t-114.5 -7.5q-86 0 -127.5 19.5t-56 65.5t-14.5 140q0 101 36.5 163t110 93.5t190.5 39.5q-24 56 -53.5 87t-73 45
t-111.5 14q-42 0 -83 -4l-13 88q59 6 106 6q84 0 141 -21t96 -67t67 -122l68 -180h60z" />
    <glyph glyph-name="uniFEA4" unicode="&#x62d;" horiz-adv-x="572" arabic-form="medial" 
d="M592 90v-90h-56q-29 0 -46.5 13t-28.5 43l-34 88q-92 -144 -264 -144h-183v90h216q67 0 115.5 45t76.5 110q-24 55 -53.5 86t-73.5 45t-111 14q-42 0 -83 -4l-13 88q59 6 106 6q84 0 141 -21t96 -67t67 -122l68 -180h60z" />
    <glyph glyph-name="uniFEA3" unicode="&#x62d;" horiz-adv-x="555" arabic-form="initial" 
d="M555 270v-90h-88q-8 0 -20 2q-97 -182 -304 -182h-163v90h186q78 0 134 45.5t88 111.5q-22 55 -51.5 86t-73.5 44t-113 13q-42 0 -83 -4l-13 88q59 6 106 6q84 0 141 -21t95.5 -67t66.5 -122h92z" />
    <glyph glyph-name="uniFEA6" unicode="&#x62e;" horiz-adv-x="572" arabic-form="final" 
d="M51 0zM592 90v-90h-56q-29 0 -46.5 13t-28.5 43l-45 118q-143 -9 -211.5 -49.5t-68.5 -125.5v-177q48 -9 141 -9q38 0 76 5t93 17l12 -84q-39 -13 -94.5 -20.5t-114.5 -7.5q-86 0 -127.5 19.5t-56 65.5t-14.5 140q0 101 36.5 163t110 93.5t190.5 39.5q-24 56 -53.5 87
t-73 45t-111.5 14q-42 0 -83 -4l-13 88q59 6 106 6q84 0 141 -21t96 -67t67 -122l68 -180h60zM244 632q-20 20 -20 36t19.5 35t35.5 20q16 -1 35.5 -20t19.5 -35q0 -15 -20 -35.5t-35 -19.5q-15 -1 -35 19z" />
    <glyph glyph-name="uniFEA8" unicode="&#x62e;" horiz-adv-x="572" arabic-form="medial" 
d="M0 0zM592 90v-90h-56q-29 0 -46.5 13t-28.5 43l-34 88q-92 -144 -264 -144h-183v90h216q67 0 115.5 45t76.5 110q-24 55 -53.5 86t-73.5 45t-111 14q-42 0 -83 -4l-13 88q59 6 106 6q84 0 141 -21t96 -67t67 -122l68 -180h60zM204 609q-20 20 -20 36t19.5 35t35.5 20
q16 -1 35.5 -20t19.5 -35q0 -15 -20 -35.5t-35 -19.5q-15 -1 -35 19z" />
    <glyph glyph-name="uniFEA7" unicode="&#x62e;" horiz-adv-x="555" arabic-form="initial" 
d="M0 0zM555 270v-90h-88q-8 0 -20 2q-97 -182 -304 -182h-163v90h186q78 0 134 45.5t88 111.5q-22 55 -51.5 86t-73.5 44t-113 13q-42 0 -83 -4l-13 88q59 6 106 6q84 0 141 -21t95.5 -67t66.5 -122h92zM204 609q-20 20 -20 36t19.5 35t35.5 20q16 -1 35.5 -20t19.5 -35
q0 -15 -20 -35.5t-35 -19.5q-15 -1 -35 19z" />
    <glyph glyph-name="uniFEAA" unicode="&#x62f;" horiz-adv-x="493" arabic-form="final" 
d="M513 90v-90h-493v90h347q-38 137 -66 200.5t-62 87t-93 23.5q-38 0 -76 -10l-22 88q51 12 98 12q92 0 138 -25.5t82 -105t91 -270.5h56z" />
    <glyph glyph-name="uniFEAC" unicode="&#x630;" horiz-adv-x="493" arabic-form="final" 
d="M20 0zM513 90v-90h-493v90h347q-38 137 -66 200.5t-62 87t-93 23.5q-38 0 -76 -10l-22 88q51 12 98 12q92 0 138 -25.5t82 -105t91 -270.5h56zM140 609q-20 20 -20 36t19.5 35t35.5 20q16 -1 35.5 -20t19.5 -35q0 -15 -20 -35.5t-35 -19.5q-15 -1 -35 19z" />
    <glyph glyph-name="uniFB89" unicode="&#x688;" horiz-adv-x="493" arabic-form="final" 
d="M18 0zM513 90v-90h-493v90h347q-38 137 -66 200.5t-62 87t-93 23.5q-38 0 -76 -10l-22 88q51 12 98 12q92 0 138 -25.5t82 -105t91 -270.5h56zM287.5 783.5q17.5 -16.5 17.5 -58.5v-135h-287v45h30v228h60v-120q18 28 46 42.5t71 14.5q45 0 62.5 -16.5zM245 635v111
q-18 8 -43 8q-47 0 -70 -29t-24 -90h137z" />
    <glyph glyph-name="uniFEAE" unicode="&#x631;" horiz-adv-x="310" arabic-form="final" 
d="M330 90v-90h-119q0 -99 -35 -160t-114 -99l-34 70q58 28 80.5 69.5t22.5 119.5v470h80v-380h119z" />
    <glyph glyph-name="uniFEB0" unicode="&#x632;" horiz-adv-x="310" arabic-form="final" 
d="M28 0zM330 90v-90h-119q0 -99 -35 -160t-114 -99l-34 70q58 28 80.5 69.5t22.5 119.5v470h80v-380h119zM135 609q-20 20 -20 36t19.5 35t35.5 20q16 -1 35.5 -20t19.5 -35q0 -15 -20 -35.5t-35 -19.5q-15 -1 -35 19z" />
    <glyph glyph-name="uniFB8D" unicode="&#x691;" horiz-adv-x="310" arabic-form="final" 
d="M13 0zM330 90v-90h-119q0 -99 -35 -160t-114 -99l-34 70q58 28 80.5 69.5t22.5 119.5v470h80v-380h119zM282.5 783.5q17.5 -16.5 17.5 -58.5v-135h-287v45h30v228h60v-120q18 28 46 42.5t71 14.5q45 0 62.5 -16.5zM240 635v111q-18 8 -43 8q-47 0 -70 -29t-24 -90h137z
" />
    <glyph glyph-name="uniFB8B" unicode="&#x698;" horiz-adv-x="310" arabic-form="final" 
d="M28 0zM330 90v-90h-119q0 -99 -35 -160t-114 -99l-34 70q58 28 80.5 69.5t22.5 119.5v470h80v-380h119zM63 609q-20 20 -20 36t19.5 35t35.5 20q16 -1 35.5 -20t19.5 -35q0 -15 -20 -35.5t-35 -19.5q-15 -1 -35 19zM207 609q-20 20 -20 36t19.5 35t35.5 20
q16 -1 35.5 -20t19.5 -35q0 -15 -20 -35.5t-35 -19.5q-15 -1 -35 19zM135 759q-20 20 -20 36t19.5 35t35.5 20q16 -1 35.5 -20t19.5 -35q0 -15 -20 -35.5t-35 -19.5q-15 -1 -35 19z" />
    <glyph glyph-name="uniFEB2" unicode="&#x633;" horiz-adv-x="1267" arabic-form="final" 
d="M1287 90v-90h-300q-65 0 -103 7.5t-60 26.5q-21 -19 -59.5 -26.5t-103.5 -7.5h-100v-36q0 -86 -20 -128.5t-74 -59t-167 -16.5q-105 0 -152.5 18t-62.5 63.5t-15 142.5q0 57 7.5 117.5t20.5 101.5l79 -13q-27 -115 -27 -189q0 -92 12 -151h183q53 0 82 4.5t41.5 15.5
t12.5 33v477h80v-290h145q44 0 61 11t17 42v237h80v-237q0 -31 17 -42t61 -11h133q12 63 12 166q0 84 -26 199l79 13q11 -41 19 -102.5t8 -106.5q0 -115 -19 -169h139z" />
    <glyph glyph-name="uniFEB4" unicode="&#x633;" horiz-adv-x="926" arabic-form="medial" 
d="M946 90v-90h-300q-65 0 -103 7.5t-60 26.5q-21 -19 -59.5 -26.5t-103.5 -7.5h-340v90h160v290h80v-290h145q44 0 61 11t17 42v237h80v-237q0 -31 17 -42t61 -11h133q12 63 12 166q0 84 -26 199l79 13q11 -41 19 -102.5t8 -106.5q0 -115 -19 -169h139z" />
    <glyph glyph-name="uniFEB3" unicode="&#x633;" horiz-adv-x="916" arabic-form="initial" 
d="M818 365.5q8 -61.5 8 -106.5q0 -103 -15 -157.5t-53 -78t-112 -23.5q-65 0 -103 7.5t-60 26.5q-21 -19 -59.5 -26.5t-103.5 -7.5h-340v90h160v290h80v-290h145q44 0 61 11t17 42v237h80v-237q0 -31 17 -42t61 -11h133q12 63 12 166q0 84 -26 199l79 13q11 -41 19 -102.5z
" />
    <glyph glyph-name="uniFEB6" unicode="&#x634;" horiz-adv-x="1267" arabic-form="final" 
d="M70 0zM1287 90v-90h-300q-65 0 -103 7.5t-60 26.5q-21 -19 -59.5 -26.5t-103.5 -7.5h-100v-36q0 -86 -20 -128.5t-74 -59t-167 -16.5q-105 0 -152.5 18t-62.5 63.5t-15 142.5q0 57 7.5 117.5t20.5 101.5l79 -13q-27 -115 -27 -189q0 -92 12 -151h183q53 0 82 4.5
t41.5 15.5t12.5 33v477h80v-290h145q44 0 61 11t17 42v237h80v-237q0 -31 17 -42t61 -11h133q12 63 12 166q0 84 -26 199l79 13q11 -41 19 -102.5t8 -106.5q0 -115 -19 -169h139zM727 609q-20 20 -20 36t19.5 35t35.5 20q16 -1 35.5 -20t19.5 -35q0 -15 -20 -35.5t-35 -19.5
q-15 -1 -35 19zM871 609q-20 20 -20 36t19.5 35t35.5 20q16 -1 35.5 -20t19.5 -35q0 -15 -20 -35.5t-35 -19.5q-15 -1 -35 19zM799 759q-20 20 -20 36t19.5 35t35.5 20q16 -1 35.5 -20t19.5 -35q0 -15 -20 -35.5t-35 -19.5q-15 -1 -35 19z" />
    <glyph glyph-name="uniFEB8" unicode="&#x634;" horiz-adv-x="926" arabic-form="medial" 
d="M0 0zM946 90v-90h-300q-65 0 -103 7.5t-60 26.5q-21 -19 -59.5 -26.5t-103.5 -7.5h-340v90h160v290h80v-290h145q44 0 61 11t17 42v237h80v-237q0 -31 17 -42t61 -11h133q12 63 12 166q0 84 -26 199l79 13q11 -41 19 -102.5t8 -106.5q0 -115 -19 -169h139zM386 609
q-20 20 -20 36t19.5 35t35.5 20q16 -1 35.5 -20t19.5 -35q0 -15 -20 -35.5t-35 -19.5q-15 -1 -35 19zM530 609q-20 20 -20 36t19.5 35t35.5 20q16 -1 35.5 -20t19.5 -35q0 -15 -20 -35.5t-35 -19.5q-15 -1 -35 19zM458 759q-20 20 -20 36t19.5 35t35.5 20q16 -1 35.5 -20
t19.5 -35q0 -15 -20 -35.5t-35 -19.5q-15 -1 -35 19z" />
    <glyph glyph-name="uniFEB7" unicode="&#x634;" horiz-adv-x="916" arabic-form="initial" 
d="M0 0zM818 365.5q8 -61.5 8 -106.5q0 -103 -15 -157.5t-53 -78t-112 -23.5q-65 0 -103 7.5t-60 26.5q-21 -19 -59.5 -26.5t-103.5 -7.5h-340v90h160v290h80v-290h145q44 0 61 11t17 42v237h80v-237q0 -31 17 -42t61 -11h133q12 63 12 166q0 84 -26 199l79 13
q11 -41 19 -102.5zM386 609q-20 20 -20 36t19.5 35t35.5 20q16 -1 35.5 -20t19.5 -35q0 -15 -20 -35.5t-35 -19.5q-15 -1 -35 19zM530 609q-20 20 -20 36t19.5 35t35.5 20q16 -1 35.5 -20t19.5 -35q0 -15 -20 -35.5t-35 -19.5q-15 -1 -35 19zM458 759q-20 20 -20 36t19.5 35
t35.5 20q16 -1 35.5 -20t19.5 -35q0 -15 -20 -35.5t-35 -19.5q-15 -1 -35 19z" />
    <glyph glyph-name="uniFEBA" unicode="&#x635;" horiz-adv-x="1155" arabic-form="final" 
d="M1175 90v-90h-614v-36q0 -86 -20 -128.5t-74 -59t-167 -16.5q-105 0 -152.5 18t-62.5 63.5t-15 142.5q0 57 7.5 117.5t20.5 101.5l79 -13q-27 -115 -27 -189q0 -92 12 -151h183q53 0 82 4.5t41.5 15.5t12.5 33v567h80v-184q34 93 122 143.5t216 50.5q59 0 92 -11
t47.5 -37t14.5 -72v-270h122zM973 90v289q-35 11 -111 11q-145 0 -218.5 -74t-81.5 -226h411z" />
    <glyph glyph-name="uniFEBC" unicode="&#x635;" horiz-adv-x="812" arabic-form="medial" 
d="M832 90v-90h-852v90h160v380h80v-184q34 93 122 143.5t216 50.5q59 0 92 -11t47.5 -37t14.5 -72v-270h120zM302.5 316q-73.5 -74 -81.5 -226h411v289q-35 11 -111 11q-145 0 -218.5 -74z" />
    <glyph glyph-name="uniFEBB" unicode="&#x635;" horiz-adv-x="807" arabic-form="initial" 
d="M650 469q33 -11 47.5 -37t14.5 -72v-360h-732v90h160v380h80v-184q34 93 122 143.5t216 50.5q59 0 92 -11zM632 90v289q-35 11 -111 11q-145 0 -218.5 -74t-81.5 -226h411z" />
    <glyph glyph-name="uniFEBE" unicode="&#x636;" horiz-adv-x="1155" arabic-form="final" 
d="M70 0zM1175 90v-90h-614v-36q0 -86 -20 -128.5t-74 -59t-167 -16.5q-105 0 -152.5 18t-62.5 63.5t-15 142.5q0 57 7.5 117.5t20.5 101.5l79 -13q-27 -115 -27 -189q0 -92 12 -151h183q53 0 82 4.5t41.5 15.5t12.5 33v567h80v-184q34 93 122 143.5t216 50.5q59 0 92 -11
t47.5 -37t14.5 -72v-270h122zM973 90v289q-35 11 -111 11q-145 0 -218.5 -74t-81.5 -226h411zM788 609q-20 20 -20 36t19.5 35t35.5 20q16 -1 35.5 -20t19.5 -35q0 -15 -20 -35.5t-35 -19.5q-15 -1 -35 19z" />
    <glyph glyph-name="uniFEC0" unicode="&#x636;" horiz-adv-x="812" arabic-form="medial" 
d="M0 0zM832 90v-90h-852v90h160v380h80v-184q34 93 122 143.5t216 50.5q59 0 92 -11t47.5 -37t14.5 -72v-270h120zM302.5 316q-73.5 -74 -81.5 -226h411v289q-35 11 -111 11q-145 0 -218.5 -74zM435 609q-20 20 -20 36t19.5 35t35.5 20q16 -1 35.5 -20t19.5 -35
q0 -15 -20 -35.5t-35 -19.5q-15 -1 -35 19z" />
    <glyph glyph-name="uniFEBF" unicode="&#x636;" horiz-adv-x="807" arabic-form="initial" 
d="M0 0zM650 469q33 -11 47.5 -37t14.5 -72v-360h-732v90h160v380h80v-184q34 93 122 143.5t216 50.5q59 0 92 -11zM632 90v289q-35 11 -111 11q-145 0 -218.5 -74t-81.5 -226h411zM435 609q-20 20 -20 36t19.5 35t35.5 20q16 -1 35.5 -20t19.5 -35q0 -15 -20 -35.5
t-35 -19.5q-15 -1 -35 19z" />
    <glyph glyph-name="uniFEC2" unicode="&#x637;" horiz-adv-x="812" arabic-form="final" 
d="M832 90v-90h-812v90h120v540h80v-344q34 93 122 143.5t216 50.5q59 0 92 -11t47.5 -37t14.5 -72v-270h120zM632 90v289q-35 11 -111 11q-145 0 -218.5 -74t-81.5 -226h411z" />
    <glyph glyph-name="uniFEC4" unicode="&#x637;" horiz-adv-x="812" arabic-form="medial" 
d="M832 90v-90h-852v90h160v540h80v-344q34 93 122 143.5t216 50.5q59 0 92 -11t47.5 -37t14.5 -72v-270h120zM632 90v289q-35 11 -111 11q-145 0 -218.5 -74t-81.5 -226h411z" />
    <glyph glyph-name="uniFEC3" unicode="&#x637;" horiz-adv-x="807" arabic-form="initial" 
d="M650 469q33 -11 47.5 -37t14.5 -72v-360h-732v90h160v540h80v-344q34 93 122 143.5t216 50.5q59 0 92 -11zM632 379q-35 11 -111 11q-145 0 -218.5 -74t-81.5 -226h411v289z" />
    <glyph glyph-name="uniFEC6" unicode="&#x638;" horiz-adv-x="812" arabic-form="final" 
d="M20 0zM832 90v-90h-812v90h120v540h80v-344q34 93 122 143.5t216 50.5q59 0 92 -11t47.5 -37t14.5 -72v-270h120zM632 90v289q-35 11 -111 11q-145 0 -218.5 -74t-81.5 -226h411zM465 609q-20 20 -20 36t19.5 35t35.5 20q16 -1 35.5 -20t19.5 -35q0 -15 -20 -35.5
t-35 -19.5q-15 -1 -35 19z" />
    <glyph glyph-name="uniFEC8" unicode="&#x638;" horiz-adv-x="812" arabic-form="medial" 
d="M0 0zM832 90v-90h-852v90h160v540h80v-344q34 93 122 143.5t216 50.5q59 0 92 -11t47.5 -37t14.5 -72v-270h120zM632 90v289q-35 11 -111 11q-145 0 -218.5 -74t-81.5 -226h411zM465 609q-20 20 -20 36t19.5 35t35.5 20q16 -1 35.5 -20t19.5 -35q0 -15 -20 -35.5
t-35 -19.5q-15 -1 -35 19z" />
    <glyph glyph-name="uniFEC7" unicode="&#x638;" horiz-adv-x="807" arabic-form="initial" 
d="M0 0zM650 469q33 -11 47.5 -37t14.5 -72v-360h-732v90h160v540h80v-344q34 93 122 143.5t216 50.5q59 0 92 -11zM632 379q-35 11 -111 11q-145 0 -218.5 -74t-81.5 -226h411v289zM465 609q-20 20 -20 36t19.5 35t35.5 20q16 -1 35.5 -20t19.5 -35q0 -15 -20 -35.5
t-35 -19.5q-15 -1 -35 19z" />
    <glyph glyph-name="uniFECA" unicode="&#x639;" horiz-adv-x="626" arabic-form="final" 
d="M66.5 -37q15.5 36 52.5 62t111 58q-76 53 -119 130t-43 167q0 40 21.5 61t73.5 30t150 9t150 -9t73.5 -30t21.5 -61q0 -96 -40 -164t-108 -119q42 -7 96 -7h140v-90h-140q-103 0 -195 36q-82 -32 -128.5 -58t-46.5 -49v-147q54 -9 141 -9q35 0 73 5t96 17l13 -88
q-66 -24 -210 -24q-80 0 -122 16t-59 55.5t-17 113.5q0 59 15.5 95zM193.5 214.5q45.5 -66.5 119.5 -99.5q81 37 123 107t42 168h-330q0 -109 45.5 -175.5z" />
    <glyph glyph-name="uniFECC" unicode="&#x639;" horiz-adv-x="626" arabic-form="medial" 
d="M646 90v-90h-140q-104 0 -193 37q-89 -37 -193 -37h-140v90h140q49 0 91 6q-67 53 -105 126.5t-38 157.5q0 40 21.5 61t73.5 30t150 9t150 -9t73.5 -30t21.5 -61q0 -84 -38 -157.5t-105 -126.5q42 -6 91 -6h140zM190 227q42 -67 123 -102q81 35 123 102t42 163h-330
q0 -96 42 -163z" />
    <glyph glyph-name="uniFECB" unicode="&#x639;" horiz-adv-x="582" arabic-form="initial" 
d="M532 90v-90h-552v90h156q-18 51 -18 155q0 97 16 146.5t57 69.5t124 20q47 0 96.5 -8.5t82.5 -21.5l-13 -84q-88 24 -169 24q-72 0 -109 -11v-216q-1 -40 22 -57t71 -17h236z" />
    <glyph glyph-name="uniFECE" unicode="&#x63a;" horiz-adv-x="626" arabic-form="final" 
d="M51 0zM66.5 -37q15.5 36 52.5 62t111 58q-76 53 -119 130t-43 167q0 40 21.5 61t73.5 30t150 9t150 -9t73.5 -30t21.5 -61q0 -96 -40 -164t-108 -119q42 -7 96 -7h140v-90h-140q-103 0 -195 36q-82 -32 -128.5 -58t-46.5 -49v-147q54 -9 141 -9q35 0 73 5t96 17l13 -88
q-66 -24 -210 -24q-80 0 -122 16t-59 55.5t-17 113.5q0 59 15.5 95zM193.5 214.5q45.5 -66.5 119.5 -99.5q81 37 123 107t42 168h-330q0 -109 45.5 -175.5zM278 609q-20 20 -20 36t19.5 35t35.5 20q16 -1 35.5 -20t19.5 -35q0 -15 -20 -35.5t-35 -19.5q-15 -1 -35 19z" />
    <glyph glyph-name="uniFED0" unicode="&#x63a;" horiz-adv-x="626" arabic-form="medial" 
d="M0 0zM646 90v-90h-140q-104 0 -193 37q-89 -37 -193 -37h-140v90h140q49 0 91 6q-67 53 -105 126.5t-38 157.5q0 40 21.5 61t73.5 30t150 9t150 -9t73.5 -30t21.5 -61q0 -84 -38 -157.5t-105 -126.5q42 -6 91 -6h140zM190 227q42 -67 123 -102q81 35 123 102t42 163h-330
q0 -96 42 -163zM278 609q-20 20 -20 36t19.5 35t35.5 20q16 -1 35.5 -20t19.5 -35q0 -15 -20 -35.5t-35 -19.5q-15 -1 -35 19z" />
    <glyph glyph-name="uniFECF" unicode="&#x63a;" horiz-adv-x="582" arabic-form="initial" 
d="M0 0zM532 90v-90h-552v90h156q-18 51 -18 155q0 97 16 146.5t57 69.5t124 20q47 0 96.5 -8.5t82.5 -21.5l-13 -84q-88 24 -169 24q-72 0 -109 -11v-216q-1 -40 22 -57t71 -17h236zM290 609q-20 20 -20 36t19.5 35t35.5 20q16 -1 35.5 -20t19.5 -35q0 -15 -20 -35.5
t-35 -19.5q-15 -1 -35 19z" />
    <glyph glyph-name="uniFED2" unicode="&#x641;" horiz-adv-x="984" arabic-form="final" 
d="M70 0zM1004 90v-90h-794q-52 0 -82.5 20t-44 64.5t-13.5 121.5q0 45 7.5 94.5t20.5 83.5l76 -13q-24 -81 -24 -149q0 -83 16 -132h309q-10 53 -10 170q0 89 17.5 135.5t61.5 65.5t131 19q55 0 102 -7t107 -24v-359h120zM804 388h-208q-27 0 -36.5 -11t-9.5 -44v-243h208
q26 0 36 10.5t10 39.5v248zM668 609q-20 20 -20 36t19.5 35t35.5 20q16 -1 35.5 -20t19.5 -35q0 -15 -20 -35.5t-35 -19.5q-15 -1 -35 19z" />
    <glyph glyph-name="uniFED4" unicode="&#x641;" horiz-adv-x="649" arabic-form="medial" 
d="M0 0zM669 90v-90h-689v90h160q-10 53 -10 170q0 89 17.5 135.5t61.5 65.5t131 19q55 0 102 -7t107 -24v-359h120zM469 388h-208q-27 0 -36.5 -11t-9.5 -44v-243h208q26 0 36 10.5t10 39.5v248zM305 609q-20 20 -20 36t19.5 35t35.5 20q16 -1 35.5 -20t19.5 -35
q0 -15 -20 -35.5t-35 -19.5q-15 -1 -35 19z" />
    <glyph glyph-name="uniFED3" unicode="&#x641;" horiz-adv-x="649" arabic-form="initial" 
d="M0 0zM140 90q-10 53 -10 170q0 89 17.5 135.5t61.5 65.5t131 19q55 0 102 -7t107 -24v-449h-569v90h160zM459 100.5q10 10.5 10 39.5v248h-208q-27 0 -36.5 -11t-9.5 -44v-243h208q26 0 36 10.5zM305 609q-20 20 -20 36t19.5 35t35.5 20q16 -1 35.5 -20t19.5 -35
q0 -15 -20 -35.5t-35 -19.5q-15 -1 -35 19z" />
    <glyph glyph-name="uniFB6B" unicode="&#x6a4;" horiz-adv-x="984" arabic-form="final" 
d="M70 0zM1004 90v-90h-794q-52 0 -82.5 20t-44 64.5t-13.5 121.5q0 45 7.5 94.5t20.5 83.5l76 -13q-24 -81 -24 -149q0 -83 16 -132h309q-10 53 -10 170q0 89 17.5 135.5t61.5 65.5t131 19q55 0 102 -7t107 -24v-359h120zM804 388h-208q-27 0 -36.5 -11t-9.5 -44v-243h208
q26 0 36 10.5t10 39.5v248zM596 609q-20 20 -20 36t19.5 35t35.5 20q16 -1 35.5 -20t19.5 -35q0 -15 -20 -35.5t-35 -19.5q-15 -1 -35 19zM740 609q-20 20 -20 36t19.5 35t35.5 20q16 -1 35.5 -20t19.5 -35q0 -15 -20 -35.5t-35 -19.5q-15 -1 -35 19zM668 759q-20 20 -20 36
t19.5 35t35.5 20q16 -1 35.5 -20t19.5 -35q0 -15 -20 -35.5t-35 -19.5q-15 -1 -35 19z" />
    <glyph glyph-name="uniFB6D" unicode="&#x6a4;" horiz-adv-x="649" arabic-form="medial" 
d="M0 0zM669 90v-90h-689v90h160q-10 53 -10 170q0 89 17.5 135.5t61.5 65.5t131 19q55 0 102 -7t107 -24v-359h120zM469 388h-208q-27 0 -36.5 -11t-9.5 -44v-243h208q26 0 36 10.5t10 39.5v248zM233 609q-20 20 -20 36t19.5 35t35.5 20q16 -1 35.5 -20t19.5 -35
q0 -15 -20 -35.5t-35 -19.5q-15 -1 -35 19zM377 609q-20 20 -20 36t19.5 35t35.5 20q16 -1 35.5 -20t19.5 -35q0 -15 -20 -35.5t-35 -19.5q-15 -1 -35 19zM305 759q-20 20 -20 36t19.5 35t35.5 20q16 -1 35.5 -20t19.5 -35q0 -15 -20 -35.5t-35 -19.5q-15 -1 -35 19z" />
    <glyph glyph-name="uniFB6C" unicode="&#x6a4;" horiz-adv-x="649" arabic-form="initial" 
d="M0 0zM140 90q-10 53 -10 170q0 89 17.5 135.5t61.5 65.5t131 19q55 0 102 -7t107 -24v-449h-569v90h160zM459 100.5q10 10.5 10 39.5v248h-208q-27 0 -36.5 -11t-9.5 -44v-243h208q26 0 36 10.5zM233 609q-20 20 -20 36t19.5 35t35.5 20q16 -1 35.5 -20t19.5 -35
q0 -15 -20 -35.5t-35 -19.5q-15 -1 -35 19zM377 609q-20 20 -20 36t19.5 35t35.5 20q16 -1 35.5 -20t19.5 -35q0 -15 -20 -35.5t-35 -19.5q-15 -1 -35 19zM305 759q-20 20 -20 36t19.5 35t35.5 20q16 -1 35.5 -20t19.5 -35q0 -15 -20 -35.5t-35 -19.5q-15 -1 -35 19z" />
    <glyph glyph-name="uni06A1.init" unicode="&#x6a1;" horiz-adv-x="649" 
d="M140 90q-10 53 -10 170q0 89 17.5 135.5t61.5 65.5t131 19q55 0 102 -7t107 -24v-449h-569v90h160zM459 100.5q10 10.5 10 39.5v248h-208q-27 0 -36.5 -11t-9.5 -44v-243h208q26 0 36 10.5z" />
    <glyph glyph-name="uni06A1.medi" unicode="&#x6a1;" horiz-adv-x="649" 
d="M669 90v-90h-689v90h160q-10 53 -10 170q0 89 17.5 135.5t61.5 65.5t131 19q55 0 102 -7t107 -24v-359h120zM469 388h-208q-27 0 -36.5 -11t-9.5 -44v-243h208q26 0 36 10.5t10 39.5v248z" />
    <glyph glyph-name="uni06A1.fina" unicode="&#x6a1;" horiz-adv-x="984" 
d="M1004 90v-90h-794q-52 0 -82.5 20t-44 64.5t-13.5 121.5q0 45 7.5 94.5t20.5 83.5l76 -13q-24 -81 -24 -149q0 -83 16 -132h309q-10 53 -10 170q0 89 17.5 135.5t61.5 65.5t131 19q55 0 102 -7t107 -24v-359h120zM804 388h-208q-27 0 -36.5 -11t-9.5 -44v-243h208
q26 0 36 10.5t10 39.5v248z" />
    <glyph glyph-name="uni066F.fina" unicode="&#x66f;" horiz-adv-x="882" 
d="M902 90v-90h-120v-100q0 -88 -34.5 -124t-120.5 -36h-427q-52 0 -82.5 23.5t-44 75.5t-13.5 142q0 54 7.5 113t20.5 100l76 -13q-24 -100 -24 -184q0 -104 16 -167h546v170h-194q-59 0 -89.5 20.5t-43 71.5t-12.5 148q0 100 17.5 150t61.5 70t131 20q64 0 111 -7t98 -24
v-359h120zM692 100.5q10 10.5 10 39.5v250h-208q-27 0 -36.5 -11t-9.5 -44v-245h208q26 0 36 10.5z" />
    <glyph glyph-name="uniFED6" unicode="&#x642;" horiz-adv-x="882" arabic-form="final" 
d="M60 0zM902 90v-90h-120v-100q0 -88 -34.5 -124t-120.5 -36h-427q-52 0 -82.5 23.5t-44 75.5t-13.5 142q0 54 7.5 113t20.5 100l76 -13q-24 -100 -24 -184q0 -104 16 -167h546v170h-194q-59 0 -89.5 20.5t-43 71.5t-12.5 148q0 100 17.5 150t61.5 70t131 20q64 0 111 -7
t98 -24v-359h120zM692 100.5q10 10.5 10 39.5v250h-208q-27 0 -36.5 -11t-9.5 -44v-245h208q26 0 36 10.5zM468 609q-20 20 -20 36t19.5 35t35.5 20q16 -1 35.5 -20t19.5 -35q0 -15 -20 -35.5t-35 -19.5q-15 -1 -35 19zM612 609q-20 20 -20 36t19.5 35t35.5 20
q16 -1 35.5 -20t19.5 -35q0 -15 -20 -35.5t-35 -19.5q-15 -1 -35 19z" />
    <glyph glyph-name="uniFED8" unicode="&#x642;" horiz-adv-x="649" arabic-form="medial" 
d="M0 0zM669 90v-90h-689v90h160q-10 53 -10 170q0 89 17.5 135.5t61.5 65.5t131 19q55 0 102 -7t107 -24v-359h120zM469 388h-208q-27 0 -36.5 -11t-9.5 -44v-243h208q26 0 36 10.5t10 39.5v248zM233 609q-20 20 -20 36t19.5 35t35.5 20q16 -1 35.5 -20t19.5 -35
q0 -15 -20 -35.5t-35 -19.5q-15 -1 -35 19zM377 609q-20 20 -20 36t19.5 35t35.5 20q16 -1 35.5 -20t19.5 -35q0 -15 -20 -35.5t-35 -19.5q-15 -1 -35 19z" />
    <glyph glyph-name="uniFED7" unicode="&#x642;" horiz-adv-x="649" arabic-form="initial" 
d="M0 0zM140 90q-10 53 -10 170q0 89 17.5 135.5t61.5 65.5t131 19q55 0 102 -7t107 -24v-449h-569v90h160zM459 100.5q10 10.5 10 39.5v248h-208q-27 0 -36.5 -11t-9.5 -44v-243h208q26 0 36 10.5zM233 609q-20 20 -20 36t19.5 35t35.5 20q16 -1 35.5 -20t19.5 -35
q0 -15 -20 -35.5t-35 -19.5q-15 -1 -35 19zM377 609q-20 20 -20 36t19.5 35t35.5 20q16 -1 35.5 -20t19.5 -35q0 -15 -20 -35.5t-35 -19.5q-15 -1 -35 19z" />
    <glyph glyph-name="uniFEDA" unicode="&#x643;" horiz-adv-x="884" arabic-form="final" 
d="M545 439l-228 -61v46l44 12q-12 26 -12 74q0 78 44 109t128 31v-56q-29 0 -58 -6t-49 -18l-1 -88q0 -13 5 -18.5t16 -5.5q12 0 25 4l86 23v-46zM904 90v-90h-694q-52 0 -82.5 20t-44 64.5t-13.5 121.5q0 45 7.5 94.5t20.5 83.5l76 -13q-24 -81 -24 -149q0 -83 16 -132
h538v540h80v-540h120z" />
    <glyph glyph-name="uniFEDC" unicode="&#x643;" horiz-adv-x="702" arabic-form="medial" 
d="M722 90v-90h-742v90h542v223h-341q-94 0 -94 85q0 43 20.5 101t54.5 114.5t73 95.5l68 -36q-56 -60 -94.5 -132t-49.5 -138h333q43 0 66.5 -10t33.5 -33.5t10 -66.5v-203h120z" />
    <glyph glyph-name="uniFEDB" unicode="&#x643;" horiz-adv-x="702" arabic-form="initial" 
d="M-20 90h542v223h-341q-94 0 -94 85q0 43 20.5 101t54.5 114.5t73 95.5l68 -36q-56 -60 -94.5 -132t-49.5 -138h333q43 0 66.5 -10t33.5 -33.5t10 -66.5v-293h-622v90z" />
    <glyph glyph-name="uniFB8F" unicode="&#x6a9;" horiz-adv-x="844" arabic-form="final" 
d="M864 90v-90h-654q-52 0 -82.5 20t-44 64.5t-13.5 121.5q0 45 7.5 94.5t20.5 83.5l76 -13q-24 -81 -24 -149q0 -83 16 -132h498v223h-261q-94 0 -94 85q0 43 20.5 101t54.5 114.5t73 95.5l68 -36q-56 -60 -94.5 -132t-49.5 -138h253q43 0 66.5 -10t33.5 -33.5t10 -66.5
v-203h120z" />
    <glyph glyph-name="uniFB91" unicode="&#x6a9;" horiz-adv-x="702" arabic-form="medial" 
d="M0 0zM722 90v-90h-742v90h542v223h-341q-94 0 -94 85q0 43 20.5 101t54.5 114.5t73 95.5l68 -36q-56 -60 -94.5 -132t-49.5 -138h333q43 0 66.5 -10t33.5 -33.5t10 -66.5v-203h120z" />
    <glyph glyph-name="uniFB90" unicode="&#x6a9;" horiz-adv-x="702" arabic-form="initial" 
d="M0 0zM-20 90h542v223h-341q-94 0 -94 85q0 43 20.5 101t54.5 114.5t73 95.5l68 -36q-56 -60 -94.5 -132t-49.5 -138h333q43 0 66.5 -10t33.5 -33.5t10 -66.5v-293h-622v90z" />
    <glyph glyph-name="uniFB93" unicode="&#x6af;" horiz-adv-x="844" arabic-form="final" 
d="M70 0zM864 90v-90h-654q-52 0 -82.5 20t-44 64.5t-13.5 121.5q0 45 7.5 94.5t20.5 83.5l76 -13q-24 -81 -24 -149q0 -83 16 -132h498v223h-261q-94 0 -94 85q0 43 20.5 101t54.5 114.5t73 95.5l68 -36q-56 -60 -94.5 -132t-49.5 -138h253q43 0 66.5 -10t33.5 -33.5
t10 -66.5v-203h120zM222.5 648q-39.5 -84 -48.5 -157l73 -25q10 74 46.5 148.5t89.5 132.5l-68 36q-53 -51 -92.5 -135z" />
    <glyph glyph-name="uniFB95" unicode="&#x6af;" horiz-adv-x="702" arabic-form="medial" 
d="M0 0zM722 90v-90h-742v90h542v223h-341q-94 0 -94 85q0 43 20.5 101t54.5 114.5t73 95.5l68 -36q-56 -60 -94.5 -132t-49.5 -138h333q43 0 66.5 -10t33.5 -33.5t10 -66.5v-203h120zM-9.5 648q-39.5 -84 -48.5 -157l73 -25q10 74 46.5 148.5t89.5 132.5l-68 36
q-53 -51 -92.5 -135z" />
    <glyph glyph-name="uniFB94" unicode="&#x6af;" horiz-adv-x="702" arabic-form="initial" 
d="M0 0zM-20 90h542v223h-341q-94 0 -94 85q0 43 20.5 101t54.5 114.5t73 95.5l68 -36q-56 -60 -94.5 -132t-49.5 -138h333q43 0 66.5 -10t33.5 -33.5t10 -66.5v-293h-622v90zM-9.5 648q-39.5 -84 -48.5 -157l73 -25q10 74 46.5 148.5t89.5 132.5l-68 36q-53 -51 -92.5 -135
z" />
    <glyph glyph-name="uniFEDE" unicode="&#x644;" horiz-adv-x="661" arabic-form="final" 
d="M681 90v-90h-120v-36q0 -86 -20 -128.5t-74 -59t-167 -16.5q-100 0 -148 18.5t-65 64.5t-17 141q0 63 8.5 132t21.5 117l74 -13q-24 -118 -24 -219q0 -92 12 -151h183q53 0 82 4.5t41.5 15.5t12.5 33v727h80v-540h120z" />
    <glyph glyph-name="uniFEE0" unicode="&#x644;" horiz-adv-x="320" arabic-form="medial" 
d="M340 90v-90h-360v90h160v540h80v-540h120z" />
    <glyph glyph-name="uniFEDF" unicode="&#x644;" horiz-adv-x="320" arabic-form="initial" 
d="M-20 0v90h160v540h80v-630h-240z" />
    <glyph glyph-name="uniFEE2" unicode="&#x645;" horiz-adv-x="655" arabic-form="final" 
d="M675 90v-90h-559q-16 -57 -16 -142q0 -66 28 -177l-78 -15q-13 39 -21.5 97t-8.5 112q0 112 24 161t82 53q-16 53 -16 139q0 100 44 212q39 18 98 29t119 11q69 0 109 -12.5t57.5 -40.5t17.5 -77v-260h120zM475 379q-41 11 -111 11q-74 0 -149 -16q-25 -85 -25 -146
q0 -85 18 -138h267v289z" />
    <glyph glyph-name="uniFEE4" unicode="&#x645;" horiz-adv-x="655" arabic-form="medial" 
d="M675 90v-90h-695v90h146q-16 53 -16 138q0 100 44 212q40 19 99.5 29.5t117.5 10.5q69 0 109 -12.5t57.5 -40.5t17.5 -77v-260h120zM475 379q-44 11 -111 11q-72 0 -149 -17q-25 -83 -25 -145q0 -85 18 -138h267v289z" />
    <glyph glyph-name="uniFEE3" unicode="&#x645;" horiz-adv-x="651" arabic-form="initial" 
d="M480 467.5q40 -12.5 57.5 -40.5t17.5 -77v-350h-575v90h146q-16 53 -16 138q0 100 44 212q40 19 99.5 29.5t117.5 10.5q69 0 109 -12.5zM475 379q-44 11 -111 11q-72 0 -149 -17q-25 -83 -25 -145q0 -85 18 -138h267v289z" />
    <glyph glyph-name="uniFEE6" unicode="&#x646;" horiz-adv-x="661" arabic-form="final" 
d="M70 0zM681 90v-90h-120v-36q0 -86 -20 -128.5t-74 -59t-167 -16.5q-100 0 -148 18.5t-65 64.5t-17 141q0 63 8.5 132t21.5 117l74 -13q-24 -118 -24 -219q0 -92 12 -151h183q53 0 82 4.5t41.5 15.5t12.5 33v567h80v-380h120zM285 609q-20 20 -20 36t19.5 35t35.5 20
q16 -1 35.5 -20t19.5 -35q0 -15 -20 -35.5t-35 -19.5q-15 -1 -35 19z" />
    <glyph glyph-name="uniFEE8" unicode="&#x646;" horiz-adv-x="320" arabic-form="medial" 
d="M0 0zM340 90v-90h-360v90h160v380h80v-380h120zM145 609q-20 20 -20 36t19.5 35t35.5 20q16 -1 35.5 -20t19.5 -35q0 -15 -20 -35.5t-35 -19.5q-15 -1 -35 19z" />
    <glyph glyph-name="uniFEE7" unicode="&#x646;" horiz-adv-x="320" arabic-form="initial" 
d="M0 0zM-20 90h160v380h80v-470h-240v90zM145 609q-20 20 -20 36t19.5 35t35.5 20q16 -1 35.5 -20t19.5 -35q0 -15 -20 -35.5t-35 -19.5q-15 -1 -35 19z" />
    <glyph glyph-name="uniFB9F" unicode="&#x6ba;" horiz-adv-x="661" arabic-form="final" 
d="M681 90v-90h-120v-36q0 -86 -20 -128.5t-74 -59t-167 -16.5q-100 0 -148 18.5t-65 64.5t-17 141q0 63 8.5 132t21.5 117l74 -13q-24 -118 -24 -219q0 -92 12 -151h183q53 0 82 4.5t41.5 15.5t12.5 33v567h80v-380h120z" />
    <glyph glyph-name="uniFEEA" unicode="&#x647;" horiz-adv-x="619" arabic-form="final" 
d="M639 90v-90h-351q-90 0 -131.5 17.5t-56.5 65.5t-15 152t15 152t56.5 65.5t131.5 17.5h244v-380h107zM452 380h-213q-37 0 -53 -13t-16 -43v-178q0 -30 16 -43t53 -13h213v290z" />
    <glyph glyph-name="uniFEEC" unicode="&#x647;" horiz-adv-x="730" arabic-form="medial" 
d="M750 89v-90h-110v1h-660v90h114q1 100 13 143t45.5 57t112.5 14q84 0 119.5 -14t48 -56.5t13.5 -143.5h147l-50 194q-18 68 -55 106.5t-96 54.5t-151 16l5 87q112 0 184.5 -20t118 -70.5t68.5 -142.5l58 -226h75zM164 90h212v149h-161q-28 0 -39.5 -8.5t-11.5 -30.5v-110
z" />
    <glyph glyph-name="uniFEEB" unicode="&#x647;" horiz-adv-x="730" arabic-form="initial" 
d="M680 69v-69h-700v90h114q1 100 13 143t45.5 57t112.5 14q84 0 119.5 -14t48 -56.5t13.5 -143.5h147l-50 194q-18 68 -55 106.5t-96 54.5t-151 16l5 87q112 0 184.5 -20t118 -70.5t68.5 -142.5zM164 90h212v149h-161q-28 0 -39.5 -8.5t-11.5 -30.5v-110z" />
    <glyph glyph-name="uniFBA7" unicode="&#x6c1;" horiz-adv-x="652" arabic-form="final" 
d="M672 90v-90h-200v380q-67 10 -140 10q-98 0 -156 -11v-379h-80v340q0 53 20 83t67 43.5t132 13.5q64 0 132 -8.5t105 -21.5v-360h120z" />
    <glyph glyph-name="uniFBA9" unicode="&#x6c1;" horiz-adv-x="653" arabic-form="medial" 
d="M675 0h-120v-235q0 -53 -15.5 -83t-53 -43.5t-105.5 -13.5q-55 0 -110.5 10t-98.5 30q-20 47 -32 107.5t-12 119.5v108h-148v90h228v-198q0 -79 29 -163q70 -14 127 -14q71 0 111 11v364h200v-90z" />
    <glyph glyph-name="uniFBA8" unicode="&#x6c1;" horiz-adv-x="320" arabic-form="initial" 
d="M230 -87q7 -11 7 -38q0 -31 -11.5 -43t-42.5 -12q-28 0 -39 12t-11 43q0 14 4.5 28.5t16.5 43.5l25 53h-199v90h160v380h80v-470l-16 -72q19 -4 26 -15z" />
    <glyph glyph-name="uni06C2.fina" unicode="&#x6c2;" horiz-adv-x="619" 
d="M85 0zM639 90v-90h-351q-90 0 -131.5 17.5t-56.5 65.5t-15 152t15 152t56.5 65.5t131.5 17.5h244v-380h107zM452 380h-213q-37 0 -53 -13t-16 -43v-178q0 -30 16 -43t53 -13h213v290zM424 685v-46l-228 -61v46l44 12q-12 26 -12 74q0 78 44 109t128 31v-56q-29 0 -58 -6
t-49 -18l-1 -88q0 -13 5 -18.5t16 -5.5q12 0 25 4z" />
    <glyph glyph-name="uniFBAB" unicode="&#x6be;" horiz-adv-x="730" arabic-form="final" 
d="M750 89v-90h-110v1h-620v90h74q1 100 13 143t45.5 57t112.5 14q84 0 119.5 -14t48 -56.5t13.5 -143.5h147l-50 194q-18 68 -55 106.5t-96 54.5t-151 16l5 87q112 0 184.5 -20t118 -70.5t68.5 -142.5l58 -226h75zM164 90h212v149h-161q-28 0 -39.5 -8.5t-11.5 -30.5v-110z
" />
    <glyph glyph-name="uniFBAD" unicode="&#x6be;" horiz-adv-x="730" arabic-form="medial" 
d="M0 0zM750 89v-90h-110v1h-660v90h114q1 100 13 143t45.5 57t112.5 14q84 0 119.5 -14t48 -56.5t13.5 -143.5h147l-50 194q-18 68 -55 106.5t-96 54.5t-151 16l5 87q112 0 184.5 -20t118 -70.5t68.5 -142.5l58 -226h75zM164 90h212v149h-161q-28 0 -39.5 -8.5t-11.5 -30.5
v-110z" />
    <glyph glyph-name="uniFBAC" unicode="&#x6be;" horiz-adv-x="730" arabic-form="initial" 
d="M0 0zM680 69v-69h-700v90h114q1 100 13 143t45.5 57t112.5 14q84 0 119.5 -14t48 -56.5t13.5 -143.5h147l-50 194q-18 68 -55 106.5t-96 54.5t-151 16l5 87q112 0 184.5 -20t118 -70.5t68.5 -142.5zM164 90h212v149h-161q-28 0 -39.5 -8.5t-11.5 -30.5v-110z" />
    <glyph glyph-name="uniFE94" unicode="&#x629;" horiz-adv-x="619" arabic-form="final" 
d="M85 0zM639 90v-90h-351q-90 0 -131.5 17.5t-56.5 65.5t-15 152t15 152t56.5 65.5t131.5 17.5h244v-380h107zM452 380h-213q-37 0 -53 -13t-16 -43v-178q0 -30 16 -43t53 -13h213v290zM203 609q-20 20 -20 36t19.5 35t35.5 20q16 -1 35.5 -20t19.5 -35q0 -15 -20 -35.5
t-35 -19.5q-15 -1 -35 19zM347 609q-20 20 -20 36t19.5 35t35.5 20q16 -1 35.5 -20t19.5 -35q0 -15 -20 -35.5t-35 -19.5q-15 -1 -35 19z" />
    <glyph glyph-name="uni06C3.fina" unicode="&#x6c3;" horiz-adv-x="652" 
d="M96 0zM672 90v-90h-200v380q-67 10 -140 10q-98 0 -156 -11v-379h-80v340q0 53 20 83t67 43.5t132 13.5q64 0 132 -8.5t105 -21.5v-360h120zM224 609q-20 20 -20 36t19.5 35t35.5 20q16 -1 35.5 -20t19.5 -35q0 -15 -20 -35.5t-35 -19.5q-15 -1 -35 19zM368 609
q-20 20 -20 36t19.5 35t35.5 20q16 -1 35.5 -20t19.5 -35q0 -15 -20 -35.5t-35 -19.5q-15 -1 -35 19z" />
    <glyph glyph-name="uniFEEE" unicode="&#x648;" horiz-adv-x="614" arabic-form="final" 
d="M634 0h-146q-24 -73 -77.5 -146.5t-118.5 -120.5l-50 62q51 40 94 95t67 110h-173q-59 0 -89.5 20.5t-43 71.5t-12.5 148q0 100 17.5 150t61.5 70t131 20q64 0 111 -7t98 -24v-359h130v-90zM378 90q26 0 36 10.5t10 39.5v250h-208q-27 0 -36.5 -11t-9.5 -44v-245h208z
" />
    <glyph glyph-name="uniFE86" unicode="&#x624;" horiz-adv-x="614" arabic-form="final" 
d="M85 0zM634 0h-146q-24 -73 -77.5 -146.5t-118.5 -120.5l-50 62q51 40 94 95t67 110h-173q-59 0 -89.5 20.5t-43 71.5t-12.5 148q0 100 17.5 150t61.5 70t131 20q64 0 111 -7t98 -24v-359h130v-90zM378 90q26 0 36 10.5t10 39.5v250h-208q-27 0 -36.5 -11t-9.5 -44v-245
h208zM409 685v-46l-228 -61v46l44 12q-12 26 -12 74q0 78 44 109t128 31v-56q-29 0 -58 -6t-49 -18l-1 -88q0 -13 5 -18.5t16 -5.5q12 0 25 4z" />
    <glyph glyph-name="uniFEF0" unicode="&#x649;" horiz-adv-x="861" arabic-form="final" 
d="M881 90v-90h-120v-81q0 -79 -28.5 -119.5t-105 -57.5t-229.5 -17q-143 0 -208.5 12t-92.5 51t-27 126q0 58 8.5 122t21.5 107l78 -14q-28 -122 -28 -193q0 -72 12 -121h283q95 0 144.5 4.5t70.5 15.5t21 33v132h-50q-50 0 -105.5 8.5t-93.5 21.5l13 84q92 -24 169 -24
h267z" />
    <glyph glyph-name="uniFEF2" unicode="&#x64a;" horiz-adv-x="861" arabic-form="final" 
d="M70 0zM881 90v-90h-120v-81q0 -79 -28.5 -119.5t-105 -57.5t-229.5 -17q-143 0 -208.5 12t-92.5 51t-27 126q0 58 8.5 122t21.5 107l78 -14q-28 -122 -28 -193q0 -72 12 -121h283q95 0 144.5 4.5t70.5 15.5t21 33v132h-50q-50 0 -105.5 8.5t-93.5 21.5l13 84
q92 -24 169 -24h267zM324 -421q-20 20 -20 36t19.5 35t35.5 20q16 -1 35.5 -20t19.5 -35q0 -15 -20 -35.5t-35 -19.5q-15 -1 -35 19zM468 -421q-20 20 -20 36t19.5 35t35.5 20q16 -1 35.5 -20t19.5 -35q0 -15 -20 -35.5t-35 -19.5q-15 -1 -35 19z" />
    <glyph glyph-name="uniFEF4" unicode="&#x64a;" horiz-adv-x="320" arabic-form="medial" 
d="M0 0zM340 90v-90h-360v90h160v380h80v-380h120zM68 -171q-20 20 -20 36t19.5 35t35.5 20q16 -1 35.5 -20t19.5 -35q0 -15 -20 -35.5t-35 -19.5q-15 -1 -35 19zM212 -171q-20 20 -20 36t19.5 35t35.5 20q16 -1 35.5 -20t19.5 -35q0 -15 -20 -35.5t-35 -19.5q-15 -1 -35 19
z" />
    <glyph glyph-name="uniFEF3" unicode="&#x64a;" horiz-adv-x="320" arabic-form="initial" 
d="M0 0zM-20 90h160v380h80v-470h-240v90zM9 -151q-20 20 -20 36t19.5 35t35.5 20q16 -1 35.5 -20t19.5 -35q0 -15 -20 -35.5t-35 -19.5q-15 -1 -35 19zM153 -151q-20 20 -20 36t19.5 35t35.5 20q16 -1 35.5 -20t19.5 -35q0 -15 -20 -35.5t-35 -19.5q-15 -1 -35 19z" />
    <glyph glyph-name="uniFE8A" unicode="&#x626;" horiz-adv-x="861" arabic-form="final" 
d="M56 0zM881 90v-90h-120v-81q0 -79 -28.5 -119.5t-105 -57.5t-229.5 -17q-143 0 -208.5 12t-92.5 51t-27 126q0 58 8.5 122t21.5 107l78 -14q-28 -122 -28 -193q0 -72 12 -121h283q95 0 144.5 4.5t70.5 15.5t21 33v132h-50q-50 0 -105.5 8.5t-93.5 21.5l13 84
q92 -24 169 -24h267zM284 375v-46l-228 -61v46l44 12q-12 26 -12 74q0 78 44 109t128 31v-56q-29 0 -58 -6t-49 -18l-1 -88q0 -13 5 -18.5t16 -5.5q12 0 25 4z" />
    <glyph glyph-name="uniFE8C" unicode="&#x626;" horiz-adv-x="320" arabic-form="medial" 
d="M0 0zM340 90v-90h-360v90h160v380h80v-380h120zM294 685v-46l-228 -61v46l44 12q-12 26 -12 74q0 78 44 109t128 31v-56q-29 0 -58 -6t-49 -18l-1 -88q0 -13 5 -18.5t16 -5.5q12 0 25 4z" />
    <glyph glyph-name="uniFE8B" unicode="&#x626;" horiz-adv-x="320" arabic-form="initial" 
d="M0 0zM-20 90h160v380h80v-470h-240v90zM294 685v-46l-228 -61v46l44 12q-12 26 -12 74q0 78 44 109t128 31v-56q-29 0 -58 -6t-49 -18l-1 -88q0 -13 5 -18.5t16 -5.5q12 0 25 4z" />
    <glyph glyph-name="uniFBFD" unicode="&#x6cc;" horiz-adv-x="861" arabic-form="final" 
d="M70 0zM881 90v-90h-120v-81q0 -79 -28.5 -119.5t-105 -57.5t-229.5 -17q-143 0 -208.5 12t-92.5 51t-27 126q0 58 8.5 122t21.5 107l78 -14q-28 -122 -28 -193q0 -72 12 -121h283q95 0 144.5 4.5t70.5 15.5t21 33v132h-50q-50 0 -105.5 8.5t-93.5 21.5l13 84
q92 -24 169 -24h267z" />
    <glyph glyph-name="uniFBFF" unicode="&#x6cc;" horiz-adv-x="320" arabic-form="medial" 
d="M0 0zM340 90v-90h-360v90h160v380h80v-380h120zM68 -171q-20 20 -20 36t19.5 35t35.5 20q16 -1 35.5 -20t19.5 -35q0 -15 -20 -35.5t-35 -19.5q-15 -1 -35 19zM212 -171q-20 20 -20 36t19.5 35t35.5 20q16 -1 35.5 -20t19.5 -35q0 -15 -20 -35.5t-35 -19.5q-15 -1 -35 19
z" />
    <glyph glyph-name="uniFBFE" unicode="&#x6cc;" horiz-adv-x="320" arabic-form="initial" 
d="M0 0zM-20 90h160v380h80v-470h-240v90zM9 -151q-20 20 -20 36t19.5 35t35.5 20q16 -1 35.5 -20t19.5 -35q0 -15 -20 -35.5t-35 -19.5q-15 -1 -35 19zM153 -151q-20 20 -20 36t19.5 35t35.5 20q16 -1 35.5 -20t19.5 -35q0 -15 -20 -35.5t-35 -19.5q-15 -1 -35 19z" />
    <glyph glyph-name="uniFBAF" unicode="&#x6d2;" horiz-adv-x="690" arabic-form="final" 
d="M130 0v-132q0 -22 19 -33t64.5 -15.5t132.5 -4.5q91 0 146 4.5t140 19.5l13 -84q-51 -13 -128 -21.5t-149 -8.5q-136 0 -202.5 16.5t-91 57.5t-24.5 125v166h660v-90h-580z" />
    <glyph glyph-name="uniFBB1" unicode="&#x6d3;" horiz-adv-x="690" arabic-form="final" 
d="M50 0zM130 0v-132q0 -22 19 -33t64.5 -15.5t132.5 -4.5q91 0 146 4.5t140 19.5l13 -84q-51 -13 -128 -21.5t-149 -8.5q-136 0 -202.5 16.5t-91 57.5t-24.5 125v166h660v-90h-580zM419 330v-46l-228 -61v46l44 12q-12 26 -12 74q0 78 44 109t128 31v-56q-29 0 -58 -6
t-49 -18l-1 -88q0 -13 5 -18.5t16 -5.5q12 0 25 4z" />
    <glyph glyph-name="uniFC6A" unicode="&#xfc6a;" horiz-adv-x="641" arabic-form="final" 
d="M28 0zM661 90v-90h-200v380h-250v-380q0 -99 -35 -160t-114 -99l-34 70q58 28 80.5 69.5t22.5 119.5v470h410v-380h120zM466 -171q-20 20 -20 36t19.5 35t35.5 20q16 -1 35.5 -20t19.5 -35q0 -15 -20 -35.5t-35 -19.5q-15 -1 -35 19z" />
    <glyph glyph-name="uniFC6B" unicode="&#xfc6b;" horiz-adv-x="641" arabic-form="final" 
d="M28 0zM661 90v-90h-200v380h-250v-380q0 -99 -35 -160t-114 -99l-34 70q58 28 80.5 69.5t22.5 119.5v470h410v-380h120zM466 -171q-20 20 -20 36t19.5 35t35.5 20q16 -1 35.5 -20t19.5 -35q0 -15 -20 -35.5t-35 -19.5q-15 -1 -35 19zM136 609q-20 20 -20 36t19.5 35
t35.5 20q16 -1 35.5 -20t19.5 -35q0 -15 -20 -35.5t-35 -19.5q-15 -1 -35 19z" />
    <glyph glyph-name="uniFC6D" unicode="&#xfc6d;" horiz-adv-x="991" arabic-form="final" 
d="M70 0zM285 629q-20 20 -20 36t19.5 35t35.5 20q16 -1 35.5 -20t19.5 -35q0 -15 -20 -35.5t-35 -19.5q-15 -1 -35 19zM1011 90v-90h-200v380h-250v-416q0 -86 -20 -128.5t-74 -59t-167 -16.5q-100 0 -148 18.5t-65 64.5t-17 141q0 63 8.5 132t21.5 117l74 -13
q-24 -118 -24 -219q0 -92 12 -151h183q53 0 82 4.5t41.5 15.5t12.5 33v567h410v-380h120zM818 -171q-20 20 -20 36t19.5 35t35.5 20q16 -1 35.5 -20t19.5 -35q0 -15 -20 -35.5t-35 -19.5q-15 -1 -35 19z" />
    <glyph glyph-name="uniFC6E" unicode="&#xfc6e;" horiz-adv-x="1131" arabic-form="final" 
d="M70 0zM1151 90v-90h-200v380h-488v-188l162 -17q54 -5 83.5 -25t41 -58t11.5 -102v-71q0 -79 -28.5 -119.5t-105 -57.5t-229.5 -17q-143 0 -208.5 12t-92.5 51t-27 126q0 58 8.5 122t21.5 107l78 -14q-28 -122 -28 -193q0 -72 12 -121h283q95 0 144.5 4.5t70.5 15.5
t21 33v211l-140 17q-67 8 -101.5 28t-48 57.5t-13.5 103.5q0 70 16 109.5t54.5 57.5t108.5 18h474v-380h120zM956 -151q-20 20 -20 36t19.5 35t35.5 20q16 -1 35.5 -20t19.5 -35q0 -15 -20 -35.5t-35 -19.5q-15 -1 -35 19z" />
    <glyph glyph-name="uniFC6F" unicode="&#xfc6f;" horiz-adv-x="1131" arabic-form="final" 
d="M70 0zM1151 90v-90h-200v380h-488v-188l162 -17q54 -5 83.5 -25t41 -58t11.5 -102v-71q0 -79 -28.5 -119.5t-105 -57.5t-229.5 -17q-143 0 -208.5 12t-92.5 51t-27 126q0 58 8.5 122t21.5 107l78 -14q-28 -122 -28 -193q0 -72 12 -121h283q95 0 144.5 4.5t70.5 15.5
t21 33v211l-140 17q-67 8 -101.5 28t-48 57.5t-13.5 103.5q0 70 16 109.5t54.5 57.5t108.5 18h474v-380h120zM956 -151q-20 20 -20 36t19.5 35t35.5 20q16 -1 35.5 -20t19.5 -35q0 -15 -20 -35.5t-35 -19.5q-15 -1 -35 19zM324 -421q-20 20 -20 36t19.5 35t35.5 20
q16 -1 35.5 -20t19.5 -35q0 -15 -20 -35.5t-35 -19.5q-15 -1 -35 19zM468 -421q-20 20 -20 36t19.5 35t35.5 20q16 -1 35.5 -20t19.5 -35q0 -15 -20 -35.5t-35 -19.5q-15 -1 -35 19z" />
    <glyph glyph-name="uniFC70" unicode="&#xfc70;" horiz-adv-x="641" arabic-form="final" 
d="M28 0zM661 90v-90h-200v380h-250v-380q0 -99 -35 -160t-114 -99l-34 70q58 28 80.5 69.5t22.5 119.5v470h410v-380h120zM394 609q-20 20 -20 36t19.5 35t35.5 20q16 -1 35.5 -20t19.5 -35q0 -15 -20 -35.5t-35 -19.5q-15 -1 -35 19zM538 609q-20 20 -20 36t19.5 35
t35.5 20q16 -1 35.5 -20t19.5 -35q0 -15 -20 -35.5t-35 -19.5q-15 -1 -35 19z" />
    <glyph glyph-name="uniFC71" unicode="&#xfc71;" horiz-adv-x="641" arabic-form="final" 
d="M28 0zM661 90v-90h-200v380h-250v-380q0 -99 -35 -160t-114 -99l-34 70q58 28 80.5 69.5t22.5 119.5v470h410v-380h120zM394 609q-20 20 -20 36t19.5 35t35.5 20q16 -1 35.5 -20t19.5 -35q0 -15 -20 -35.5t-35 -19.5q-15 -1 -35 19zM538 609q-20 20 -20 36t19.5 35
t35.5 20q16 -1 35.5 -20t19.5 -35q0 -15 -20 -35.5t-35 -19.5q-15 -1 -35 19zM136 609q-20 20 -20 36t19.5 35t35.5 20q16 -1 35.5 -20t19.5 -35q0 -15 -20 -35.5t-35 -19.5q-15 -1 -35 19z" />
    <glyph glyph-name="uniFC73" unicode="&#xfc73;" horiz-adv-x="991" arabic-form="final" 
d="M70 0zM285 629q-20 20 -20 36t19.5 35t35.5 20q16 -1 35.5 -20t19.5 -35q0 -15 -20 -35.5t-35 -19.5q-15 -1 -35 19zM1011 90v-90h-200v380h-250v-416q0 -86 -20 -128.5t-74 -59t-167 -16.5q-100 0 -148 18.5t-65 64.5t-17 141q0 63 8.5 132t21.5 117l74 -13
q-24 -118 -24 -219q0 -92 12 -151h183q53 0 82 4.5t41.5 15.5t12.5 33v567h410v-380h120zM746 609q-20 20 -20 36t19.5 35t35.5 20q16 -1 35.5 -20t19.5 -35q0 -15 -20 -35.5t-35 -19.5q-15 -1 -35 19zM890 609q-20 20 -20 36t19.5 35t35.5 20q16 -1 35.5 -20t19.5 -35
q0 -15 -20 -35.5t-35 -19.5q-15 -1 -35 19z" />
    <glyph glyph-name="uniFC74" unicode="&#xfc74;" horiz-adv-x="1131" arabic-form="final" 
d="M70 0zM1151 90v-90h-200v380h-488v-188l162 -17q54 -5 83.5 -25t41 -58t11.5 -102v-71q0 -79 -28.5 -119.5t-105 -57.5t-229.5 -17q-143 0 -208.5 12t-92.5 51t-27 126q0 58 8.5 122t21.5 107l78 -14q-28 -122 -28 -193q0 -72 12 -121h283q95 0 144.5 4.5t70.5 15.5
t21 33v211l-140 17q-67 8 -101.5 28t-48 57.5t-13.5 103.5q0 70 16 109.5t54.5 57.5t108.5 18h474v-380h120zM883 609q-20 20 -20 36t19.5 35t35.5 20q16 -1 35.5 -20t19.5 -35q0 -15 -20 -35.5t-35 -19.5q-15 -1 -35 19zM1027 609q-20 20 -20 36t19.5 35t35.5 20
q16 -1 35.5 -20t19.5 -35q0 -15 -20 -35.5t-35 -19.5q-15 -1 -35 19z" />
    <glyph glyph-name="uniFC75" unicode="&#xfc75;" horiz-adv-x="1131" arabic-form="final" 
d="M70 0zM1151 90v-90h-200v380h-488v-188l162 -17q54 -5 83.5 -25t41 -58t11.5 -102v-71q0 -79 -28.5 -119.5t-105 -57.5t-229.5 -17q-143 0 -208.5 12t-92.5 51t-27 126q0 58 8.5 122t21.5 107l78 -14q-28 -122 -28 -193q0 -72 12 -121h283q95 0 144.5 4.5t70.5 15.5
t21 33v211l-140 17q-67 8 -101.5 28t-48 57.5t-13.5 103.5q0 70 16 109.5t54.5 57.5t108.5 18h474v-380h120zM883 609q-20 20 -20 36t19.5 35t35.5 20q16 -1 35.5 -20t19.5 -35q0 -15 -20 -35.5t-35 -19.5q-15 -1 -35 19zM1027 609q-20 20 -20 36t19.5 35t35.5 20
q16 -1 35.5 -20t19.5 -35q0 -15 -20 -35.5t-35 -19.5q-15 -1 -35 19zM324 -421q-20 20 -20 36t19.5 35t35.5 20q16 -1 35.5 -20t19.5 -35q0 -15 -20 -35.5t-35 -19.5q-15 -1 -35 19zM468 -421q-20 20 -20 36t19.5 35t35.5 20q16 -1 35.5 -20t19.5 -35q0 -15 -20 -35.5
t-35 -19.5q-15 -1 -35 19z" />
    <glyph glyph-name="uniFC76" unicode="&#xfc76;" horiz-adv-x="641" arabic-form="final" 
d="M28 0zM661 90v-90h-200v380h-250v-380q0 -99 -35 -160t-114 -99l-34 70q58 28 80.5 69.5t22.5 119.5v470h410v-380h120zM394 609q-20 20 -20 36t19.5 35t35.5 20q16 -1 35.5 -20t19.5 -35q0 -15 -20 -35.5t-35 -19.5q-15 -1 -35 19zM538 609q-20 20 -20 36t19.5 35
t35.5 20q16 -1 35.5 -20t19.5 -35q0 -15 -20 -35.5t-35 -19.5q-15 -1 -35 19zM466 759q-20 20 -20 36t19.5 35t35.5 20q16 -1 35.5 -20t19.5 -35q0 -15 -20 -35.5t-35 -19.5q-15 -1 -35 19z" />
    <glyph glyph-name="uniFC77" unicode="&#xfc77;" horiz-adv-x="641" arabic-form="final" 
d="M28 0zM661 90v-90h-200v380h-250v-380q0 -99 -35 -160t-114 -99l-34 70q58 28 80.5 69.5t22.5 119.5v470h410v-380h120zM394 609q-20 20 -20 36t19.5 35t35.5 20q16 -1 35.5 -20t19.5 -35q0 -15 -20 -35.5t-35 -19.5q-15 -1 -35 19zM538 609q-20 20 -20 36t19.5 35
t35.5 20q16 -1 35.5 -20t19.5 -35q0 -15 -20 -35.5t-35 -19.5q-15 -1 -35 19zM466 759q-20 20 -20 36t19.5 35t35.5 20q16 -1 35.5 -20t19.5 -35q0 -15 -20 -35.5t-35 -19.5q-15 -1 -35 19zM136 609q-20 20 -20 36t19.5 35t35.5 20q16 -1 35.5 -20t19.5 -35q0 -15 -20 -35.5
t-35 -19.5q-15 -1 -35 19z" />
    <glyph glyph-name="uniFC79" unicode="&#xfc79;" horiz-adv-x="991" arabic-form="final" 
d="M70 0zM285 629q-20 20 -20 36t19.5 35t35.5 20q16 -1 35.5 -20t19.5 -35q0 -15 -20 -35.5t-35 -19.5q-15 -1 -35 19zM1011 90v-90h-200v380h-250v-416q0 -86 -20 -128.5t-74 -59t-167 -16.5q-100 0 -148 18.5t-65 64.5t-17 141q0 63 8.5 132t21.5 117l74 -13
q-24 -118 -24 -219q0 -92 12 -151h183q53 0 82 4.5t41.5 15.5t12.5 33v567h410v-380h120zM746 609q-20 20 -20 36t19.5 35t35.5 20q16 -1 35.5 -20t19.5 -35q0 -15 -20 -35.5t-35 -19.5q-15 -1 -35 19zM890 609q-20 20 -20 36t19.5 35t35.5 20q16 -1 35.5 -20t19.5 -35
q0 -15 -20 -35.5t-35 -19.5q-15 -1 -35 19zM818 759q-20 20 -20 36t19.5 35t35.5 20q16 -1 35.5 -20t19.5 -35q0 -15 -20 -35.5t-35 -19.5q-15 -1 -35 19z" />
    <glyph glyph-name="uniFC7A" unicode="&#xfc7a;" horiz-adv-x="1131" arabic-form="final" 
d="M70 0zM1151 90v-90h-200v380h-488v-188l162 -17q54 -5 83.5 -25t41 -58t11.5 -102v-71q0 -79 -28.5 -119.5t-105 -57.5t-229.5 -17q-143 0 -208.5 12t-92.5 51t-27 126q0 58 8.5 122t21.5 107l78 -14q-28 -122 -28 -193q0 -72 12 -121h283q95 0 144.5 4.5t70.5 15.5
t21 33v211l-140 17q-67 8 -101.5 28t-48 57.5t-13.5 103.5q0 70 16 109.5t54.5 57.5t108.5 18h474v-380h120zM883 609q-20 20 -20 36t19.5 35t35.5 20q16 -1 35.5 -20t19.5 -35q0 -15 -20 -35.5t-35 -19.5q-15 -1 -35 19zM1027 609q-20 20 -20 36t19.5 35t35.5 20
q16 -1 35.5 -20t19.5 -35q0 -15 -20 -35.5t-35 -19.5q-15 -1 -35 19zM955 759q-20 20 -20 36t19.5 35t35.5 20q16 -1 35.5 -20t19.5 -35q0 -15 -20 -35.5t-35 -19.5q-15 -1 -35 19z" />
    <glyph glyph-name="uniFC7B" unicode="&#xfc7b;" horiz-adv-x="1131" arabic-form="final" 
d="M70 0zM1151 90v-90h-200v380h-488v-188l162 -17q54 -5 83.5 -25t41 -58t11.5 -102v-71q0 -79 -28.5 -119.5t-105 -57.5t-229.5 -17q-143 0 -208.5 12t-92.5 51t-27 126q0 58 8.5 122t21.5 107l78 -14q-28 -122 -28 -193q0 -72 12 -121h283q95 0 144.5 4.5t70.5 15.5
t21 33v211l-140 17q-67 8 -101.5 28t-48 57.5t-13.5 103.5q0 70 16 109.5t54.5 57.5t108.5 18h474v-380h120zM883 609q-20 20 -20 36t19.5 35t35.5 20q16 -1 35.5 -20t19.5 -35q0 -15 -20 -35.5t-35 -19.5q-15 -1 -35 19zM1027 609q-20 20 -20 36t19.5 35t35.5 20
q16 -1 35.5 -20t19.5 -35q0 -15 -20 -35.5t-35 -19.5q-15 -1 -35 19zM955 759q-20 20 -20 36t19.5 35t35.5 20q16 -1 35.5 -20t19.5 -35q0 -15 -20 -35.5t-35 -19.5q-15 -1 -35 19zM324 -421q-20 20 -20 36t19.5 35t35.5 20q16 -1 35.5 -20t19.5 -35q0 -15 -20 -35.5
t-35 -19.5q-15 -1 -35 19zM468 -421q-20 20 -20 36t19.5 35t35.5 20q16 -1 35.5 -20t19.5 -35q0 -15 -20 -35.5t-35 -19.5q-15 -1 -35 19z" />
    <glyph glyph-name="uniFD0E" unicode="&#xfd0e;" horiz-adv-x="1237" arabic-form="isolated" 
d="M1139 365.5q8 -61.5 8 -106.5q0 -103 -15 -157.5t-53 -78t-112 -23.5q-65 0 -103 7.5t-60 26.5q-21 -19 -59.5 -26.5t-103.5 -7.5h-180v380h-250v-380q0 -99 -35 -160t-114 -99l-34 70q58 28 80.5 69.5t22.5 119.5v470h410v-380h145q44 0 61 11t17 42v237h80v-237
q0 -31 17 -42t61 -11h133q12 63 12 166q0 84 -26 199l79 13q11 -41 19 -102.5z" />
    <glyph glyph-name="uniFD2A" unicode="&#xfd2a;" horiz-adv-x="1247" arabic-form="final" 
d="M1267 90v-90h-300q-65 0 -103 7.5t-60 26.5q-21 -19 -59.5 -26.5t-103.5 -7.5h-180v380h-250v-380q0 -99 -35 -160t-114 -99l-34 70q58 28 80.5 69.5t22.5 119.5v470h410v-380h145q44 0 61 11t17 42v237h80v-237q0 -31 17 -42t61 -11h133q12 63 12 166q0 84 -26 199
l79 13q11 -41 19 -102.5t8 -106.5q0 -115 -19 -169h139z" />
    <glyph glyph-name="uniFCFB" unicode="&#xfcfb;" horiz-adv-x="1727" arabic-form="isolated" 
d="M1629 365.5q8 -61.5 8 -106.5q0 -103 -15 -157.5t-53 -78t-112 -23.5q-65 0 -103 7.5t-60 26.5q-21 -19 -59.5 -26.5t-103.5 -7.5h-180v380h-488v-188l162 -17q54 -5 83.5 -25t41 -58t11.5 -102v-71q0 -79 -28.5 -119.5t-105 -57.5t-229.5 -17q-143 0 -208.5 12t-92.5 51
t-27 126q0 58 8.5 122t21.5 107l78 -14q-28 -122 -28 -193q0 -72 12 -121h283q95 0 144.5 4.5t70.5 15.5t21 33v211l-140 17q-67 8 -101.5 28t-48 57.5t-13.5 103.5q0 70 16 109.5t54.5 57.5t108.5 18h474v-380h145q44 0 61 11t17 42v237h80v-237q0 -31 17 -42t61 -11h133
q12 63 12 166q0 84 -26 199l79 13q11 -41 19 -102.5z" />
    <glyph glyph-name="uniFD17" unicode="&#xfd17;" horiz-adv-x="1737" arabic-form="final" 
d="M1757 90v-90h-300q-65 0 -103 7.5t-60 26.5q-21 -19 -59.5 -26.5t-103.5 -7.5h-180v380h-488v-188l162 -17q54 -5 83.5 -25t41 -58t11.5 -102v-71q0 -79 -28.5 -119.5t-105 -57.5t-229.5 -17q-143 0 -208.5 12t-92.5 51t-27 126q0 58 8.5 122t21.5 107l78 -14
q-28 -122 -28 -193q0 -72 12 -121h283q95 0 144.5 4.5t70.5 15.5t21 33v211l-140 17q-67 8 -101.5 28t-48 57.5t-13.5 103.5q0 70 16 109.5t54.5 57.5t108.5 18h474v-380h145q44 0 61 11t17 42v237h80v-237q0 -31 17 -42t61 -11h133q12 63 12 166q0 84 -26 199l79 13
q11 -41 19 -102.5t8 -106.5q0 -115 -19 -169h139z" />
    <glyph glyph-name="uniFCFC" unicode="&#xfcfc;" horiz-adv-x="1727" arabic-form="isolated" 
d="M70 0zM1629 365.5q8 -61.5 8 -106.5q0 -103 -15 -157.5t-53 -78t-112 -23.5q-65 0 -103 7.5t-60 26.5q-21 -19 -59.5 -26.5t-103.5 -7.5h-180v380h-488v-188l162 -17q54 -5 83.5 -25t41 -58t11.5 -102v-71q0 -79 -28.5 -119.5t-105 -57.5t-229.5 -17q-143 0 -208.5 12
t-92.5 51t-27 126q0 58 8.5 122t21.5 107l78 -14q-28 -122 -28 -193q0 -72 12 -121h283q95 0 144.5 4.5t70.5 15.5t21 33v211l-140 17q-67 8 -101.5 28t-48 57.5t-13.5 103.5q0 70 16 109.5t54.5 57.5t108.5 18h474v-380h145q44 0 61 11t17 42v237h80v-237q0 -31 17 -42
t61 -11h133q12 63 12 166q0 84 -26 199l79 13q11 -41 19 -102.5zM324 -421q-20 20 -20 36t19.5 35t35.5 20q16 -1 35.5 -20t19.5 -35q0 -15 -20 -35.5t-35 -19.5q-15 -1 -35 19zM468 -421q-20 20 -20 36t19.5 35t35.5 20q16 -1 35.5 -20t19.5 -35q0 -15 -20 -35.5t-35 -19.5
q-15 -1 -35 19z" />
    <glyph glyph-name="uniFD18" unicode="&#xfd18;" horiz-adv-x="1737" arabic-form="final" 
d="M70 0zM1757 90v-90h-300q-65 0 -103 7.5t-60 26.5q-21 -19 -59.5 -26.5t-103.5 -7.5h-180v380h-488v-188l162 -17q54 -5 83.5 -25t41 -58t11.5 -102v-71q0 -79 -28.5 -119.5t-105 -57.5t-229.5 -17q-143 0 -208.5 12t-92.5 51t-27 126q0 58 8.5 122t21.5 107l78 -14
q-28 -122 -28 -193q0 -72 12 -121h283q95 0 144.5 4.5t70.5 15.5t21 33v211l-140 17q-67 8 -101.5 28t-48 57.5t-13.5 103.5q0 70 16 109.5t54.5 57.5t108.5 18h474v-380h145q44 0 61 11t17 42v237h80v-237q0 -31 17 -42t61 -11h133q12 63 12 166q0 84 -26 199l79 13
q11 -41 19 -102.5t8 -106.5q0 -115 -19 -169h139zM324 -421q-20 20 -20 36t19.5 35t35.5 20q16 -1 35.5 -20t19.5 -35q0 -15 -20 -35.5t-35 -19.5q-15 -1 -35 19zM468 -421q-20 20 -20 36t19.5 35t35.5 20q16 -1 35.5 -20t19.5 -35q0 -15 -20 -35.5t-35 -19.5q-15 -1 -35 19
z" />
    <glyph glyph-name="uniFD0D" unicode="&#xfd0d;" horiz-adv-x="1237" arabic-form="isolated" 
d="M28 0zM1139 365.5q8 -61.5 8 -106.5q0 -103 -15 -157.5t-53 -78t-112 -23.5q-65 0 -103 7.5t-60 26.5q-21 -19 -59.5 -26.5t-103.5 -7.5h-180v380h-250v-380q0 -99 -35 -160t-114 -99l-34 70q58 28 80.5 69.5t22.5 119.5v470h410v-380h145q44 0 61 11t17 42v237h80v-237
q0 -31 17 -42t61 -11h133q12 63 12 166q0 84 -26 199l79 13q11 -41 19 -102.5zM697 609q-20 20 -20 36t19.5 35t35.5 20q16 -1 35.5 -20t19.5 -35q0 -15 -20 -35.5t-35 -19.5q-15 -1 -35 19zM841 609q-20 20 -20 36t19.5 35t35.5 20q16 -1 35.5 -20t19.5 -35
q0 -15 -20 -35.5t-35 -19.5q-15 -1 -35 19zM769 759q-20 20 -20 36t19.5 35t35.5 20q16 -1 35.5 -20t19.5 -35q0 -15 -20 -35.5t-35 -19.5q-15 -1 -35 19z" />
    <glyph glyph-name="uniFD29" unicode="&#xfd29;" horiz-adv-x="1247" arabic-form="final" 
d="M28 0zM1267 90v-90h-300q-65 0 -103 7.5t-60 26.5q-21 -19 -59.5 -26.5t-103.5 -7.5h-180v380h-250v-380q0 -99 -35 -160t-114 -99l-34 70q58 28 80.5 69.5t22.5 119.5v470h410v-380h145q44 0 61 11t17 42v237h80v-237q0 -31 17 -42t61 -11h133q12 63 12 166
q0 84 -26 199l79 13q11 -41 19 -102.5t8 -106.5q0 -115 -19 -169h139zM697 609q-20 20 -20 36t19.5 35t35.5 20q16 -1 35.5 -20t19.5 -35q0 -15 -20 -35.5t-35 -19.5q-15 -1 -35 19zM841 609q-20 20 -20 36t19.5 35t35.5 20q16 -1 35.5 -20t19.5 -35q0 -15 -20 -35.5
t-35 -19.5q-15 -1 -35 19zM769 759q-20 20 -20 36t19.5 35t35.5 20q16 -1 35.5 -20t19.5 -35q0 -15 -20 -35.5t-35 -19.5q-15 -1 -35 19z" />
    <glyph glyph-name="uniFD0F" unicode="&#xfd0f;" horiz-adv-x="1128" arabic-form="isolated" 
d="M971 469q33 -11 47.5 -37t14.5 -72v-360h-572v380h-250v-380q0 -99 -35 -160t-114 -99l-34 70q58 28 80.5 69.5t22.5 119.5v470h410v-184q34 93 122 143.5t216 50.5q59 0 92 -11zM953 90v289q-35 11 -111 11q-145 0 -218.5 -74t-81.5 -226h411z" />
    <glyph glyph-name="uniFD2B" unicode="&#xfd2b;" horiz-adv-x="1133" arabic-form="final" 
d="M1153 90v-90h-692v380h-250v-380q0 -99 -35 -160t-114 -99l-34 70q58 28 80.5 69.5t22.5 119.5v470h410v-184q34 93 122 143.5t216 50.5q59 0 92 -11t47.5 -37t14.5 -72v-270h120zM953 90v289q-35 11 -111 11q-145 0 -218.5 -74t-81.5 -226h411z" />
    <glyph glyph-name="uniFD10" unicode="&#xfd10;" horiz-adv-x="1128" arabic-form="isolated" 
d="M28 0zM971 469q33 -11 47.5 -37t14.5 -72v-360h-572v380h-250v-380q0 -99 -35 -160t-114 -99l-34 70q58 28 80.5 69.5t22.5 119.5v470h410v-184q34 93 122 143.5t216 50.5q59 0 92 -11zM953 90v289q-35 11 -111 11q-145 0 -218.5 -74t-81.5 -226h411zM756 609
q-20 20 -20 36t19.5 35t35.5 20q16 -1 35.5 -20t19.5 -35q0 -15 -20 -35.5t-35 -19.5q-15 -1 -35 19z" />
    <glyph glyph-name="uniFD2C" unicode="&#xfd2c;" horiz-adv-x="1133" arabic-form="final" 
d="M28 0zM1153 90v-90h-692v380h-250v-380q0 -99 -35 -160t-114 -99l-34 70q58 28 80.5 69.5t22.5 119.5v470h410v-184q34 93 122 143.5t216 50.5q59 0 92 -11t47.5 -37t14.5 -72v-270h120zM953 90v289q-35 11 -111 11q-145 0 -218.5 -74t-81.5 -226h411zM756 609
q-20 20 -20 36t19.5 35t35.5 20q16 -1 35.5 -20t19.5 -35q0 -15 -20 -35.5t-35 -19.5q-15 -1 -35 19z" />
    <glyph glyph-name="uniFC8A" unicode="&#xfc8a;" horiz-adv-x="641" arabic-form="final" 
d="M28 0zM661 90v-90h-200v380h-250v-380q0 -99 -35 -160t-114 -99l-34 70q58 28 80.5 69.5t22.5 119.5v470h410v-380h120zM466 609q-20 20 -20 36t19.5 35t35.5 20q16 -1 35.5 -20t19.5 -35q0 -15 -20 -35.5t-35 -19.5q-15 -1 -35 19z" />
    <glyph glyph-name="uniFC8B" unicode="&#xfc8b;" horiz-adv-x="641" arabic-form="final" 
d="M28 0zM661 90v-90h-200v380h-250v-380q0 -99 -35 -160t-114 -99l-34 70q58 28 80.5 69.5t22.5 119.5v470h410v-380h120zM466 609q-20 20 -20 36t19.5 35t35.5 20q16 -1 35.5 -20t19.5 -35q0 -15 -20 -35.5t-35 -19.5q-15 -1 -35 19zM136 609q-20 20 -20 36t19.5 35
t35.5 20q16 -1 35.5 -20t19.5 -35q0 -15 -20 -35.5t-35 -19.5q-15 -1 -35 19z" />
    <glyph glyph-name="uniFC8D" unicode="&#xfc8d;" horiz-adv-x="991" arabic-form="final" 
d="M70 0zM285 629q-20 20 -20 36t19.5 35t35.5 20q16 -1 35.5 -20t19.5 -35q0 -15 -20 -35.5t-35 -19.5q-15 -1 -35 19zM1011 90v-90h-200v380h-250v-416q0 -86 -20 -128.5t-74 -59t-167 -16.5q-100 0 -148 18.5t-65 64.5t-17 141q0 63 8.5 132t21.5 117l74 -13
q-24 -118 -24 -219q0 -92 12 -151h183q53 0 82 4.5t41.5 15.5t12.5 33v567h410v-380h120zM818 609q-20 20 -20 36t19.5 35t35.5 20q16 -1 35.5 -20t19.5 -35q0 -15 -20 -35.5t-35 -19.5q-15 -1 -35 19z" />
    <glyph glyph-name="uniFC8E" unicode="&#xfc8e;" horiz-adv-x="1131" arabic-form="final" 
d="M70 0zM1151 90v-90h-200v380h-488v-188l162 -17q54 -5 83.5 -25t41 -58t11.5 -102v-71q0 -79 -28.5 -119.5t-105 -57.5t-229.5 -17q-143 0 -208.5 12t-92.5 51t-27 126q0 58 8.5 122t21.5 107l78 -14q-28 -122 -28 -193q0 -72 12 -121h283q95 0 144.5 4.5t70.5 15.5
t21 33v211l-140 17q-67 8 -101.5 28t-48 57.5t-13.5 103.5q0 70 16 109.5t54.5 57.5t108.5 18h474v-380h120zM955 609q-20 20 -20 36t19.5 35t35.5 20q16 -1 35.5 -20t19.5 -35q0 -15 -20 -35.5t-35 -19.5q-15 -1 -35 19z" />
    <glyph glyph-name="uniFC8F" unicode="&#xfc8f;" horiz-adv-x="1131" arabic-form="final" 
d="M70 0zM1151 90v-90h-200v380h-488v-188l162 -17q54 -5 83.5 -25t41 -58t11.5 -102v-71q0 -79 -28.5 -119.5t-105 -57.5t-229.5 -17q-143 0 -208.5 12t-92.5 51t-27 126q0 58 8.5 122t21.5 107l78 -14q-28 -122 -28 -193q0 -72 12 -121h283q95 0 144.5 4.5t70.5 15.5
t21 33v211l-140 17q-67 8 -101.5 28t-48 57.5t-13.5 103.5q0 70 16 109.5t54.5 57.5t108.5 18h474v-380h120zM955 609q-20 20 -20 36t19.5 35t35.5 20q16 -1 35.5 -20t19.5 -35q0 -15 -20 -35.5t-35 -19.5q-15 -1 -35 19zM324 -421q-20 20 -20 36t19.5 35t35.5 20
q16 -1 35.5 -20t19.5 -35q0 -15 -20 -35.5t-35 -19.5q-15 -1 -35 19zM468 -421q-20 20 -20 36t19.5 35t35.5 20q16 -1 35.5 -20t19.5 -35q0 -15 -20 -35.5t-35 -19.5q-15 -1 -35 19z" />
    <glyph glyph-name="uniFC91" unicode="&#xfc91;" horiz-adv-x="641" arabic-form="final" 
d="M28 0zM661 90v-90h-200v380h-250v-380q0 -99 -35 -160t-114 -99l-34 70q58 28 80.5 69.5t22.5 119.5v470h410v-380h120zM389 -171q-20 20 -20 36t19.5 35t35.5 20q16 -1 35.5 -20t19.5 -35q0 -15 -20 -35.5t-35 -19.5q-15 -1 -35 19zM533 -171q-20 20 -20 36t19.5 35
t35.5 20q16 -1 35.5 -20t19.5 -35q0 -15 -20 -35.5t-35 -19.5q-15 -1 -35 19z" />
    <glyph glyph-name="uniFC92" unicode="&#xfc92;" horiz-adv-x="641" arabic-form="final" 
d="M28 0zM661 90v-90h-200v380h-250v-380q0 -99 -35 -160t-114 -99l-34 70q58 28 80.5 69.5t22.5 119.5v470h410v-380h120zM389 -171q-20 20 -20 36t19.5 35t35.5 20q16 -1 35.5 -20t19.5 -35q0 -15 -20 -35.5t-35 -19.5q-15 -1 -35 19zM533 -171q-20 20 -20 36t19.5 35
t35.5 20q16 -1 35.5 -20t19.5 -35q0 -15 -20 -35.5t-35 -19.5q-15 -1 -35 19zM136 609q-20 20 -20 36t19.5 35t35.5 20q16 -1 35.5 -20t19.5 -35q0 -15 -20 -35.5t-35 -19.5q-15 -1 -35 19z" />
    <glyph glyph-name="uniFC94" unicode="&#xfc94;" horiz-adv-x="991" arabic-form="final" 
d="M70 0zM285 629q-20 20 -20 36t19.5 35t35.5 20q16 -1 35.5 -20t19.5 -35q0 -15 -20 -35.5t-35 -19.5q-15 -1 -35 19zM1011 90v-90h-200v380h-250v-416q0 -86 -20 -128.5t-74 -59t-167 -16.5q-100 0 -148 18.5t-65 64.5t-17 141q0 63 8.5 132t21.5 117l74 -13
q-24 -118 -24 -219q0 -92 12 -151h183q53 0 82 4.5t41.5 15.5t12.5 33v567h410v-380h120zM741 -171q-20 20 -20 36t19.5 35t35.5 20q16 -1 35.5 -20t19.5 -35q0 -15 -20 -35.5t-35 -19.5q-15 -1 -35 19zM885 -171q-20 20 -20 36t19.5 35t35.5 20q16 -1 35.5 -20t19.5 -35
q0 -15 -20 -35.5t-35 -19.5q-15 -1 -35 19z" />
    <glyph glyph-name="uniFC64" unicode="&#xfc64;" horiz-adv-x="641" arabic-form="final" 
d="M28 0zM661 90v-90h-200v380h-250v-380q0 -99 -35 -160t-114 -99l-34 70q58 28 80.5 69.5t22.5 119.5v470h410v-380h120zM615 685v-46l-228 -61v46l44 12q-12 26 -12 74q0 78 44 109t128 31v-56q-29 0 -58 -6t-49 -18l-1 -88q0 -13 5 -18.5t16 -5.5q12 0 25 4z" />
    <glyph glyph-name="uniFC65" unicode="&#xfc65;" horiz-adv-x="641" arabic-form="final" 
d="M28 0zM661 90v-90h-200v380h-250v-380q0 -99 -35 -160t-114 -99l-34 70q58 28 80.5 69.5t22.5 119.5v470h410v-380h120zM615 685v-46l-228 -61v46l44 12q-12 26 -12 74q0 78 44 109t128 31v-56q-29 0 -58 -6t-49 -18l-1 -88q0 -13 5 -18.5t16 -5.5q12 0 25 4zM136 609
q-20 20 -20 36t19.5 35t35.5 20q16 -1 35.5 -20t19.5 -35q0 -15 -20 -35.5t-35 -19.5q-15 -1 -35 19z" />
    <glyph glyph-name="uniFC67" unicode="&#xfc67;" horiz-adv-x="991" arabic-form="final" 
d="M70 0zM285 629q-20 20 -20 36t19.5 35t35.5 20q16 -1 35.5 -20t19.5 -35q0 -15 -20 -35.5t-35 -19.5q-15 -1 -35 19zM1011 90v-90h-200v380h-250v-416q0 -86 -20 -128.5t-74 -59t-167 -16.5q-100 0 -148 18.5t-65 64.5t-17 141q0 63 8.5 132t21.5 117l74 -13
q-24 -118 -24 -219q0 -92 12 -151h183q53 0 82 4.5t41.5 15.5t12.5 33v567h410v-380h120zM967 685v-46l-228 -61v46l44 12q-12 26 -12 74q0 78 44 109t128 31v-56q-29 0 -58 -6t-49 -18l-1 -88q0 -13 5 -18.5t16 -5.5q12 0 25 4z" />
    <glyph glyph-name="uniFC68" unicode="&#xfc68;" horiz-adv-x="1131" arabic-form="final" 
d="M70 0zM1151 90v-90h-200v380h-488v-188l162 -17q54 -5 83.5 -25t41 -58t11.5 -102v-71q0 -79 -28.5 -119.5t-105 -57.5t-229.5 -17q-143 0 -208.5 12t-92.5 51t-27 126q0 58 8.5 122t21.5 107l78 -14q-28 -122 -28 -193q0 -72 12 -121h283q95 0 144.5 4.5t70.5 15.5
t21 33v211l-140 17q-67 8 -101.5 28t-48 57.5t-13.5 103.5q0 70 16 109.5t54.5 57.5t108.5 18h474v-380h120zM1104 685v-46l-228 -61v46l44 12q-12 26 -12 74q0 78 44 109t128 31v-56q-29 0 -58 -6t-49 -18l-1 -88q0 -13 5 -18.5t16 -5.5q12 0 25 4z" />
    <glyph glyph-name="uniFC69" unicode="&#xfc69;" horiz-adv-x="1131" arabic-form="final" 
d="M70 0zM1151 90v-90h-200v380h-488v-188l162 -17q54 -5 83.5 -25t41 -58t11.5 -102v-71q0 -79 -28.5 -119.5t-105 -57.5t-229.5 -17q-143 0 -208.5 12t-92.5 51t-27 126q0 58 8.5 122t21.5 107l78 -14q-28 -122 -28 -193q0 -72 12 -121h283q95 0 144.5 4.5t70.5 15.5
t21 33v211l-140 17q-67 8 -101.5 28t-48 57.5t-13.5 103.5q0 70 16 109.5t54.5 57.5t108.5 18h474v-380h120zM1104 685v-46l-228 -61v46l44 12q-12 26 -12 74q0 78 44 109t128 31v-56q-29 0 -58 -6t-49 -18l-1 -88q0 -13 5 -18.5t16 -5.5q12 0 25 4zM324 -421q-20 20 -20 36
t19.5 35t35.5 20q16 -1 35.5 -20t19.5 -35q0 -15 -20 -35.5t-35 -19.5q-15 -1 -35 19zM468 -421q-20 20 -20 36t19.5 35t35.5 20q16 -1 35.5 -20t19.5 -35q0 -15 -20 -35.5t-35 -19.5q-15 -1 -35 19z" />
    <glyph glyph-name=".notdef" horiz-adv-x="600" 
 />
    <glyph glyph-name="NULL" horiz-adv-x="600" 
 />
    <glyph glyph-name="nonmarkingreturn" horiz-adv-x="600" 
 />
    <glyph glyph-name="space" unicode=" " horiz-adv-x="250" 
 />
    <glyph glyph-name="A" unicode="A" horiz-adv-x="551" 
d="M395 140h-239l-41 -140h-100l185 625h151l185 -625h-100zM372 219l-92 314h-9l-92 -314h193z" />
    <glyph glyph-name="Aacute" unicode="&#xc1;" horiz-adv-x="551" 
d="M15 0zM395 140h-239l-41 -140h-100l185 625h151l185 -625h-100zM372 219l-92 314h-9l-92 -314h193zM191 723l152 110q5 4 8 4q4 0 8 -5l43 -53q7 -8 7 -12q0 -5 -7 -11l-27 -22q-8 -6 -22 -10l-140 -35z" />
    <glyph glyph-name="Abreve" unicode="&#x102;" horiz-adv-x="551" 
d="M15 0zM395 140h-239l-41 -140h-100l185 625h151l185 -625h-100zM372 219l-92 314h-9l-92 -314h193zM158 800l65 11q6 -22 21 -34t32 -12t32 12t21 34l65 -11q-13 -54 -44 -81t-74 -27q-95 0 -118 108z" />
    <glyph glyph-name="Acircumflex" unicode="&#xc2;" horiz-adv-x="551" 
d="M15 0zM395 140h-239l-41 -140h-100l185 625h151l185 -625h-100zM372 219l-92 314h-9l-92 -314h193zM158 715l99 116q5 6 10 6h18q5 0 10 -6l99 -116l-35 -34l-83 64l-83 -64z" />
    <glyph glyph-name="Adieresis" unicode="&#xc4;" horiz-adv-x="551" 
d="M15 0zM395 140h-239l-41 -140h-100l185 625h151l185 -625h-100zM372 219l-92 314h-9l-92 -314h193zM143 712q-10 12 -10 45t10 45.5t42 12.5q31 0 41 -12.5t10 -45.5t-10 -45t-41 -12q-32 0 -42 12zM326 712q-10 12 -10 45t10 45.5t42 12.5q31 0 41 -12.5t10 -45.5
t-10 -45t-41 -12q-32 0 -42 12z" />
    <glyph glyph-name="Agrave" unicode="&#xc0;" horiz-adv-x="551" 
d="M15 0zM395 140h-239l-41 -140h-100l185 625h151l185 -625h-100zM372 219l-92 314h-9l-92 -314h193zM223 714q-14 4 -22 10l-27 22q-7 6 -7 11q0 4 7 12l43 53q4 5 8 5q3 0 8 -4l152 -110l-22 -34z" />
    <glyph glyph-name="Amacron" unicode="&#x100;" horiz-adv-x="551" 
d="M15 0zM395 140h-239l-41 -140h-100l185 625h151l185 -625h-100zM372 219l-92 314h-9l-92 -314h193zM162 720.5q-8 9.5 -8 36.5v35h199q29 0 36.5 -9t7.5 -36v-36h-198q-29 0 -37 9.5z" />
    <glyph glyph-name="Aogonek" unicode="&#x104;" horiz-adv-x="551" 
d="M560 -155q-39 -17 -76 -17q-42 0 -66.5 24t-24.5 65q0 25 15 46.5t42 36.5h-14l-41 140h-239l-41 -140h-100l185 625h151l185 -625l-20 -4q-27 -7 -35.5 -16t-8.5 -32v-21q0 -34 29 -34h51zM372 219l-92 314h-9l-92 -314h193z" />
    <glyph glyph-name="Aring" unicode="&#xc5;" horiz-adv-x="551" 
d="M15 0zM395 140h-239l-41 -140h-100l185 625h151l185 -625h-100zM372 219l-92 314h-9l-92 -314h193zM200.5 688.5q-23.5 24.5 -23.5 74.5t23.5 74t75.5 24t75 -24t23 -74t-23 -74.5t-75 -24.5t-75.5 24.5zM275 716q22 0 32 4.5t10 21.5v67h-39q-24 0 -34.5 -4.5
t-10.5 -20.5v-68h42z" />
    <glyph glyph-name="Aringacute" unicode="&#x1fa;" horiz-adv-x="551" 
d="M15 0zM395 140h-239l-41 -140h-100l185 625h151l185 -625h-100zM372 219l-92 314h-9l-92 -314h193zM200.5 688.5q-23.5 24.5 -23.5 74.5t23.5 74t75.5 24t75 -24t23 -74t-23 -74.5t-75 -24.5t-75.5 24.5zM275 716q22 0 32 4.5t10 21.5v67h-39q-24 0 -34.5 -4.5
t-10.5 -20.5v-68h42zM191 939l152 110q5 4 8 4q4 0 8 -5l43 -53q7 -8 7 -12q0 -5 -7 -11l-27 -22q-8 -6 -22 -10l-140 -35z" />
    <glyph glyph-name="Atilde" unicode="&#xc3;" horiz-adv-x="551" 
d="M15 0zM395 140h-239l-41 -140h-100l185 625h151l185 -625h-100zM372 219l-92 314h-9l-92 -314h193zM270.5 696.5q-12.5 7.5 -43.5 35.5l-66 -33l-28 46q57 42 81.5 56t40.5 14q13 0 25 -7t45 -36l66 33l28 -46q-52 -40 -78.5 -55t-43.5 -15q-14 0 -26.5 7.5z" />
    <glyph glyph-name="AE" unicode="&#xc6;" horiz-adv-x="758" 
d="M177 625h481l-15 -90h-254l48 -184h179v-85h-157l45 -176h204v-90h-286l-34 137h-234l-33 -137h-106zM366 227l-74 306h-41l-75 -306h190z" />
    <glyph glyph-name="AEacute" unicode="&#x1fc;" horiz-adv-x="758" 
d="M15 0zM177 625h481l-15 -90h-254l48 -184h179v-85h-157l45 -176h204v-90h-286l-34 137h-234l-33 -137h-106zM366 227l-74 306h-41l-75 -306h190zM294 723l152 110q5 4 8 4q4 0 8 -5l43 -53q7 -8 7 -12q0 -5 -7 -11l-27 -22q-8 -6 -22 -10l-140 -35z" />
    <glyph glyph-name="B" unicode="B" horiz-adv-x="582" 
d="M508 264.5q24 -36.5 24 -88.5q0 -85 -43.5 -130.5t-126.5 -45.5h-272v625h240q88 0 129.5 -37.5t41.5 -117.5q0 -56 -14.5 -91t-46.5 -57v-6q44 -15 68 -51.5zM384 530q-17 22 -62 22h-132v-202h131q45 0 62.5 22t17.5 78q0 58 -17 80zM412.5 98.5q19.5 25.5 19.5 83.5
q0 53 -19 75.5t-64 22.5h-159v-207h158q45 0 64.5 25.5z" />
    <glyph glyph-name="C" unicode="C" horiz-adv-x="489" 
d="M388 -9q-40 -6 -94 -6q-95 0 -143 28.5t-67 97t-19 201.5q0 134 19.5 203t70 97t149.5 28q34 0 77.5 -6t69.5 -15l-13 -82q-35 8 -81 13t-75 5q-61 0 -85.5 -15t-24.5 -61v-396q51 -15 119 -15q78 0 163 25l10 -82q-36 -14 -76 -20z" />
    <glyph glyph-name="Cacute" unicode="&#x106;" horiz-adv-x="489" 
d="M65 0zM388 -9q-40 -6 -94 -6q-95 0 -143 28.5t-67 97t-19 201.5q0 134 19.5 203t70 97t149.5 28q34 0 77.5 -6t69.5 -15l-13 -82q-35 8 -81 13t-75 5q-61 0 -85.5 -15t-24.5 -61v-396q51 -15 119 -15q78 0 163 25l10 -82q-36 -14 -76 -20zM200 723l152 110q5 4 8 4
q4 0 8 -5l43 -53q7 -8 7 -12q0 -5 -7 -11l-27 -22q-8 -6 -22 -10l-140 -35z" />
    <glyph glyph-name="Ccaron" unicode="&#x10c;" horiz-adv-x="489" 
d="M65 0zM388 -9q-40 -6 -94 -6q-95 0 -143 28.5t-67 97t-19 201.5q0 134 19.5 203t70 97t149.5 28q34 0 77.5 -6t69.5 -15l-13 -82q-35 8 -81 13t-75 5q-61 0 -85.5 -15t-24.5 -61v-396q51 -15 119 -15q78 0 163 25l10 -82q-36 -14 -76 -20zM285 773l83 64l35 -34l-99 -116
q-5 -6 -10 -6h-18q-5 0 -10 6l-99 116l35 34z" />
    <glyph glyph-name="Ccedilla" unicode="&#xc7;" horiz-adv-x="489" 
d="M391 -8q-38 -6 -89 -7q22 -33 22 -76q0 -37 -26 -59t-70 -22q-33 0 -68 16l7 49h35q24 0 33.5 7t9.5 25v62q-73 7 -111.5 39t-53.5 98.5t-15 187.5q0 134 19.5 203t70 97t149.5 28q34 0 77.5 -6t69.5 -15l-13 -82q-35 8 -81 13t-75 5q-61 0 -85.5 -15t-24.5 -61v-396
q51 -15 119 -15q78 0 163 25l10 -82q-35 -13 -73 -19z" />
    <glyph glyph-name="Ccircumflex" unicode="&#x108;" horiz-adv-x="489" 
d="M65 0zM388 -9q-40 -6 -94 -6q-95 0 -143 28.5t-67 97t-19 201.5q0 134 19.5 203t70 97t149.5 28q34 0 77.5 -6t69.5 -15l-13 -82q-35 8 -81 13t-75 5q-61 0 -85.5 -15t-24.5 -61v-396q51 -15 119 -15q78 0 163 25l10 -82q-36 -14 -76 -20zM167 715l99 116q5 6 10 6h18
q5 0 10 -6l99 -116l-35 -34l-83 64l-83 -64z" />
    <glyph glyph-name="Cdotaccent" unicode="&#x10a;" horiz-adv-x="489" 
d="M65 0zM388 -9q-40 -6 -94 -6q-95 0 -143 28.5t-67 97t-19 201.5q0 134 19.5 203t70 97t149.5 28q34 0 77.5 -6t69.5 -15l-13 -82q-35 8 -81 13t-75 5q-61 0 -85.5 -15t-24.5 -61v-396q51 -15 119 -15q78 0 163 25l10 -82q-36 -14 -76 -20zM236.5 724.5
q-12.5 12.5 -12.5 47.5q0 36 13 49t49 13q35 0 47.5 -13t12.5 -49q0 -35 -12 -47.5t-48 -12.5q-37 0 -49.5 12.5z" />
    <glyph glyph-name="D" unicode="D" horiz-adv-x="624" 
d="M314 625q105 0 156 -24.5t70 -89t19 -199.5q0 -134 -19 -198.5t-70 -89t-156 -24.5h-224v625h224zM190 83h183q44 0 61 16t17 57v313q0 41 -17 57t-61 16h-183v-459z" />
    <glyph glyph-name="Eth" unicode="&#xd0;" horiz-adv-x="624" 
d="M470 600.5q51 -24.5 70 -89t19 -199.5q0 -134 -19 -198.5t-70 -89t-156 -24.5h-224v278h-62v28q0 25 8 33.5t33 8.5h21v277h224q105 0 156 -24.5zM451 469q0 41 -17 57t-61 16h-183v-194h102v-29q0 -25 -7.5 -33t-33.5 -8h-61v-195h183q44 0 61 16t17 57v313z" />
    <glyph glyph-name="Dcaron" unicode="&#x10e;" horiz-adv-x="624" 
d="M90 0zM314 625q105 0 156 -24.5t70 -89t19 -199.5q0 -134 -19 -198.5t-70 -89t-156 -24.5h-224v625h224zM190 83h183q44 0 61 16t17 57v313q0 41 -17 57t-61 16h-183v-459zM312 773l83 64l35 -34l-99 -116q-5 -6 -10 -6h-18q-5 0 -10 6l-99 116l35 34z" />
    <glyph glyph-name="Dcroat" unicode="&#x110;" horiz-adv-x="624" 
d="M28 0zM470 600.5q51 -24.5 70 -89t19 -199.5q0 -134 -19 -198.5t-70 -89t-156 -24.5h-224v278h-62v28q0 25 8 33.5t33 8.5h21v277h224q105 0 156 -24.5zM451 469q0 41 -17 57t-61 16h-183v-194h102v-29q0 -25 -7.5 -33t-33.5 -8h-61v-195h183q44 0 61 16t17 57v313z" />
    <glyph glyph-name="E" unicode="E" horiz-adv-x="515" 
d="M190 83h275v-83h-375v625h372l-12 -83h-260v-190h237v-79h-237v-190z" />
    <glyph glyph-name="Eacute" unicode="&#xc9;" horiz-adv-x="515" 
d="M90 0zM190 83h275v-83h-375v625h372l-12 -83h-260v-190h237v-79h-237v-190zM196 723l152 110q5 4 8 4q4 0 8 -5l43 -53q7 -8 7 -12q0 -5 -7 -11l-27 -22q-8 -6 -22 -10l-140 -35z" />
    <glyph glyph-name="Ebreve" unicode="&#x114;" horiz-adv-x="515" 
d="M90 0zM190 83h275v-83h-375v625h372l-12 -83h-260v-190h237v-79h-237v-190zM163 800l65 11q6 -22 21 -34t32 -12t32 12t21 34l65 -11q-13 -54 -44 -81t-74 -27q-95 0 -118 108z" />
    <glyph glyph-name="Ecaron" unicode="&#x11a;" horiz-adv-x="515" 
d="M90 0zM190 83h275v-83h-375v625h372l-12 -83h-260v-190h237v-79h-237v-190zM281 773l83 64l35 -34l-99 -116q-5 -6 -10 -6h-18q-5 0 -10 6l-99 116l35 34z" />
    <glyph glyph-name="Ecircumflex" unicode="&#xca;" horiz-adv-x="515" 
d="M90 0zM190 83h275v-83h-375v625h372l-12 -83h-260v-190h237v-79h-237v-190zM163 715l99 116q5 6 10 6h18q5 0 10 -6l99 -116l-35 -34l-83 64l-83 -64z" />
    <glyph glyph-name="Edieresis" unicode="&#xcb;" horiz-adv-x="515" 
d="M90 0zM190 83h275v-83h-375v625h372l-12 -83h-260v-190h237v-79h-237v-190zM148 712q-10 12 -10 45t10 45.5t42 12.5q31 0 41 -12.5t10 -45.5t-10 -45t-41 -12q-32 0 -42 12zM331 712q-10 12 -10 45t10 45.5t42 12.5q31 0 41 -12.5t10 -45.5t-10 -45t-41 -12
q-32 0 -42 12z" />
    <glyph glyph-name="Edotaccent" unicode="&#x116;" horiz-adv-x="515" 
d="M90 0zM190 83h275v-83h-375v625h372l-12 -83h-260v-190h237v-79h-237v-190zM232.5 724.5q-12.5 12.5 -12.5 47.5q0 36 13 49t49 13q35 0 47.5 -13t12.5 -49q0 -35 -12 -47.5t-48 -12.5q-37 0 -49.5 12.5z" />
    <glyph glyph-name="Egrave" unicode="&#xc8;" horiz-adv-x="515" 
d="M90 0zM190 83h275v-83h-375v625h372l-12 -83h-260v-190h237v-79h-237v-190zM228 714q-14 4 -22 10l-27 22q-7 6 -7 11q0 4 7 12l43 53q4 5 8 5q3 0 8 -4l152 -110l-22 -34z" />
    <glyph glyph-name="Emacron" unicode="&#x112;" horiz-adv-x="515" 
d="M90 0zM190 83h275v-83h-375v625h372l-12 -83h-260v-190h237v-79h-237v-190zM167 720.5q-8 9.5 -8 36.5v35h199q29 0 36.5 -9t7.5 -36v-36h-198q-29 0 -37 9.5z" />
    <glyph glyph-name="Eogonek" unicode="&#x118;" horiz-adv-x="515" 
d="M489 -155q-39 -17 -76 -17q-42 0 -66.5 24t-24.5 65q0 25 15 46.5t42 36.5h-289v625h372l-12 -83h-260v-190h237v-79h-237v-190h275v-83l-20 -4q-27 -7 -35.5 -16t-8.5 -32v-21q0 -34 29 -34h51z" />
    <glyph glyph-name="F" unicode="F" horiz-adv-x="450" 
d="M190 0h-100v625h340l-11 -83h-229v-203h200v-79h-200v-260z" />
    <glyph glyph-name="G" unicode="G" horiz-adv-x="570" 
d="M505 344v-324q-49 -19 -101.5 -27t-125.5 -8q-91 0 -135 25t-61 93t-17 209q0 134 20 203t71.5 97t153.5 28q39 0 89.5 -6t81.5 -15l-13 -82q-40 8 -94.5 13t-88.5 5q-64 0 -89 -14.5t-25 -61.5v-414h245v200h-95v79h184z" />
    <glyph glyph-name="Gbreve" unicode="&#x11e;" horiz-adv-x="570" 
d="M65 0zM505 344v-324q-49 -19 -101.5 -27t-125.5 -8q-91 0 -135 25t-61 93t-17 209q0 134 20 203t71.5 97t153.5 28q39 0 89.5 -6t81.5 -15l-13 -82q-40 8 -94.5 13t-88.5 5q-64 0 -89 -14.5t-25 -61.5v-414h245v200h-95v79h184zM195 800l65 11q6 -22 21 -34t32 -12t32 12
t21 34l65 -11q-13 -54 -44 -81t-74 -27q-95 0 -118 108z" />
    <glyph glyph-name="Gcircumflex" unicode="&#x11c;" horiz-adv-x="570" 
d="M65 0zM505 344v-324q-49 -19 -101.5 -27t-125.5 -8q-91 0 -135 25t-61 93t-17 209q0 134 20 203t71.5 97t153.5 28q39 0 89.5 -6t81.5 -15l-13 -82q-40 8 -94.5 13t-88.5 5q-64 0 -89 -14.5t-25 -61.5v-414h245v200h-95v79h184zM195 715l99 116q5 6 10 6h18q5 0 10 -6
l99 -116l-35 -34l-83 64l-83 -64z" />
    <glyph glyph-name="Gcommaaccent" unicode="&#x122;" horiz-adv-x="570" 
d="M65 0zM505 344v-324q-49 -19 -101.5 -27t-125.5 -8q-91 0 -135 25t-61 93t-17 209q0 134 20 203t71.5 97t153.5 28q39 0 89.5 -6t81.5 -15l-13 -82q-40 8 -94.5 13t-88.5 5q-64 0 -89 -14.5t-25 -61.5v-414h245v200h-95v79h184zM255 -273l21 98q-27 3 -39 17.5t-12 48.5
q0 38 15.5 53.5t52.5 15.5t52.5 -15.5t15.5 -53.5q0 -33 -7 -54.5t-25 -58.5l-31 -64z" />
    <glyph glyph-name="Gdotaccent" unicode="&#x120;" horiz-adv-x="570" 
d="M65 0zM505 344v-324q-49 -19 -101.5 -27t-125.5 -8q-91 0 -135 25t-61 93t-17 209q0 134 20 203t71.5 97t153.5 28q39 0 89.5 -6t81.5 -15l-13 -82q-40 8 -94.5 13t-88.5 5q-64 0 -89 -14.5t-25 -61.5v-414h245v200h-95v79h184zM264.5 724.5q-12.5 12.5 -12.5 47.5
q0 36 13 49t49 13q35 0 47.5 -13t12.5 -49q0 -35 -12 -47.5t-48 -12.5q-37 0 -49.5 12.5z" />
    <glyph glyph-name="H" unicode="H" horiz-adv-x="640" 
d="M550 625v-625h-100v270h-260v-270h-100v625h100v-276h260v276h100z" />
    <glyph glyph-name="Hbar" unicode="&#x126;" horiz-adv-x="640" 
d="M612 518v-29q0 -25 -7.5 -33t-33.5 -8h-21v-448h-100v270h-260v-270h-100v448h-62v28q0 25 8 33.5t33 8.5h21v107h100v-107h260v107h100v-107h62zM450 448h-260v-99h260v99z" />
    <glyph glyph-name="Hcircumflex" unicode="&#x124;" horiz-adv-x="640" 
d="M90 0zM550 625v-625h-100v270h-260v-270h-100v625h100v-276h260v276h100zM202 715l99 116q5 6 10 6h18q5 0 10 -6l99 -116l-35 -34l-83 64l-83 -64z" />
    <glyph glyph-name="I" unicode="I" horiz-adv-x="280" 
d="M190 625v-625h-100v625h100z" />
    <glyph glyph-name="IJ" unicode="&#x132;" horiz-adv-x="631" 
d="M90 0zM190 625v-625h-100v625h100zM393 80q24 0 36 5.5t12 24.5v432h-100v83h200v-490q0 -77 -37.5 -106t-117.5 -29h-74l-12 80h93z" />
    <glyph glyph-name="Iacute" unicode="&#xcd;" horiz-adv-x="280" 
d="M55 0zM190 625v-625h-100v625h100zM55 723l152 110q5 4 8 4q4 0 8 -5l43 -53q7 -8 7 -12q0 -5 -7 -11l-27 -22q-8 -6 -22 -10l-140 -35z" />
    <glyph glyph-name="Ibreve" unicode="&#x12c;" horiz-adv-x="280" 
d="M22 0zM190 625v-625h-100v625h100zM22 800l65 11q6 -22 21 -34t32 -12t32 12t21 34l65 -11q-13 -54 -44 -81t-74 -27q-95 0 -118 108z" />
    <glyph glyph-name="Icircumflex" unicode="&#xce;" horiz-adv-x="280" 
d="M22 0zM190 625v-625h-100v625h100zM22 715l99 116q5 6 10 6h18q5 0 10 -6l99 -116l-35 -34l-83 64l-83 -64z" />
    <glyph glyph-name="Idieresis" unicode="&#xcf;" horiz-adv-x="280" 
d="M0 0zM190 625v-625h-100v625h100zM7 712q-10 12 -10 45t10 45.5t42 12.5q31 0 41 -12.5t10 -45.5t-10 -45t-41 -12q-32 0 -42 12zM190 712q-10 12 -10 45t10 45.5t42 12.5q31 0 41 -12.5t10 -45.5t-10 -45t-41 -12q-32 0 -42 12z" />
    <glyph glyph-name="Idotaccent" unicode="&#x130;" horiz-adv-x="280" 
d="M79 0zM190 625v-625h-100v625h100zM91.5 724.5q-12.5 12.5 -12.5 47.5q0 36 13 49t49 13q35 0 47.5 -13t12.5 -49q0 -35 -12 -47.5t-48 -12.5q-37 0 -49.5 12.5z" />
    <glyph glyph-name="Igrave" unicode="&#xcc;" horiz-adv-x="280" 
d="M31 0zM190 625v-625h-100v625h100zM87 714q-14 4 -22 10l-27 22q-7 6 -7 11q0 4 7 12l43 53q4 5 8 5q3 0 8 -4l152 -110l-22 -34z" />
    <glyph glyph-name="Imacron" unicode="&#x12a;" horiz-adv-x="280" 
d="M18 0zM190 625v-625h-100v625h100zM26 720.5q-8 9.5 -8 36.5v35h199q29 0 36.5 -9t7.5 -36v-36h-198q-29 0 -37 9.5z" />
    <glyph glyph-name="Iogonek" unicode="&#x12e;" horiz-adv-x="280" 
d="M214 -155q-39 -17 -76 -17q-42 0 -66.5 24t-24.5 65q0 25 15 46.5t42 36.5h-14v625h100v-625l-20 -4q-27 -7 -35.5 -16t-8.5 -32v-21q0 -34 29 -34h51z" />
    <glyph glyph-name="Itilde" unicode="&#x128;" horiz-adv-x="280" 
d="M0 0zM190 625v-625h-100v625h100zM134.5 696.5q-12.5 7.5 -43.5 35.5l-66 -33l-28 46q57 42 81.5 56t40.5 14q13 0 25 -7t45 -36l66 33l28 -46q-52 -40 -78.5 -55t-43.5 -15q-14 0 -26.5 7.5z" />
    <glyph glyph-name="J" unicode="J" horiz-adv-x="351" 
d="M113 80q24 0 36 5.5t12 24.5v432h-100v83h200v-490q0 -77 -37.5 -106t-117.5 -29h-74l-12 80h93z" />
    <glyph glyph-name="Jcircumflex" unicode="&#x134;" horiz-adv-x="351" 
d="M20 0zM113 80q24 0 36 5.5t12 24.5v432h-100v83h200v-490q0 -77 -37.5 -106t-117.5 -29h-74l-12 80h93zM58 715l99 116q5 6 10 6h18q5 0 10 -6l99 -116l-35 -34l-83 64l-83 -64z" />
    <glyph glyph-name="K" unicode="K" horiz-adv-x="553" 
d="M543 0h-111l-73 155q-19 39 -29.5 68.5t-10.5 58.5h-129v-282h-100v625h100v-265h129q0 30 10.5 60.5t29.5 66.5l68 138h111l-150 -304z" />
    <glyph glyph-name="Kcommaaccent" unicode="&#x136;" horiz-adv-x="553" 
d="M90 0zM543 0h-111l-73 155q-19 39 -29.5 68.5t-10.5 58.5h-129v-282h-100v625h100v-265h129q0 30 10.5 60.5t29.5 66.5l68 138h111l-150 -304zM259 -273l21 98q-27 3 -39 17.5t-12 48.5q0 38 15.5 53.5t52.5 15.5t52.5 -15.5t15.5 -53.5q0 -33 -7 -54.5t-25 -58.5
l-31 -64z" />
    <glyph glyph-name="L" unicode="L" horiz-adv-x="430" 
d="M90 625h100v-542h230v-83h-330v625z" />
    <glyph glyph-name="Lacute" unicode="&#x139;" horiz-adv-x="430" 
d="M55 0zM90 625h100v-542h230v-83h-330v625zM55 723l152 110q5 4 8 4q4 0 8 -5l43 -53q7 -8 7 -12q0 -5 -7 -11l-27 -22q-8 -6 -22 -10l-140 -35z" />
    <glyph glyph-name="Lcaron" unicode="&#x13d;" horiz-adv-x="430" 
d="M90 0zM90 625h100v-542h230v-83h-330v625zM212 -273l21 98q-27 3 -39 17.5t-12 48.5q0 38 15.5 53.5t52.5 15.5t52.5 -15.5t15.5 -53.5q0 -33 -7 -54.5t-25 -58.5l-31 -64z" />
    <glyph glyph-name="Lcommaaccent" unicode="&#x13b;" horiz-adv-x="430" 
d="M90 0zM90 625h100v-542h230v-83h-330v625zM212 -273l21 98q-27 3 -39 17.5t-12 48.5q0 38 15.5 53.5t52.5 15.5t52.5 -15.5t15.5 -53.5q0 -33 -7 -54.5t-25 -58.5l-31 -64z" />
    <glyph glyph-name="Ldot" unicode="&#x13f;" horiz-adv-x="430" 
d="M90 625h100v-542h230v-83h-330v625zM293.5 375.5q10.5 12.5 41.5 12.5q30 0 41 -12.5t11 -42.5t-10.5 -42.5t-41.5 -12.5t-41.5 12t-10.5 43q0 30 10.5 42.5z" />
    <glyph glyph-name="Lslash" unicode="&#x141;" horiz-adv-x="430" 
d="M420 83v-83h-330v278l-61 -20l-9 27q-6 18 -6 29q0 15 17 21l59 20v270h100v-237l61 20l9 -27q6 -18 6 -29q0 -15 -17 -21l-59 -20v-228h230z" />
    <glyph glyph-name="M" unicode="M" horiz-adv-x="795" 
d="M117 625h138l139 -468h7l139 468h138l42 -625h-99l-32 493h-6l-145 -493h-81l-145 493h-6l-32 -493h-99z" />
    <glyph glyph-name="N" unicode="N" horiz-adv-x="661" 
d="M95 625h97l242 -390q15 -26 20 -36.5t6 -25.5h6v452h100v-625h-97l-242 390q-15 26 -20 36.5t-6 25.5h-6v-452h-100v625z" />
    <glyph glyph-name="Nacute" unicode="&#x143;" horiz-adv-x="661" 
d="M95 0zM95 625h97l242 -390q15 -26 20 -36.5t6 -25.5h6v452h100v-625h-97l-242 390q-15 26 -20 36.5t-6 25.5h-6v-452h-100v625zM256 723l152 110q5 4 8 4q4 0 8 -5l43 -53q7 -8 7 -12q0 -5 -7 -11l-27 -22q-8 -6 -22 -10l-140 -35z" />
    <glyph glyph-name="Ncaron" unicode="&#x147;" horiz-adv-x="661" 
d="M95 0zM95 625h97l242 -390q15 -26 20 -36.5t6 -25.5h6v452h100v-625h-97l-242 390q-15 26 -20 36.5t-6 25.5h-6v-452h-100v625zM341 773l83 64l35 -34l-99 -116q-5 -6 -10 -6h-18q-5 0 -10 6l-99 116l35 34z" />
    <glyph glyph-name="Ncommaaccent" unicode="&#x145;" horiz-adv-x="661" 
d="M95 0zM95 625h97l242 -390q15 -26 20 -36.5t6 -25.5h6v452h100v-625h-97l-242 390q-15 26 -20 36.5t-6 25.5h-6v-452h-100v625zM293 -273l21 98q-27 3 -39 17.5t-12 48.5q0 38 15.5 53.5t52.5 15.5t52.5 -15.5t15.5 -53.5q0 -33 -7 -54.5t-25 -58.5l-31 -64z" />
    <glyph glyph-name="Eng" unicode="&#x14a;" horiz-adv-x="661" 
d="M566 625v-685q0 -59 -30 -87t-94 -28q-44 0 -77 11l6 58q42 0 61.5 4.5t26.5 17t7 39.5v50l-239 385q-15 26 -20 36.5t-6 25.5h-6v-452h-100v625h97l242 -390q15 -26 20 -36.5t6 -25.5h6v452h100z" />
    <glyph glyph-name="Ntilde" unicode="&#xd1;" horiz-adv-x="661" 
d="M95 0zM95 625h97l242 -390q15 -26 20 -36.5t6 -25.5h6v452h100v-625h-97l-242 390q-15 26 -20 36.5t-6 25.5h-6v-452h-100v625zM335.5 696.5q-12.5 7.5 -43.5 35.5l-66 -33l-28 46q57 42 81.5 56t40.5 14q13 0 25 -7t45 -36l66 33l28 -46q-52 -40 -78.5 -55t-43.5 -15
q-14 0 -26.5 7.5z" />
    <glyph glyph-name="O" unicode="O" horiz-adv-x="636" 
d="M85 521q20 68 72 93.5t161 25.5q108 0 160.5 -26t72.5 -94t20 -208t-20 -208t-72.5 -93.5t-160.5 -25.5q-109 0 -161 25.5t-72 93.5t-20 208q0 141 20 209zM378 70q48 0 67 16t19 57v412h-207q-48 0 -66.5 -16t-18.5 -57v-412h206z" />
    <glyph glyph-name="Oacute" unicode="&#xd3;" horiz-adv-x="636" 
d="M65 0zM85 521q20 68 72 93.5t161 25.5q108 0 160.5 -26t72.5 -94t20 -208t-20 -208t-72.5 -93.5t-160.5 -25.5q-109 0 -161 25.5t-72 93.5t-20 208q0 141 20 209zM378 70q48 0 67 16t19 57v412h-207q-48 0 -66.5 -16t-18.5 -57v-412h206zM233 723l152 110q5 4 8 4
q4 0 8 -5l43 -53q7 -8 7 -12q0 -5 -7 -11l-27 -22q-8 -6 -22 -10l-140 -35z" />
    <glyph glyph-name="Obreve" unicode="&#x14e;" horiz-adv-x="636" 
d="M65 0zM85 521q20 68 72 93.5t161 25.5q108 0 160.5 -26t72.5 -94t20 -208t-20 -208t-72.5 -93.5t-160.5 -25.5q-109 0 -161 25.5t-72 93.5t-20 208q0 141 20 209zM378 70q48 0 67 16t19 57v412h-207q-48 0 -66.5 -16t-18.5 -57v-412h206zM200 800l65 11q6 -22 21 -34
t32 -12t32 12t21 34l65 -11q-13 -54 -44 -81t-74 -27q-95 0 -118 108z" />
    <glyph glyph-name="Ocircumflex" unicode="&#xd4;" horiz-adv-x="636" 
d="M65 0zM85 521q20 68 72 93.5t161 25.5q108 0 160.5 -26t72.5 -94t20 -208t-20 -208t-72.5 -93.5t-160.5 -25.5q-109 0 -161 25.5t-72 93.5t-20 208q0 141 20 209zM378 70q48 0 67 16t19 57v412h-207q-48 0 -66.5 -16t-18.5 -57v-412h206zM200 715l99 116q5 6 10 6h18
q5 0 10 -6l99 -116l-35 -34l-83 64l-83 -64z" />
    <glyph glyph-name="Odieresis" unicode="&#xd6;" horiz-adv-x="636" 
d="M65 0zM85 521q20 68 72 93.5t161 25.5q108 0 160.5 -26t72.5 -94t20 -208t-20 -208t-72.5 -93.5t-160.5 -25.5q-109 0 -161 25.5t-72 93.5t-20 208q0 141 20 209zM378 70q48 0 67 16t19 57v412h-207q-48 0 -66.5 -16t-18.5 -57v-412h206zM185 712q-10 12 -10 45t10 45.5
t42 12.5q31 0 41 -12.5t10 -45.5t-10 -45t-41 -12q-32 0 -42 12zM368 712q-10 12 -10 45t10 45.5t42 12.5q31 0 41 -12.5t10 -45.5t-10 -45t-41 -12q-32 0 -42 12z" />
    <glyph glyph-name="Ograve" unicode="&#xd2;" horiz-adv-x="636" 
d="M65 0zM85 521q20 68 72 93.5t161 25.5q108 0 160.5 -26t72.5 -94t20 -208t-20 -208t-72.5 -93.5t-160.5 -25.5q-109 0 -161 25.5t-72 93.5t-20 208q0 141 20 209zM378 70q48 0 67 16t19 57v412h-207q-48 0 -66.5 -16t-18.5 -57v-412h206zM265 714q-14 4 -22 10l-27 22
q-7 6 -7 11q0 4 7 12l43 53q4 5 8 5q3 0 8 -4l152 -110l-22 -34z" />
    <glyph glyph-name="Ohungarumlaut" unicode="&#x150;" horiz-adv-x="636" 
d="M65 0zM85 521q20 68 72 93.5t161 25.5q108 0 160.5 -26t72.5 -94t20 -208t-20 -208t-72.5 -93.5t-160.5 -25.5q-109 0 -161 25.5t-72 93.5t-20 208q0 141 20 209zM378 70q48 0 67 16t19 57v412h-207q-48 0 -66.5 -16t-18.5 -57v-412h206zM128 728l133 105q5 4 8 4
q4 0 8 -5l44 -54q6 -8 6 -11q0 -4 -4 -8l-30 -25q-9 -7 -22 -10l-121 -30zM349 728l133 105q5 4 8 4q4 0 8 -5l44 -54q6 -8 6 -11q0 -4 -4 -8l-30 -25q-9 -7 -22 -10l-121 -30z" />
    <glyph glyph-name="Omacron" unicode="&#x14c;" horiz-adv-x="636" 
d="M65 0zM85 521q20 68 72 93.5t161 25.5q108 0 160.5 -26t72.5 -94t20 -208t-20 -208t-72.5 -93.5t-160.5 -25.5q-109 0 -161 25.5t-72 93.5t-20 208q0 141 20 209zM378 70q48 0 67 16t19 57v412h-207q-48 0 -66.5 -16t-18.5 -57v-412h206zM204 720.5q-8 9.5 -8 36.5v35
h199q29 0 36.5 -9t7.5 -36v-36h-198q-29 0 -37 9.5z" />
    <glyph glyph-name="Oslash" unicode="&#xd8;" horiz-adv-x="636" 
d="M552 517q19 -68 19 -205q0 -140 -20 -208t-72.5 -93.5t-160.5 -25.5q-71 0 -110 9l-18 -42q-7 -16 -16 -21.5t-27 -5.5h-31l38 87q-35 19 -54.5 55t-27 94t-7.5 151q0 141 20 209t72 93.5t161 25.5q70 0 110 -9l18 42q7 16 16.5 22t26.5 6h31l-39 -88q52 -28 71 -96z
M180 70l214 485h-137q-48 0 -66.5 -16t-18.5 -57v-412h8zM464 555h-8l-214 -485h136q48 0 67 16t19 57v412z" />
    <glyph glyph-name="Oslashacute" unicode="&#x1fe;" horiz-adv-x="636" 
d="M65 0zM552 517q19 -68 19 -205q0 -140 -20 -208t-72.5 -93.5t-160.5 -25.5q-71 0 -110 9l-18 -42q-7 -16 -16 -21.5t-27 -5.5h-31l38 87q-35 19 -54.5 55t-27 94t-7.5 151q0 141 20 209t72 93.5t161 25.5q70 0 110 -9l18 42q7 16 16.5 22t26.5 6h31l-39 -88
q52 -28 71 -96zM180 70l214 485h-137q-48 0 -66.5 -16t-18.5 -57v-412h8zM464 555h-8l-214 -485h136q48 0 67 16t19 57v412zM233 723l152 110q5 4 8 4q4 0 8 -5l43 -53q7 -8 7 -12q0 -5 -7 -11l-27 -22q-8 -6 -22 -10l-140 -35z" />
    <glyph glyph-name="Otilde" unicode="&#xd5;" horiz-adv-x="636" 
d="M65 0zM85 521q20 68 72 93.5t161 25.5q108 0 160.5 -26t72.5 -94t20 -208t-20 -208t-72.5 -93.5t-160.5 -25.5q-109 0 -161 25.5t-72 93.5t-20 208q0 141 20 209zM378 70q48 0 67 16t19 57v412h-207q-48 0 -66.5 -16t-18.5 -57v-412h206zM312.5 696.5
q-12.5 7.5 -43.5 35.5l-66 -33l-28 46q57 42 81.5 56t40.5 14q13 0 25 -7t45 -36l66 33l28 -46q-52 -40 -78.5 -55t-43.5 -15q-14 0 -26.5 7.5z" />
    <glyph glyph-name="OE" unicode="&#x152;" horiz-adv-x="889" 
d="M839 83v-83h-521q-109 0 -161 24.5t-72 89t-20 198.5t20 199t72.5 89.5t160.5 24.5h518l-12 -83h-260v-190h237v-79h-237v-190h275zM464 542h-207q-48 0 -66.5 -16t-18.5 -57v-386h206q48 0 67 16t19 57v386z" />
    <glyph glyph-name="P" unicode="P" horiz-adv-x="530" 
d="M190 0h-100v625h245q67 0 104.5 -20t54 -65.5t16.5 -125.5q0 -112 -37 -160t-123 -48h-160v-206zM336 285q39 0 54 9t15 33v173q0 24 -15 33t-54 9h-146v-257h146z" />
    <glyph glyph-name="Thorn" unicode="&#xde;" horiz-adv-x="530" 
d="M439.5 502q37.5 -20 54 -65.5t16.5 -125.5q0 -112 -37 -160t-123 -48h-160v-103h-100v625h100v-103h145q67 0 104.5 -20zM405 401q0 24 -15 33t-54 9h-146v-261h146q39 0 54 9t15 33v177z" />
    <glyph glyph-name="Q" unicode="Q" horiz-adv-x="626" 
d="M568 -17l-25 -55l-173 57v28l-57 -28q-106 0 -157.5 25.5t-71 93.5t-19.5 208t19.5 208t71 94t157.5 26q105 0 157 -26t71.5 -94t19.5 -208q0 -124 -16 -187.5t-55 -92.5zM370 70q47 0 65 16t18 57v412h-198q-46 0 -64 -16t-18 -57v-412h197z" />
    <glyph glyph-name="R" unicode="R" horiz-adv-x="580" 
d="M436 0l-104 221h-142v-221h-100v625h250q67 0 104.5 -20t54 -65.5t16.5 -125.5q0 -77 -19.5 -120.5t-63.5 -60.5l113 -233h-109zM190 300h151q39 0 54 9t15 33v158q0 24 -15 33t-54 9h-151v-242z" />
    <glyph glyph-name="Racute" unicode="&#x154;" horiz-adv-x="580" 
d="M90 0zM436 0l-104 221h-142v-221h-100v625h250q67 0 104.5 -20t54 -65.5t16.5 -125.5q0 -77 -19.5 -120.5t-63.5 -60.5l113 -233h-109zM190 300h151q39 0 54 9t15 33v158q0 24 -15 33t-54 9h-151v-242zM215 723l152 110q5 4 8 4q4 0 8 -5l43 -53q7 -8 7 -12q0 -5 -7 -11
l-27 -22q-8 -6 -22 -10l-140 -35z" />
    <glyph glyph-name="Rcaron" unicode="&#x158;" horiz-adv-x="580" 
d="M90 0zM436 0l-104 221h-142v-221h-100v625h250q67 0 104.5 -20t54 -65.5t16.5 -125.5q0 -77 -19.5 -120.5t-63.5 -60.5l113 -233h-109zM190 300h151q39 0 54 9t15 33v158q0 24 -15 33t-54 9h-151v-242zM300 773l83 64l35 -34l-99 -116q-5 -6 -10 -6h-18q-5 0 -10 6
l-99 116l35 34z" />
    <glyph glyph-name="Rcommaaccent" unicode="&#x156;" horiz-adv-x="580" 
d="M90 0zM436 0l-104 221h-142v-221h-100v625h250q67 0 104.5 -20t54 -65.5t16.5 -125.5q0 -77 -19.5 -120.5t-63.5 -60.5l113 -233h-109zM190 300h151q39 0 54 9t15 33v158q0 24 -15 33t-54 9h-151v-242zM252 -273l21 98q-27 3 -39 17.5t-12 48.5q0 38 15.5 53.5t52.5 15.5
t52.5 -15.5t15.5 -53.5q0 -33 -7 -54.5t-25 -58.5l-31 -64z" />
    <glyph glyph-name="S" unicode="S" horiz-adv-x="519" 
d="M154.5 74.5q53.5 -6.5 102.5 -6.5q51 0 113 6v186l-95 7q-92 7 -138 23.5t-64.5 52t-18.5 102.5q0 72 18.5 114.5t60 61.5t111.5 19q101 0 202 -19l-13 -79q-80 15 -183 15q-51 0 -87 -5v-188l111 -7q80 -5 124 -23.5t62.5 -57t18.5 -106.5q0 -70 -22 -110t-72 -57.5
t-137 -17.5q-106 0 -202 24l15 82q40 -10 93.5 -16.5z" />
    <glyph glyph-name="Sacute" unicode="&#x15a;" horiz-adv-x="519" 
d="M46 0zM154.5 74.5q53.5 -6.5 102.5 -6.5q51 0 113 6v186l-95 7q-92 7 -138 23.5t-64.5 52t-18.5 102.5q0 72 18.5 114.5t60 61.5t111.5 19q101 0 202 -19l-13 -79q-80 15 -183 15q-51 0 -87 -5v-188l111 -7q80 -5 124 -23.5t62.5 -57t18.5 -106.5q0 -70 -22 -110
t-72 -57.5t-137 -17.5q-106 0 -202 24l15 82q40 -10 93.5 -16.5zM174 723l152 110q5 4 8 4q4 0 8 -5l43 -53q7 -8 7 -12q0 -5 -7 -11l-27 -22q-8 -6 -22 -10l-140 -35z" />
    <glyph glyph-name="Scaron" unicode="&#x160;" horiz-adv-x="519" 
d="M46 0zM154.5 74.5q53.5 -6.5 102.5 -6.5q51 0 113 6v186l-95 7q-92 7 -138 23.5t-64.5 52t-18.5 102.5q0 72 18.5 114.5t60 61.5t111.5 19q101 0 202 -19l-13 -79q-80 15 -183 15q-51 0 -87 -5v-188l111 -7q80 -5 124 -23.5t62.5 -57t18.5 -106.5q0 -70 -22 -110
t-72 -57.5t-137 -17.5q-106 0 -202 24l15 82q40 -10 93.5 -16.5zM259 773l83 64l35 -34l-99 -116q-5 -6 -10 -6h-18q-5 0 -10 6l-99 116l35 34z" />
    <glyph glyph-name="Scedilla" unicode="&#x15e;" horiz-adv-x="519" 
d="M461 68.5q-18 -38.5 -58 -58t-108 -24.5q23 -32 23 -77q0 -37 -26 -59t-70 -22q-33 0 -68 16l7 49h35q24 0 33.5 7t9.5 25v60q-102 2 -193 24l15 82q40 -10 93.5 -16.5t102.5 -6.5q51 0 113 6v186l-95 7q-92 7 -138 23.5t-64.5 52t-18.5 102.5q0 72 18.5 114.5t60 61.5
t111.5 19q101 0 202 -19l-13 -79q-80 15 -183 15q-51 0 -87 -5v-188l111 -7q80 -5 124 -23.5t62.5 -57t18.5 -106.5q0 -63 -18 -101.5z" />
    <glyph glyph-name="Scircumflex" unicode="&#x15c;" horiz-adv-x="519" 
d="M46 0zM154.5 74.5q53.5 -6.5 102.5 -6.5q51 0 113 6v186l-95 7q-92 7 -138 23.5t-64.5 52t-18.5 102.5q0 72 18.5 114.5t60 61.5t111.5 19q101 0 202 -19l-13 -79q-80 15 -183 15q-51 0 -87 -5v-188l111 -7q80 -5 124 -23.5t62.5 -57t18.5 -106.5q0 -70 -22 -110
t-72 -57.5t-137 -17.5q-106 0 -202 24l15 82q40 -10 93.5 -16.5zM141 715l99 116q5 6 10 6h18q5 0 10 -6l99 -116l-35 -34l-83 64l-83 -64z" />
    <glyph glyph-name="Scommaaccent" unicode="&#x218;" horiz-adv-x="519" 
d="M46 0zM154.5 74.5q53.5 -6.5 102.5 -6.5q51 0 113 6v186l-95 7q-92 7 -138 23.5t-64.5 52t-18.5 102.5q0 72 18.5 114.5t60 61.5t111.5 19q101 0 202 -19l-13 -79q-80 15 -183 15q-51 0 -87 -5v-188l111 -7q80 -5 124 -23.5t62.5 -57t18.5 -106.5q0 -70 -22 -110
t-72 -57.5t-137 -17.5q-106 0 -202 24l15 82q40 -10 93.5 -16.5zM221 -273l21 98q-27 3 -39 17.5t-12 48.5q0 38 15.5 53.5t52.5 15.5t52.5 -15.5t15.5 -53.5q0 -33 -7 -54.5t-25 -58.5l-31 -64z" />
    <glyph glyph-name="T" unicode="T" horiz-adv-x="460" 
d="M280 0h-100v542h-165v83h430v-83h-165v-542z" />
    <glyph glyph-name="Tbar" unicode="&#x166;" horiz-adv-x="460" 
d="M280 542v-204h82v-29q0 -25 -7.5 -33t-33.5 -8h-41v-268h-100v268h-82v28q0 25 8 33.5t33 8.5h41v204h-165v83h430v-83h-165z" />
    <glyph glyph-name="Tcaron" unicode="&#x164;" horiz-adv-x="460" 
d="M15 0zM280 0h-100v542h-165v83h430v-83h-165v-542zM230 773l83 64l35 -34l-99 -116q-5 -6 -10 -6h-18q-5 0 -10 6l-99 116l35 34z" />
    <glyph glyph-name="uni0162" unicode="&#x162;" horiz-adv-x="460" 
d="M280 0h-24q15 -18 24 -41.5t9 -49.5q0 -37 -26 -59t-70 -22q-33 0 -68 16l7 49h35q24 0 33.5 7t9.5 25v75h-30v542h-165v83h430v-83h-165v-542z" />
    <glyph glyph-name="uni021A" unicode="&#x21a;" horiz-adv-x="460" 
d="M15 0zM280 0h-100v542h-165v83h430v-83h-165v-542zM192 -273l21 98q-27 3 -39 17.5t-12 48.5q0 38 15.5 53.5t52.5 15.5t52.5 -15.5t15.5 -53.5q0 -33 -7 -54.5t-25 -58.5l-31 -64z" />
    <glyph glyph-name="U" unicode="U" horiz-adv-x="638" 
d="M169 2q-50 17 -69.5 59.5t-19.5 127.5v436h100v-555h144q56 0 84 4.5t39 15.5t11 33v502h100v-436q0 -85 -19.5 -127.5t-69.5 -59.5t-150 -17t-150 17z" />
    <glyph glyph-name="Uacute" unicode="&#xda;" horiz-adv-x="638" 
d="M80 0zM169 2q-50 17 -69.5 59.5t-19.5 127.5v436h100v-555h144q56 0 84 4.5t39 15.5t11 33v502h100v-436q0 -85 -19.5 -127.5t-69.5 -59.5t-150 -17t-150 17zM235 723l152 110q5 4 8 4q4 0 8 -5l43 -53q7 -8 7 -12q0 -5 -7 -11l-27 -22q-8 -6 -22 -10l-140 -35z" />
    <glyph glyph-name="Ubreve" unicode="&#x16c;" horiz-adv-x="638" 
d="M80 0zM169 2q-50 17 -69.5 59.5t-19.5 127.5v436h100v-555h144q56 0 84 4.5t39 15.5t11 33v502h100v-436q0 -85 -19.5 -127.5t-69.5 -59.5t-150 -17t-150 17zM202 800l65 11q6 -22 21 -34t32 -12t32 12t21 34l65 -11q-13 -54 -44 -81t-74 -27q-95 0 -118 108z" />
    <glyph glyph-name="Ucircumflex" unicode="&#xdb;" horiz-adv-x="638" 
d="M80 0zM169 2q-50 17 -69.5 59.5t-19.5 127.5v436h100v-555h144q56 0 84 4.5t39 15.5t11 33v502h100v-436q0 -85 -19.5 -127.5t-69.5 -59.5t-150 -17t-150 17zM202 715l99 116q5 6 10 6h18q5 0 10 -6l99 -116l-35 -34l-83 64l-83 -64z" />
    <glyph glyph-name="Udieresis" unicode="&#xdc;" horiz-adv-x="638" 
d="M80 0zM169 2q-50 17 -69.5 59.5t-19.5 127.5v436h100v-555h144q56 0 84 4.5t39 15.5t11 33v502h100v-436q0 -85 -19.5 -127.5t-69.5 -59.5t-150 -17t-150 17zM187 712q-10 12 -10 45t10 45.5t42 12.5q31 0 41 -12.5t10 -45.5t-10 -45t-41 -12q-32 0 -42 12zM370 712
q-10 12 -10 45t10 45.5t42 12.5q31 0 41 -12.5t10 -45.5t-10 -45t-41 -12q-32 0 -42 12z" />
    <glyph glyph-name="Ugrave" unicode="&#xd9;" horiz-adv-x="638" 
d="M80 0zM169 2q-50 17 -69.5 59.5t-19.5 127.5v436h100v-555h144q56 0 84 4.5t39 15.5t11 33v502h100v-436q0 -85 -19.5 -127.5t-69.5 -59.5t-150 -17t-150 17zM267 714q-14 4 -22 10l-27 22q-7 6 -7 11q0 4 7 12l43 53q4 5 8 5q3 0 8 -4l152 -110l-22 -34z" />
    <glyph glyph-name="Uhungarumlaut" unicode="&#x170;" horiz-adv-x="638" 
d="M80 0zM169 2q-50 17 -69.5 59.5t-19.5 127.5v436h100v-555h144q56 0 84 4.5t39 15.5t11 33v502h100v-436q0 -85 -19.5 -127.5t-69.5 -59.5t-150 -17t-150 17zM130 728l133 105q5 4 8 4q4 0 8 -5l44 -54q6 -8 6 -11q0 -4 -4 -8l-30 -25q-9 -7 -22 -10l-121 -30zM351 728
l133 105q5 4 8 4q4 0 8 -5l44 -54q6 -8 6 -11q0 -4 -4 -8l-30 -25q-9 -7 -22 -10l-121 -30z" />
    <glyph glyph-name="Umacron" unicode="&#x16a;" horiz-adv-x="638" 
d="M80 0zM169 2q-50 17 -69.5 59.5t-19.5 127.5v436h100v-555h144q56 0 84 4.5t39 15.5t11 33v502h100v-436q0 -85 -19.5 -127.5t-69.5 -59.5t-150 -17t-150 17zM206 720.5q-8 9.5 -8 36.5v35h199q29 0 36.5 -9t7.5 -36v-36h-198q-29 0 -37 9.5z" />
    <glyph glyph-name="Uogonek" unicode="&#x172;" horiz-adv-x="638" 
d="M558 625v-436q0 -81 -17 -123t-61 -60t-130 -21h-2q-27 -7 -35.5 -16t-8.5 -32v-21q0 -34 29 -34h51l8 -48q-39 -17 -76 -17q-42 0 -66.5 24t-24.5 65q0 24 13.5 44.5t37.5 35.5q-80 3 -121.5 22t-58 60.5t-16.5 120.5v436h100v-555h144q56 0 84 4.5t39 15.5t11 33v502
h100z" />
    <glyph glyph-name="Uring" unicode="&#x16e;" horiz-adv-x="638" 
d="M80 0zM169 2q-50 17 -69.5 59.5t-19.5 127.5v436h100v-555h144q56 0 84 4.5t39 15.5t11 33v502h100v-436q0 -85 -19.5 -127.5t-69.5 -59.5t-150 -17t-150 17zM244.5 688.5q-23.5 24.5 -23.5 74.5t23.5 74t75.5 24t75 -24t23 -74t-23 -74.5t-75 -24.5t-75.5 24.5zM319 716
q22 0 32 4.5t10 21.5v67h-39q-24 0 -34.5 -4.5t-10.5 -20.5v-68h42z" />
    <glyph glyph-name="Utilde" unicode="&#x168;" horiz-adv-x="638" 
d="M80 0zM169 2q-50 17 -69.5 59.5t-19.5 127.5v436h100v-555h144q56 0 84 4.5t39 15.5t11 33v502h100v-436q0 -85 -19.5 -127.5t-69.5 -59.5t-150 -17t-150 17zM314.5 696.5q-12.5 7.5 -43.5 35.5l-66 -33l-28 46q57 42 81.5 56t40.5 14q13 0 25 -7t45 -36l66 33l28 -46
q-52 -40 -78.5 -55t-43.5 -15q-14 0 -26.5 7.5z" />
    <glyph glyph-name="V" unicode="V" horiz-adv-x="521" 
d="M110 625l146 -533h9l146 533h100l-175 -625h-151l-175 625h100z" />
    <glyph glyph-name="W" unicode="W" horiz-adv-x="802" 
d="M777 625l-105 -625h-156l-115 496l-115 -496h-156l-105 625h100l86 -533h9l128 533h106l128 -533h9l86 533h100z" />
    <glyph glyph-name="Wacute" unicode="&#x1e82;" horiz-adv-x="802" 
d="M25 0zM777 625l-105 -625h-156l-115 496l-115 -496h-156l-105 625h100l86 -533h9l128 533h106l128 -533h9l86 533h100zM316 723l152 110q5 4 8 4q4 0 8 -5l43 -53q7 -8 7 -12q0 -5 -7 -11l-27 -22q-8 -6 -22 -10l-140 -35z" />
    <glyph glyph-name="Wcircumflex" unicode="&#x174;" horiz-adv-x="802" 
d="M25 0zM777 625l-105 -625h-156l-115 496l-115 -496h-156l-105 625h100l86 -533h9l128 533h106l128 -533h9l86 533h100zM283 715l99 116q5 6 10 6h18q5 0 10 -6l99 -116l-35 -34l-83 64l-83 -64z" />
    <glyph glyph-name="Wdieresis" unicode="&#x1e84;" horiz-adv-x="802" 
d="M25 0zM777 625l-105 -625h-156l-115 496l-115 -496h-156l-105 625h100l86 -533h9l128 533h106l128 -533h9l86 533h100zM268 712q-10 12 -10 45t10 45.5t42 12.5q31 0 41 -12.5t10 -45.5t-10 -45t-41 -12q-32 0 -42 12zM451 712q-10 12 -10 45t10 45.5t42 12.5
q31 0 41 -12.5t10 -45.5t-10 -45t-41 -12q-32 0 -42 12z" />
    <glyph glyph-name="Wgrave" unicode="&#x1e80;" horiz-adv-x="802" 
d="M25 0zM777 625l-105 -625h-156l-115 496l-115 -496h-156l-105 625h100l86 -533h9l128 533h106l128 -533h9l86 533h100zM348 714q-14 4 -22 10l-27 22q-7 6 -7 11q0 4 7 12l43 53q4 5 8 5q3 0 8 -4l152 -110l-22 -34z" />
    <glyph glyph-name="X" unicode="X" horiz-adv-x="530" 
d="M408 0l-148 237l-141 -237h-109l196 324l-188 301h112l140 -224l133 224h109l-187 -312l195 -313h-112z" />
    <glyph glyph-name="Y" unicode="Y" horiz-adv-x="490" 
d="M480 625l-185 -410v-215h-100v215l-185 410h104l131 -306l131 306h104z" />
    <glyph glyph-name="Yacute" unicode="&#xdd;" horiz-adv-x="490" 
d="M10 0zM480 625l-185 -410v-215h-100v215l-185 410h104l131 -306l131 306h104zM160 723l152 110q5 4 8 4q4 0 8 -5l43 -53q7 -8 7 -12q0 -5 -7 -11l-27 -22q-8 -6 -22 -10l-140 -35z" />
    <glyph glyph-name="Ycircumflex" unicode="&#x176;" horiz-adv-x="490" 
d="M10 0zM480 625l-185 -410v-215h-100v215l-185 410h104l131 -306l131 306h104zM127 715l99 116q5 6 10 6h18q5 0 10 -6l99 -116l-35 -34l-83 64l-83 -64z" />
    <glyph glyph-name="Ydieresis" unicode="&#x178;" horiz-adv-x="490" 
d="M10 0zM480 625l-185 -410v-215h-100v215l-185 410h104l131 -306l131 306h104zM112 712q-10 12 -10 45t10 45.5t42 12.5q31 0 41 -12.5t10 -45.5t-10 -45t-41 -12q-32 0 -42 12zM295 712q-10 12 -10 45t10 45.5t42 12.5q31 0 41 -12.5t10 -45.5t-10 -45t-41 -12
q-32 0 -42 12z" />
    <glyph glyph-name="Ygrave" unicode="&#x1ef2;" horiz-adv-x="490" 
d="M10 0zM480 625l-185 -410v-215h-100v215l-185 410h104l131 -306l131 306h104zM192 714q-14 4 -22 10l-27 22q-7 6 -7 11q0 4 7 12l43 53q4 5 8 5q3 0 8 -4l152 -110l-22 -34z" />
    <glyph glyph-name="Z" unicode="Z" horiz-adv-x="545" 
d="M35 67l342 469l-3 6h-289l-12 83h437v-67l-342 -469l3 -6h323v-83h-459v67z" />
    <glyph glyph-name="Zacute" unicode="&#x179;" horiz-adv-x="545" 
d="M35 0zM35 67l342 469l-3 6h-289l-12 83h437v-67l-342 -469l3 -6h323v-83h-459v67zM222 723l152 110q5 4 8 4q4 0 8 -5l43 -53q7 -8 7 -12q0 -5 -7 -11l-27 -22q-8 -6 -22 -10l-140 -35z" />
    <glyph glyph-name="Zcaron" unicode="&#x17d;" horiz-adv-x="545" 
d="M35 0zM35 67l342 469l-3 6h-289l-12 83h437v-67l-342 -469l3 -6h323v-83h-459v67zM307 773l83 64l35 -34l-99 -116q-5 -6 -10 -6h-18q-5 0 -10 6l-99 116l35 34z" />
    <glyph glyph-name="Zdotaccent" unicode="&#x17b;" horiz-adv-x="545" 
d="M35 0zM35 67l342 469l-3 6h-289l-12 83h437v-67l-342 -469l3 -6h323v-83h-459v67zM258.5 724.5q-12.5 12.5 -12.5 47.5q0 36 13 49t49 13q35 0 47.5 -13t12.5 -49q0 -35 -12 -47.5t-48 -12.5q-37 0 -49.5 12.5z" />
    <glyph glyph-name="a" unicode="a" horiz-adv-x="545" 
d="M385 496.5q40 -13.5 57.5 -44t17.5 -82.5v-370h-46l-27 50q-36 -31 -79.5 -45.5t-99.5 -14.5q-83 0 -118 34.5t-35 115.5q0 73 20 105t78.5 43t191.5 11h15v121q-37 11 -101 11q-80 0 -169 -24l-13 73q37 13 92 21.5t107 8.5q69 0 109 -13.5zM343.5 79q16.5 12 16.5 46
v109h-133q-47 0 -64 -12t-17 -46v-109h134q47 0 63.5 12z" />
    <glyph glyph-name="aacute" unicode="&#xe1;" horiz-adv-x="545" 
d="M55 0zM385 496.5q40 -13.5 57.5 -44t17.5 -82.5v-370h-46l-27 50q-36 -31 -79.5 -45.5t-99.5 -14.5q-83 0 -118 34.5t-35 115.5q0 73 20 105t78.5 43t191.5 11h15v121q-37 11 -101 11q-80 0 -169 -24l-13 73q37 13 92 21.5t107 8.5q69 0 109 -13.5zM343.5 79
q16.5 12 16.5 46v109h-133q-47 0 -64 -12t-17 -46v-109h134q47 0 63.5 12zM191 598l152 110q5 4 8 4q4 0 8 -5l43 -53q7 -8 7 -12q0 -5 -7 -11l-27 -22q-8 -6 -22 -10l-140 -35z" />
    <glyph glyph-name="abreve" unicode="&#x103;" horiz-adv-x="545" 
d="M55 0zM385 496.5q40 -13.5 57.5 -44t17.5 -82.5v-370h-46l-27 50q-36 -31 -79.5 -45.5t-99.5 -14.5q-83 0 -118 34.5t-35 115.5q0 73 20 105t78.5 43t191.5 11h15v121q-37 11 -101 11q-80 0 -169 -24l-13 73q37 13 92 21.5t107 8.5q69 0 109 -13.5zM343.5 79
q16.5 12 16.5 46v109h-133q-47 0 -64 -12t-17 -46v-109h134q47 0 63.5 12zM158 675l65 11q6 -22 21 -34t32 -12t32 12t21 34l65 -11q-13 -54 -44 -81t-74 -27q-95 0 -118 108z" />
    <glyph glyph-name="acircumflex" unicode="&#xe2;" horiz-adv-x="545" 
d="M55 0zM385 496.5q40 -13.5 57.5 -44t17.5 -82.5v-370h-46l-27 50q-36 -31 -79.5 -45.5t-99.5 -14.5q-83 0 -118 34.5t-35 115.5q0 73 20 105t78.5 43t191.5 11h15v121q-37 11 -101 11q-80 0 -169 -24l-13 73q37 13 92 21.5t107 8.5q69 0 109 -13.5zM343.5 79
q16.5 12 16.5 46v109h-133q-47 0 -64 -12t-17 -46v-109h134q47 0 63.5 12zM158 590l99 116q5 6 10 6h18q5 0 10 -6l99 -116l-35 -34l-83 64l-83 -64z" />
    <glyph glyph-name="adieresis" unicode="&#xe4;" horiz-adv-x="545" 
d="M55 0zM385 496.5q40 -13.5 57.5 -44t17.5 -82.5v-370h-46l-27 50q-36 -31 -79.5 -45.5t-99.5 -14.5q-83 0 -118 34.5t-35 115.5q0 73 20 105t78.5 43t191.5 11h15v121q-37 11 -101 11q-80 0 -169 -24l-13 73q37 13 92 21.5t107 8.5q69 0 109 -13.5zM343.5 79
q16.5 12 16.5 46v109h-133q-47 0 -64 -12t-17 -46v-109h134q47 0 63.5 12zM143 587q-10 12 -10 45t10 45.5t42 12.5q31 0 41 -12.5t10 -45.5t-10 -45t-41 -12q-32 0 -42 12zM326 587q-10 12 -10 45t10 45.5t42 12.5q31 0 41 -12.5t10 -45.5t-10 -45t-41 -12q-32 0 -42 12z
" />
    <glyph glyph-name="agrave" unicode="&#xe0;" horiz-adv-x="545" 
d="M55 0zM385 496.5q40 -13.5 57.5 -44t17.5 -82.5v-370h-46l-27 50q-36 -31 -79.5 -45.5t-99.5 -14.5q-83 0 -118 34.5t-35 115.5q0 73 20 105t78.5 43t191.5 11h15v121q-37 11 -101 11q-80 0 -169 -24l-13 73q37 13 92 21.5t107 8.5q69 0 109 -13.5zM343.5 79
q16.5 12 16.5 46v109h-133q-47 0 -64 -12t-17 -46v-109h134q47 0 63.5 12zM223 589q-14 4 -22 10l-27 22q-7 6 -7 11q0 4 7 12l43 53q4 5 8 5q3 0 8 -4l152 -110l-22 -34z" />
    <glyph glyph-name="amacron" unicode="&#x101;" horiz-adv-x="545" 
d="M55 0zM385 496.5q40 -13.5 57.5 -44t17.5 -82.5v-370h-46l-27 50q-36 -31 -79.5 -45.5t-99.5 -14.5q-83 0 -118 34.5t-35 115.5q0 73 20 105t78.5 43t191.5 11h15v121q-37 11 -101 11q-80 0 -169 -24l-13 73q37 13 92 21.5t107 8.5q69 0 109 -13.5zM343.5 79
q16.5 12 16.5 46v109h-133q-47 0 -64 -12t-17 -46v-109h134q47 0 63.5 12zM162 595.5q-8 9.5 -8 36.5v35h199q29 0 36.5 -9t7.5 -36v-36h-198q-29 0 -37 9.5z" />
    <glyph glyph-name="aogonek" unicode="&#x105;" horiz-adv-x="545" 
d="M484 -155q-39 -17 -76 -17q-42 0 -66.5 24t-24.5 65q0 32 24 58t65 39l-19 36q-36 -31 -79.5 -45.5t-99.5 -14.5q-83 0 -118 34.5t-35 115.5q0 73 20 105t78.5 43t191.5 11h15v121q-37 11 -101 11q-80 0 -169 -24l-13 73q37 13 92 21.5t107 8.5q69 0 109 -13.5t57.5 -44
t17.5 -82.5v-370l-20 -4q-27 -7 -35.5 -16t-8.5 -32v-21q0 -34 29 -34h51zM343.5 79q16.5 12 16.5 46v109h-133q-47 0 -64 -12t-17 -46v-109h134q47 0 63.5 12z" />
    <glyph glyph-name="aring" unicode="&#xe5;" horiz-adv-x="545" 
d="M55 0zM385 496.5q40 -13.5 57.5 -44t17.5 -82.5v-370h-46l-27 50q-36 -31 -79.5 -45.5t-99.5 -14.5q-83 0 -118 34.5t-35 115.5q0 73 20 105t78.5 43t191.5 11h15v121q-37 11 -101 11q-80 0 -169 -24l-13 73q37 13 92 21.5t107 8.5q69 0 109 -13.5zM343.5 79
q16.5 12 16.5 46v109h-133q-47 0 -64 -12t-17 -46v-109h134q47 0 63.5 12zM200.5 563.5q-23.5 24.5 -23.5 74.5t23.5 74t75.5 24t75 -24t23 -74t-23 -74.5t-75 -24.5t-75.5 24.5zM275 591q22 0 32 4.5t10 21.5v67h-39q-24 0 -34.5 -4.5t-10.5 -20.5v-68h42z" />
    <glyph glyph-name="aringacute" unicode="&#x1fb;" horiz-adv-x="545" 
d="M55 0zM385 496.5q40 -13.5 57.5 -44t17.5 -82.5v-370h-46l-27 50q-36 -31 -79.5 -45.5t-99.5 -14.5q-83 0 -118 34.5t-35 115.5q0 73 20 105t78.5 43t191.5 11h15v121q-37 11 -101 11q-80 0 -169 -24l-13 73q37 13 92 21.5t107 8.5q69 0 109 -13.5zM343.5 79
q16.5 12 16.5 46v109h-133q-47 0 -64 -12t-17 -46v-109h134q47 0 63.5 12zM200.5 563.5q-23.5 24.5 -23.5 74.5t23.5 74t75.5 24t75 -24t23 -74t-23 -74.5t-75 -24.5t-75.5 24.5zM275 591q22 0 32 4.5t10 21.5v67h-39q-24 0 -34.5 -4.5t-10.5 -20.5v-68h42zM191 814l152 110
q5 4 8 4q4 0 8 -5l43 -53q7 -8 7 -12q0 -5 -7 -11l-27 -22q-8 -6 -22 -10l-140 -35z" />
    <glyph glyph-name="atilde" unicode="&#xe3;" horiz-adv-x="545" 
d="M55 0zM385 496.5q40 -13.5 57.5 -44t17.5 -82.5v-370h-46l-27 50q-36 -31 -79.5 -45.5t-99.5 -14.5q-83 0 -118 34.5t-35 115.5q0 73 20 105t78.5 43t191.5 11h15v121q-37 11 -101 11q-80 0 -169 -24l-13 73q37 13 92 21.5t107 8.5q69 0 109 -13.5zM343.5 79
q16.5 12 16.5 46v109h-133q-47 0 -64 -12t-17 -46v-109h134q47 0 63.5 12zM270.5 571.5q-12.5 7.5 -43.5 35.5l-66 -33l-28 46q57 42 81.5 56t40.5 14q13 0 25 -7t45 -36l66 33l28 -46q-52 -40 -78.5 -55t-43.5 -15q-14 0 -26.5 7.5z" />
    <glyph glyph-name="ae" unicode="&#xe6;" horiz-adv-x="837" 
d="M648 74.5q39 5.5 93 18.5l13 -73q-39 -14 -93 -22t-111 -8q-65 0 -102.5 14.5t-58.5 47.5q-36 -32 -80 -47t-101 -15q-83 0 -118 34.5t-35 115.5q0 73 20 105t78.5 43t191.5 11h15v121q-37 11 -101 11q-80 0 -169 -24l-13 73q37 13 92 21.5t107 8.5q54 0 90 -8t57 -26
q23 18 57.5 26t86.5 8q81 0 123.5 -13t59.5 -44.5t17 -92.5q0 -73 -21 -105t-82.5 -43t-202.5 -11v-121q43 -11 107 -11q41 0 80 5.5zM478.5 416q-17.5 -12 -17.5 -46v-104h132q49 0 66.5 12t17.5 46v104h-133q-48 0 -65.5 -12zM343.5 79q16.5 12 16.5 46v109h-133
q-47 0 -64 -12t-17 -46v-109h134q47 0 63.5 12z" />
    <glyph glyph-name="aeacute" unicode="&#x1fd;" horiz-adv-x="837" 
d="M55 0zM648 74.5q39 5.5 93 18.5l13 -73q-39 -14 -93 -22t-111 -8q-65 0 -102.5 14.5t-58.5 47.5q-36 -32 -80 -47t-101 -15q-83 0 -118 34.5t-35 115.5q0 73 20 105t78.5 43t191.5 11h15v121q-37 11 -101 11q-80 0 -169 -24l-13 73q37 13 92 21.5t107 8.5q54 0 90 -8
t57 -26q23 18 57.5 26t86.5 8q81 0 123.5 -13t59.5 -44.5t17 -92.5q0 -73 -21 -105t-82.5 -43t-202.5 -11v-121q43 -11 107 -11q41 0 80 5.5zM478.5 416q-17.5 -12 -17.5 -46v-104h132q49 0 66.5 12t17.5 46v104h-133q-48 0 -65.5 -12zM343.5 79q16.5 12 16.5 46v109h-133
q-47 0 -64 -12t-17 -46v-109h134q47 0 63.5 12zM334 598l152 110q5 4 8 4q4 0 8 -5l43 -53q7 -8 7 -12q0 -5 -7 -11l-27 -22q-8 -6 -22 -10l-140 -35z" />
    <glyph glyph-name="b" unicode="b" horiz-adv-x="569" 
d="M441 493q38 -22 53 -78t15 -165q0 -108 -16.5 -162.5t-58.5 -76t-125 -21.5h-1q-60 0 -110 7t-108 24v644l100 12v-186q23 13 56 18.5t83 5.5q74 0 112 -22zM404 433h-168q-27 0 -36.5 -5t-9.5 -20v-336h168q26 0 36 4.5t10 15.5v341z" />
    <glyph glyph-name="c" unicode="c" horiz-adv-x="453" 
d="M128 12q-38 22 -53 76.5t-15 161.5t15 162t53 76.5t112 21.5q41 0 85.5 -5t76.5 -13l-12 -76q-72 15 -139 15q-49 0 -68 -18.5t-19 -65.5v-267q36 -11 102 -11q32 0 62.5 5.5t73.5 18.5l11 -73q-34 -14 -79.5 -22t-93.5 -8q-74 0 -112 22z" />
    <glyph glyph-name="cacute" unicode="&#x107;" horiz-adv-x="453" 
d="M60 0zM128 12q-38 22 -53 76.5t-15 161.5t15 162t53 76.5t112 21.5q41 0 85.5 -5t76.5 -13l-12 -76q-72 15 -139 15q-49 0 -68 -18.5t-19 -65.5v-267q36 -11 102 -11q32 0 62.5 5.5t73.5 18.5l11 -73q-34 -14 -79.5 -22t-93.5 -8q-74 0 -112 22zM162 598l152 110q5 4 8 4
q4 0 8 -5l43 -53q7 -8 7 -12q0 -5 -7 -11l-27 -22q-8 -6 -22 -10l-140 -35z" />
    <glyph glyph-name="ccaron" unicode="&#x10d;" horiz-adv-x="453" 
d="M60 0zM128 12q-38 22 -53 76.5t-15 161.5t15 162t53 76.5t112 21.5q41 0 85.5 -5t76.5 -13l-12 -76q-72 15 -139 15q-49 0 -68 -18.5t-19 -65.5v-267q36 -11 102 -11q32 0 62.5 5.5t73.5 18.5l11 -73q-34 -14 -79.5 -22t-93.5 -8q-74 0 -112 22zM247 648l83 64l35 -34
l-99 -116q-5 -6 -10 -6h-18q-5 0 -10 6l-99 116l35 34z" />
    <glyph glyph-name="ccedilla" unicode="&#xe7;" horiz-adv-x="453" 
d="M270 -9q12 -17 19 -38.5t7 -43.5q0 -37 -26 -59t-70 -22q-33 0 -68 16l7 49h35q24 0 33.5 7t9.5 25v65q-64 3 -97 27t-46.5 78t-13.5 155q0 107 15 162t53 76.5t112 21.5q41 0 85.5 -5t76.5 -13l-12 -76q-72 15 -139 15q-49 0 -68 -18.5t-19 -65.5v-267q36 -11 102 -11
q32 0 62.5 5.5t73.5 18.5l11 -73q-58 -24 -143 -29z" />
    <glyph glyph-name="ccircumflex" unicode="&#x109;" horiz-adv-x="453" 
d="M60 0zM128 12q-38 22 -53 76.5t-15 161.5t15 162t53 76.5t112 21.5q41 0 85.5 -5t76.5 -13l-12 -76q-72 15 -139 15q-49 0 -68 -18.5t-19 -65.5v-267q36 -11 102 -11q32 0 62.5 5.5t73.5 18.5l11 -73q-34 -14 -79.5 -22t-93.5 -8q-74 0 -112 22zM129 590l99 116q5 6 10 6
h18q5 0 10 -6l99 -116l-35 -34l-83 64l-83 -64z" />
    <glyph glyph-name="cdotaccent" unicode="&#x10b;" horiz-adv-x="453" 
d="M60 0zM128 12q-38 22 -53 76.5t-15 161.5t15 162t53 76.5t112 21.5q41 0 85.5 -5t76.5 -13l-12 -76q-72 15 -139 15q-49 0 -68 -18.5t-19 -65.5v-267q36 -11 102 -11q32 0 62.5 5.5t73.5 18.5l11 -73q-34 -14 -79.5 -22t-93.5 -8q-74 0 -112 22zM198.5 599.5
q-12.5 12.5 -12.5 47.5q0 36 13 49t49 13q35 0 47.5 -13t12.5 -49q0 -35 -12 -47.5t-48 -12.5q-37 0 -49.5 12.5z" />
    <glyph glyph-name="d" unicode="d" horiz-adv-x="569" 
d="M479 677v-677h-46l-22 40q-20 -31 -57.5 -43t-103.5 -12q-80 0 -119.5 21t-55 76t-15.5 168q0 106 15 161t52 77t109 22q51 0 85.5 -5.5t57.5 -18.5v179zM379 428h-168q-27 0 -36.5 -5t-9.5 -20v-336h168q27 0 36.5 5t9.5 20v336z" />
    <glyph glyph-name="eth" unicode="&#xf0;" horiz-adv-x="557" 
d="M513 589q0 -15 -17 -21l-53 -18q46 -105 46 -192v-143q0 -93 -18 -140t-62.5 -66t-131.5 -19t-131.5 19t-62.5 66t-18 140t18 140t62.5 66t131.5 19h108q-9 43 -27 82l-82 -27l-9 27q-6 18 -6 29q0 15 17 21l48 16q-13 24 -41 65l86 24q18 -25 39 -61l88 29l9 -27
q6 -18 6 -29zM384 358h-168q-27 0 -36.5 -5t-9.5 -20v-261h168q27 0 36.5 5t9.5 20v261z" />
    <glyph glyph-name="dcaron" unicode="&#x10f;" horiz-adv-x="655" 
d="M60 0zM479 677v-677h-46l-22 40q-20 -31 -57.5 -43t-103.5 -12q-80 0 -119.5 21t-55 76t-15.5 168q0 106 15 161t52 77t109 22q51 0 85.5 -5.5t57.5 -18.5v179zM379 428h-168q-27 0 -36.5 -5t-9.5 -20v-336h168q27 0 36.5 5t9.5 20v336zM549 467l21 98q-27 3 -39 17.5
t-12 48.5q0 38 15.5 53.5t52.5 15.5t52.5 -15.5t15.5 -53.5q0 -33 -7 -54.5t-25 -58.5l-31 -64z" />
    <glyph glyph-name="dcroat" unicode="&#x111;" horiz-adv-x="569" 
d="M548 608v-16q0 -14 -7 -18t-30 -4h-32v-570h-46l-22 40q-20 -31 -57.5 -43t-103.5 -12q-80 0 -119.5 21t-55 76t-15.5 168q0 106 15 161t52 77t109 22q51 0 85.5 -5.5t57.5 -18.5v84h-69v15q0 14 7 18.5t30 4.5h32v57l100 12v-69h69zM379 428h-168q-27 0 -36.5 -5
t-9.5 -20v-336h168q27 0 36.5 5t9.5 20v336z" />
    <glyph glyph-name="e" unicode="e" horiz-adv-x="541" 
d="M352 74.5q39 5.5 93 18.5l13 -73q-37 -14 -91.5 -22t-112.5 -8q-78 0 -119 22.5t-58 77.5t-17 160q0 101 19.5 156.5t64.5 79.5t127 24q81 0 123.5 -13t59.5 -44.5t17 -92.5q0 -73 -21 -105t-82.5 -43t-202.5 -11v-121q40 -11 107 -11q41 0 80 5.5zM182.5 416
q-17.5 -12 -17.5 -46v-104h132q49 0 66.5 12t17.5 46v104h-133q-48 0 -65.5 -12z" />
    <glyph glyph-name="eacute" unicode="&#xe9;" horiz-adv-x="541" 
d="M60 0zM352 74.5q39 5.5 93 18.5l13 -73q-37 -14 -91.5 -22t-112.5 -8q-78 0 -119 22.5t-58 77.5t-17 160q0 101 19.5 156.5t64.5 79.5t127 24q81 0 123.5 -13t59.5 -44.5t17 -92.5q0 -73 -21 -105t-82.5 -43t-202.5 -11v-121q40 -11 107 -11q41 0 80 5.5zM182.5 416
q-17.5 -12 -17.5 -46v-104h132q49 0 66.5 12t17.5 46v104h-133q-48 0 -65.5 -12zM186 598l152 110q5 4 8 4q4 0 8 -5l43 -53q7 -8 7 -12q0 -5 -7 -11l-27 -22q-8 -6 -22 -10l-140 -35z" />
    <glyph glyph-name="ebreve" unicode="&#x115;" horiz-adv-x="541" 
d="M60 0zM352 74.5q39 5.5 93 18.5l13 -73q-37 -14 -91.5 -22t-112.5 -8q-78 0 -119 22.5t-58 77.5t-17 160q0 101 19.5 156.5t64.5 79.5t127 24q81 0 123.5 -13t59.5 -44.5t17 -92.5q0 -73 -21 -105t-82.5 -43t-202.5 -11v-121q40 -11 107 -11q41 0 80 5.5zM182.5 416
q-17.5 -12 -17.5 -46v-104h132q49 0 66.5 12t17.5 46v104h-133q-48 0 -65.5 -12zM153 675l65 11q6 -22 21 -34t32 -12t32 12t21 34l65 -11q-13 -54 -44 -81t-74 -27q-95 0 -118 108z" />
    <glyph glyph-name="ecaron" unicode="&#x11b;" horiz-adv-x="541" 
d="M60 0zM352 74.5q39 5.5 93 18.5l13 -73q-37 -14 -91.5 -22t-112.5 -8q-78 0 -119 22.5t-58 77.5t-17 160q0 101 19.5 156.5t64.5 79.5t127 24q81 0 123.5 -13t59.5 -44.5t17 -92.5q0 -73 -21 -105t-82.5 -43t-202.5 -11v-121q40 -11 107 -11q41 0 80 5.5zM182.5 416
q-17.5 -12 -17.5 -46v-104h132q49 0 66.5 12t17.5 46v104h-133q-48 0 -65.5 -12zM271 648l83 64l35 -34l-99 -116q-5 -6 -10 -6h-18q-5 0 -10 6l-99 116l35 34z" />
    <glyph glyph-name="ecircumflex" unicode="&#xea;" horiz-adv-x="541" 
d="M60 0zM352 74.5q39 5.5 93 18.5l13 -73q-37 -14 -91.5 -22t-112.5 -8q-78 0 -119 22.5t-58 77.5t-17 160q0 101 19.5 156.5t64.5 79.5t127 24q81 0 123.5 -13t59.5 -44.5t17 -92.5q0 -73 -21 -105t-82.5 -43t-202.5 -11v-121q40 -11 107 -11q41 0 80 5.5zM182.5 416
q-17.5 -12 -17.5 -46v-104h132q49 0 66.5 12t17.5 46v104h-133q-48 0 -65.5 -12zM153 590l99 116q5 6 10 6h18q5 0 10 -6l99 -116l-35 -34l-83 64l-83 -64z" />
    <glyph glyph-name="edieresis" unicode="&#xeb;" horiz-adv-x="541" 
d="M60 0zM352 74.5q39 5.5 93 18.5l13 -73q-37 -14 -91.5 -22t-112.5 -8q-78 0 -119 22.5t-58 77.5t-17 160q0 101 19.5 156.5t64.5 79.5t127 24q81 0 123.5 -13t59.5 -44.5t17 -92.5q0 -73 -21 -105t-82.5 -43t-202.5 -11v-121q40 -11 107 -11q41 0 80 5.5zM182.5 416
q-17.5 -12 -17.5 -46v-104h132q49 0 66.5 12t17.5 46v104h-133q-48 0 -65.5 -12zM138 587q-10 12 -10 45t10 45.5t42 12.5q31 0 41 -12.5t10 -45.5t-10 -45t-41 -12q-32 0 -42 12zM321 587q-10 12 -10 45t10 45.5t42 12.5q31 0 41 -12.5t10 -45.5t-10 -45t-41 -12
q-32 0 -42 12z" />
    <glyph glyph-name="edotaccent" unicode="&#x117;" horiz-adv-x="541" 
d="M60 0zM352 74.5q39 5.5 93 18.5l13 -73q-37 -14 -91.5 -22t-112.5 -8q-78 0 -119 22.5t-58 77.5t-17 160q0 101 19.5 156.5t64.5 79.5t127 24q81 0 123.5 -13t59.5 -44.5t17 -92.5q0 -73 -21 -105t-82.5 -43t-202.5 -11v-121q40 -11 107 -11q41 0 80 5.5zM182.5 416
q-17.5 -12 -17.5 -46v-104h132q49 0 66.5 12t17.5 46v104h-133q-48 0 -65.5 -12zM222.5 599.5q-12.5 12.5 -12.5 47.5q0 36 13 49t49 13q35 0 47.5 -13t12.5 -49q0 -35 -12 -47.5t-48 -12.5q-37 0 -49.5 12.5z" />
    <glyph glyph-name="egrave" unicode="&#xe8;" horiz-adv-x="541" 
d="M60 0zM352 74.5q39 5.5 93 18.5l13 -73q-37 -14 -91.5 -22t-112.5 -8q-78 0 -119 22.5t-58 77.5t-17 160q0 101 19.5 156.5t64.5 79.5t127 24q81 0 123.5 -13t59.5 -44.5t17 -92.5q0 -73 -21 -105t-82.5 -43t-202.5 -11v-121q40 -11 107 -11q41 0 80 5.5zM182.5 416
q-17.5 -12 -17.5 -46v-104h132q49 0 66.5 12t17.5 46v104h-133q-48 0 -65.5 -12zM218 589q-14 4 -22 10l-27 22q-7 6 -7 11q0 4 7 12l43 53q4 5 8 5q3 0 8 -4l152 -110l-22 -34z" />
    <glyph glyph-name="emacron" unicode="&#x113;" horiz-adv-x="541" 
d="M60 0zM352 74.5q39 5.5 93 18.5l13 -73q-37 -14 -91.5 -22t-112.5 -8q-78 0 -119 22.5t-58 77.5t-17 160q0 101 19.5 156.5t64.5 79.5t127 24q81 0 123.5 -13t59.5 -44.5t17 -92.5q0 -73 -21 -105t-82.5 -43t-202.5 -11v-121q40 -11 107 -11q41 0 80 5.5zM182.5 416
q-17.5 -12 -17.5 -46v-104h132q49 0 66.5 12t17.5 46v104h-133q-48 0 -65.5 -12zM157 595.5q-8 9.5 -8 36.5v35h199q29 0 36.5 -9t7.5 -36v-36h-198q-29 0 -37 9.5z" />
    <glyph glyph-name="eogonek" unicode="&#x119;" horiz-adv-x="541" 
d="M482 -135q-39 -17 -76 -17q-42 0 -66.5 24t-24.5 65q0 31 24 57q-56 -4 -85 -4q-78 0 -119 22.5t-58 77.5t-17 160q0 101 19.5 156.5t64.5 79.5t127 24q81 0 123.5 -13t59.5 -44.5t17 -92.5q0 -73 -21 -105t-82.5 -43t-202.5 -11v-121q40 -11 107 -11q41 0 80 5.5
t93 18.5l13 -73q-23 -8 -49 -14q-9 -6 -12 -14.5t-3 -23.5v-21q0 -34 29 -34h51zM182.5 416q-17.5 -12 -17.5 -46v-104h132q49 0 66.5 12t17.5 46v104h-133q-48 0 -65.5 -12z" />
    <glyph glyph-name="f" unicode="f" horiz-adv-x="333" 
d="M220 602v-102h80v-69h-80v-431h-100v431h-70v69h70q4 69 16 106.5t36.5 53t68.5 15.5q48 0 92 -10l-6 -72z" />
    <glyph glyph-name="g" unicode="g" horiz-adv-x="506" 
d="M379 53.5q39 -11.5 53 -31.5t14 -61q0 -47 -19 -74.5t-62.5 -39.5t-117.5 -12q-54 0 -105.5 8t-88.5 22l13 76q52 -13 88.5 -18.5t74.5 -5.5q77 0 128 11v74q-102 6 -145 16t-43 27l27 103q-57 5 -89.5 24t-47 57t-14.5 101q0 71 18.5 110.5t60.5 57t118 17.5
q77 0 118 -17l71 54l50 -49l-58 -67q17 -38 17 -106t-16.5 -107t-55 -57t-106.5 -20l-5 -72q83 -9 122 -20.5zM144 212h124q41 0 57 13.5t16 48.5v175h-124q-41 0 -57 -13.5t-16 -48.5v-175z" />
    <glyph glyph-name="gbreve" unicode="&#x11f;" horiz-adv-x="506" 
d="M45 0zM379 53.5q39 -11.5 53 -31.5t14 -61q0 -47 -19 -74.5t-62.5 -39.5t-117.5 -12q-54 0 -105.5 8t-88.5 22l13 76q52 -13 88.5 -18.5t74.5 -5.5q77 0 128 11v74q-102 6 -145 16t-43 27l27 103q-57 5 -89.5 24t-47 57t-14.5 101q0 71 18.5 110.5t60.5 57t118 17.5
q77 0 118 -17l71 54l50 -49l-58 -67q17 -38 17 -106t-16.5 -107t-55 -57t-106.5 -20l-5 -72q83 -9 122 -20.5zM144 212h124q41 0 57 13.5t16 48.5v175h-124q-41 0 -57 -13.5t-16 -48.5v-175zM135 675l65 11q6 -22 21 -34t32 -12t32 12t21 34l65 -11q-13 -54 -44 -81t-74 -27
q-95 0 -118 108z" />
    <glyph glyph-name="gcircumflex" unicode="&#x11d;" horiz-adv-x="506" 
d="M45 0zM379 53.5q39 -11.5 53 -31.5t14 -61q0 -47 -19 -74.5t-62.5 -39.5t-117.5 -12q-54 0 -105.5 8t-88.5 22l13 76q52 -13 88.5 -18.5t74.5 -5.5q77 0 128 11v74q-102 6 -145 16t-43 27l27 103q-57 5 -89.5 24t-47 57t-14.5 101q0 71 18.5 110.5t60.5 57t118 17.5
q77 0 118 -17l71 54l50 -49l-58 -67q17 -38 17 -106t-16.5 -107t-55 -57t-106.5 -20l-5 -72q83 -9 122 -20.5zM144 212h124q41 0 57 13.5t16 48.5v175h-124q-41 0 -57 -13.5t-16 -48.5v-175zM135 590l99 116q5 6 10 6h18q5 0 10 -6l99 -116l-35 -34l-83 64l-83 -64z" />
    <glyph glyph-name="gcommaaccent" unicode="&#x123;" horiz-adv-x="506" 
d="M45 0zM379 53.5q39 -11.5 53 -31.5t14 -61q0 -47 -19 -74.5t-62.5 -39.5t-117.5 -12q-54 0 -105.5 8t-88.5 22l13 76q52 -13 88.5 -18.5t74.5 -5.5q77 0 128 11v74q-102 6 -145 16t-43 27l27 103q-57 5 -89.5 24t-47 57t-14.5 101q0 71 18.5 110.5t60.5 57t118 17.5
q77 0 118 -17l71 54l50 -49l-58 -67q17 -38 17 -106t-16.5 -107t-55 -57t-106.5 -20l-5 -72q83 -9 122 -20.5zM144 212h124q41 0 57 13.5t16 48.5v175h-124q-41 0 -57 -13.5t-16 -48.5v-175zM291 804l-21 -98q27 -3 39 -17.5t12 -48.5q0 -38 -15.5 -53.5t-52.5 -15.5
t-52.5 15.5t-15.5 53.5q0 33 7 54.5t25 58.5l31 64z" />
    <glyph glyph-name="gdotaccent" unicode="&#x121;" horiz-adv-x="506" 
d="M45 0zM379 53.5q39 -11.5 53 -31.5t14 -61q0 -47 -19 -74.5t-62.5 -39.5t-117.5 -12q-54 0 -105.5 8t-88.5 22l13 76q52 -13 88.5 -18.5t74.5 -5.5q77 0 128 11v74q-102 6 -145 16t-43 27l27 103q-57 5 -89.5 24t-47 57t-14.5 101q0 71 18.5 110.5t60.5 57t118 17.5
q77 0 118 -17l71 54l50 -49l-58 -67q17 -38 17 -106t-16.5 -107t-55 -57t-106.5 -20l-5 -72q83 -9 122 -20.5zM144 212h124q41 0 57 13.5t16 48.5v175h-124q-41 0 -57 -13.5t-16 -48.5v-175zM204.5 599.5q-12.5 12.5 -12.5 47.5q0 36 13 49t49 13q35 0 47.5 -13t12.5 -49
q0 -35 -12 -47.5t-48 -12.5q-37 0 -49.5 12.5z" />
    <glyph glyph-name="h" unicode="h" horiz-adv-x="576" 
d="M90 657l98 8v-198q32 22 70.5 32.5t90.5 10.5q70 0 106 -21.5t36 -63.5v-425h-100v428h-116q-49 0 -67 -12t-18 -46v-370h-100v657z" />
    <glyph glyph-name="hbar" unicode="&#x127;" horiz-adv-x="576" 
d="M455 488.5q36 -21.5 36 -63.5v-425h-100v428h-116q-49 0 -67 -12t-18 -46v-370h-100v558h-69v15q0 14 7 18.5t30 4.5h32v61l98 8v-69h71v-16q0 -14 -7 -18t-30 -4h-34v-91q32 22 70.5 32.5t90.5 10.5q70 0 106 -21.5z" />
    <glyph glyph-name="hcircumflex" unicode="&#x125;" horiz-adv-x="576" 
d="M22 0zM90 657l98 8v-198q32 22 70.5 32.5t90.5 10.5q70 0 106 -21.5t36 -63.5v-425h-100v428h-116q-49 0 -67 -12t-18 -46v-370h-100v657zM22 715l99 116q5 6 10 6h18q5 0 10 -6l99 -116l-35 -34l-83 64l-83 -64z" />
    <glyph glyph-name="i" unicode="i" horiz-adv-x="280" 
d="M79 0zM190 508v-508h-100v493zM91.5 599.5q-12.5 12.5 -12.5 47.5q0 36 13 49t49 13q35 0 47.5 -13t12.5 -49q0 -35 -12 -47.5t-48 -12.5q-37 0 -49.5 12.5z" />
    <glyph glyph-name="dotlessi" unicode="&#x131;" horiz-adv-x="280" 
d="M190 508v-508h-100v493z" />
    <glyph glyph-name="iacute" unicode="&#xed;" horiz-adv-x="280" 
d="M55 0zM190 508v-508h-100v493zM55 598l152 110q5 4 8 4q4 0 8 -5l43 -53q7 -8 7 -12q0 -5 -7 -11l-27 -22q-8 -6 -22 -10l-140 -35z" />
    <glyph glyph-name="ibreve" unicode="&#x12d;" horiz-adv-x="280" 
d="M22 0zM190 508v-508h-100v493zM22 675l65 11q6 -22 21 -34t32 -12t32 12t21 34l65 -11q-13 -54 -44 -81t-74 -27q-95 0 -118 108z" />
    <glyph glyph-name="icircumflex" unicode="&#xee;" horiz-adv-x="280" 
d="M22 0zM190 508v-508h-100v493zM22 590l99 116q5 6 10 6h18q5 0 10 -6l99 -116l-35 -34l-83 64l-83 -64z" />
    <glyph glyph-name="idieresis" unicode="&#xef;" horiz-adv-x="280" 
d="M0 0zM190 508v-508h-100v493zM7 587q-10 12 -10 45t10 45.5t42 12.5q31 0 41 -12.5t10 -45.5t-10 -45t-41 -12q-32 0 -42 12zM190 587q-10 12 -10 45t10 45.5t42 12.5q31 0 41 -12.5t10 -45.5t-10 -45t-41 -12q-32 0 -42 12z" />
    <glyph glyph-name="i.loclTRK" horiz-adv-x="280" 
d="M79 0zM190 508v-508h-100v493zM91.5 599.5q-12.5 12.5 -12.5 47.5q0 36 13 49t49 13q35 0 47.5 -13t12.5 -49q0 -35 -12 -47.5t-48 -12.5q-37 0 -49.5 12.5z" />
    <glyph glyph-name="igrave" unicode="&#xec;" horiz-adv-x="280" 
d="M31 0zM190 508v-508h-100v493zM87 589q-14 4 -22 10l-27 22q-7 6 -7 11q0 4 7 12l43 53q4 5 8 5q3 0 8 -4l152 -110l-22 -34z" />
    <glyph glyph-name="ij" unicode="&#x133;" horiz-adv-x="560" 
d="M79 0zM190 508v-508h-100v493zM91.5 599.5q-12.5 12.5 -12.5 47.5q0 36 13 49t49 13q35 0 47.5 -13t12.5 -49q0 -35 -12 -47.5t-48 -12.5q-37 0 -49.5 12.5zM269 -164l6 58q42 0 61.5 4.5t26.5 17t7 39.5v538l100 15v-568q0 -59 -30 -87t-94 -28q-44 0 -77 11z
M371.5 599.5q-12.5 12.5 -12.5 47.5q0 36 13 49t49 13q35 0 47.5 -13t12.5 -49q0 -35 -12 -47.5t-48 -12.5q-37 0 -49.5 12.5z" />
    <glyph glyph-name="imacron" unicode="&#x12b;" horiz-adv-x="280" 
d="M18 0zM190 508v-508h-100v493zM26 595.5q-8 9.5 -8 36.5v35h199q29 0 36.5 -9t7.5 -36v-36h-198q-29 0 -37 9.5z" />
    <glyph glyph-name="iogonek" unicode="&#x12f;" horiz-adv-x="280" 
d="M91.5 599.5q-12.5 12.5 -12.5 47.5q0 36 13 49t49 13q35 0 47.5 -13t12.5 -49q0 -35 -12 -47.5t-48 -12.5q-37 0 -49.5 12.5zM214 -155q-39 -17 -76 -17q-42 0 -66.5 24t-24.5 65q0 25 15 46.5t42 36.5h-14v493l100 15v-508l-20 -4q-27 -7 -35.5 -16t-8.5 -32v-21
q0 -34 29 -34h51z" />
    <glyph glyph-name="itilde" unicode="&#x129;" horiz-adv-x="280" 
d="M0 0zM190 508v-508h-100v493zM134.5 571.5q-12.5 7.5 -43.5 35.5l-66 -33l-28 46q57 42 81.5 56t40.5 14q13 0 25 -7t45 -36l66 33l28 -46q-52 -40 -78.5 -55t-43.5 -15q-14 0 -26.5 7.5z" />
    <glyph glyph-name="j" unicode="j" horiz-adv-x="280" 
d="M0 0zM-11 -164l6 58q42 0 61.5 4.5t26.5 17t7 39.5v538l100 15v-568q0 -59 -30 -87t-94 -28q-44 0 -77 11zM91.5 599.5q-12.5 12.5 -12.5 47.5q0 36 13 49t49 13q35 0 47.5 -13t12.5 -49q0 -35 -12 -47.5t-48 -12.5q-37 0 -49.5 12.5z" />
    <glyph glyph-name="uni0237" unicode="&#x237;" horiz-adv-x="280" 
d="M-11 -164l6 58q42 0 61.5 4.5t26.5 17t7 39.5v538l100 15v-568q0 -59 -30 -87t-94 -28q-44 0 -77 11z" />
    <glyph glyph-name="jcircumflex" unicode="&#x135;" horiz-adv-x="280" 
d="M0 0zM-11 -164l6 58q42 0 61.5 4.5t26.5 17t7 39.5v538l100 15v-568q0 -59 -30 -87t-94 -28q-44 0 -77 11zM22 590l99 116q5 6 10 6h18q5 0 10 -6l99 -116l-35 -34l-83 64l-83 -64z" />
    <glyph glyph-name="k" unicode="k" horiz-adv-x="495" 
d="M190 232v-232h-100v650l100 15v-363h79l106 198h105l-128 -233l133 -267h-103l-113 232h-79z" />
    <glyph glyph-name="kcommaaccent" unicode="&#x137;" horiz-adv-x="495" 
d="M90 0zM190 232v-232h-100v650l100 15v-363h79l106 198h105l-128 -233l133 -267h-103l-113 232h-79zM230 -273l21 98q-27 3 -39 17.5t-12 48.5q0 38 15.5 53.5t52.5 15.5t52.5 -15.5t15.5 -53.5q0 -33 -7 -54.5t-25 -58.5l-31 -64z" />
    <glyph glyph-name="kgreenlandic" unicode="&#x138;" horiz-adv-x="510" 
d="M190 215v-215h-100v500h100v-215h94l106 215h105l-128 -250l133 -250h-103l-113 215h-94z" />
    <glyph glyph-name="l" unicode="l" horiz-adv-x="271" 
d="M231 69l-6 -68q-37 -11 -66 -11q-38 0 -56 18.5t-18 56.5v585l100 15v-591q20 -3 46 -5z" />
    <glyph glyph-name="lacute" unicode="&#x13a;" horiz-adv-x="271" 
d="M50 0zM231 69l-6 -68q-37 -11 -66 -11q-38 0 -56 18.5t-18 56.5v585l100 15v-591q20 -3 46 -5zM50 723l152 110q5 4 8 4q4 0 8 -5l43 -53q7 -8 7 -12q0 -5 -7 -11l-27 -22q-8 -6 -22 -10l-140 -35z" />
    <glyph glyph-name="lcaron" unicode="&#x13e;" horiz-adv-x="336" 
d="M85 0zM231 69l-6 -68q-37 -11 -66 -11q-38 0 -56 18.5t-18 56.5v585l100 15v-591q20 -3 46 -5zM250 467l21 98q-27 3 -39 17.5t-12 48.5q0 38 15.5 53.5t52.5 15.5t52.5 -15.5t15.5 -53.5q0 -33 -7 -54.5t-25 -58.5l-31 -64z" />
    <glyph glyph-name="lcommaaccent" unicode="&#x13c;" horiz-adv-x="271" 
d="M67 0zM231 69l-6 -68q-37 -11 -66 -11q-38 0 -56 18.5t-18 56.5v585l100 15v-591q20 -3 46 -5zM97 -273l21 98q-27 3 -39 17.5t-12 48.5q0 38 15.5 53.5t52.5 15.5t52.5 -15.5t15.5 -53.5q0 -33 -7 -54.5t-25 -58.5l-31 -64z" />
    <glyph glyph-name="ldot" unicode="&#x140;" horiz-adv-x="344" 
d="M85 0zM231 69l-6 -68q-37 -11 -66 -11q-38 0 -56 18.5t-18 56.5v585l100 15v-591q20 -3 46 -5zM247 388.5q13 15.5 52 15.5q38 0 51.5 -15.5t13.5 -53.5t-13 -53t-52 -15t-52 15t-13 53t13 53.5z" />
    <glyph glyph-name="lslash" unicode="&#x142;" horiz-adv-x="271" 
d="M261 349q0 -15 -17 -21l-59 -20v-234q20 -3 46 -5l-6 -68q-37 -11 -66 -11q-38 0 -56 18.5t-18 56.5v210l-61 -20l-9 27q-6 18 -6 29q0 15 17 21l59 20v298l100 15v-280l61 20l9 -27q6 -18 6 -29z" />
    <glyph glyph-name="m" unicode="m" horiz-adv-x="856" 
d="M735 488.5q36 -21.5 36 -63.5v-425h-100v428h-106q-44 0 -62 -9t-22 -33v-386h-100v428h-106q-49 0 -67 -12t-18 -46v-370h-100v500h46l27 -50q36 31 78.5 45.5t97.5 14.5q103 0 132 -46q65 46 158 46q70 0 106 -21.5z" />
    <glyph glyph-name="n" unicode="n" horiz-adv-x="576" 
d="M90 500h46l27 -50q38 31 83 45.5t103 14.5q70 0 106 -21.5t36 -63.5v-425h-100v428h-116q-49 0 -67 -12t-18 -46v-370h-100v500z" />
    <glyph glyph-name="nacute" unicode="&#x144;" horiz-adv-x="576" 
d="M90 0zM90 500h46l27 -50q38 31 83 45.5t103 14.5q70 0 106 -21.5t36 -63.5v-425h-100v428h-116q-49 0 -67 -12t-18 -46v-370h-100v500zM213 598l152 110q5 4 8 4q4 0 8 -5l43 -53q7 -8 7 -12q0 -5 -7 -11l-27 -22q-8 -6 -22 -10l-140 -35z" />
    <glyph glyph-name="ncaron" unicode="&#x148;" horiz-adv-x="576" 
d="M90 0zM90 500h46l27 -50q38 31 83 45.5t103 14.5q70 0 106 -21.5t36 -63.5v-425h-100v428h-116q-49 0 -67 -12t-18 -46v-370h-100v500zM298 648l83 64l35 -34l-99 -116q-5 -6 -10 -6h-18q-5 0 -10 6l-99 116l35 34z" />
    <glyph glyph-name="ncommaaccent" unicode="&#x146;" horiz-adv-x="576" 
d="M90 0zM90 500h46l27 -50q38 31 83 45.5t103 14.5q70 0 106 -21.5t36 -63.5v-425h-100v428h-116q-49 0 -67 -12t-18 -46v-370h-100v500zM250 -273l21 98q-27 3 -39 17.5t-12 48.5q0 38 15.5 53.5t52.5 15.5t52.5 -15.5t15.5 -53.5q0 -33 -7 -54.5t-25 -58.5l-31 -64z" />
    <glyph glyph-name="eng" unicode="&#x14b;" horiz-adv-x="576" 
d="M455 488.5q36 -21.5 36 -63.5v-485q0 -59 -30 -87t-94 -28q-41 0 -77 11l6 48q42 1 61.5 5.5t26.5 16.5t7 39v483h-116q-49 0 -67 -12t-18 -46v-370h-100v500h46l27 -50q38 31 83 45.5t103 14.5q70 0 106 -21.5z" />
    <glyph glyph-name="ntilde" unicode="&#xf1;" horiz-adv-x="576" 
d="M90 0zM90 500h46l27 -50q38 31 83 45.5t103 14.5q70 0 106 -21.5t36 -63.5v-425h-100v428h-116q-49 0 -67 -12t-18 -46v-370h-100v500zM292.5 571.5q-12.5 7.5 -43.5 35.5l-66 -33l-28 46q57 42 81.5 56t40.5 14q13 0 25 -7t45 -36l66 33l28 -46q-52 -40 -78.5 -55
t-43.5 -15q-14 0 -26.5 7.5z" />
    <glyph glyph-name="o" unicode="o" horiz-adv-x="554" 
d="M141.5 11.5q-45.5 21.5 -63.5 76.5t-18 162t18 162t63.5 76.5t135.5 21.5q91 0 136 -21.5t63 -76t18 -162.5q0 -107 -18 -162t-63.5 -76.5t-135.5 -21.5t-135.5 21.5zM342 72q29 0 38.5 5t9.5 20v331h-178q-29 0 -38.5 -5t-9.5 -20v-331h178z" />
    <glyph glyph-name="oacute" unicode="&#xf3;" horiz-adv-x="554" 
d="M60 0zM141.5 11.5q-45.5 21.5 -63.5 76.5t-18 162t18 162t63.5 76.5t135.5 21.5q91 0 136 -21.5t63 -76t18 -162.5q0 -107 -18 -162t-63.5 -76.5t-135.5 -21.5t-135.5 21.5zM342 72q29 0 38.5 5t9.5 20v331h-178q-29 0 -38.5 -5t-9.5 -20v-331h178zM192 598l152 110
q5 4 8 4q4 0 8 -5l43 -53q7 -8 7 -12q0 -5 -7 -11l-27 -22q-8 -6 -22 -10l-140 -35z" />
    <glyph glyph-name="obreve" unicode="&#x14f;" horiz-adv-x="554" 
d="M60 0zM141.5 11.5q-45.5 21.5 -63.5 76.5t-18 162t18 162t63.5 76.5t135.5 21.5q91 0 136 -21.5t63 -76t18 -162.5q0 -107 -18 -162t-63.5 -76.5t-135.5 -21.5t-135.5 21.5zM342 72q29 0 38.5 5t9.5 20v331h-178q-29 0 -38.5 -5t-9.5 -20v-331h178zM159 675l65 11
q6 -22 21 -34t32 -12t32 12t21 34l65 -11q-13 -54 -44 -81t-74 -27q-95 0 -118 108z" />
    <glyph glyph-name="ocircumflex" unicode="&#xf4;" horiz-adv-x="554" 
d="M60 0zM141.5 11.5q-45.5 21.5 -63.5 76.5t-18 162t18 162t63.5 76.5t135.5 21.5q91 0 136 -21.5t63 -76t18 -162.5q0 -107 -18 -162t-63.5 -76.5t-135.5 -21.5t-135.5 21.5zM342 72q29 0 38.5 5t9.5 20v331h-178q-29 0 -38.5 -5t-9.5 -20v-331h178zM159 590l99 116
q5 6 10 6h18q5 0 10 -6l99 -116l-35 -34l-83 64l-83 -64z" />
    <glyph glyph-name="odieresis" unicode="&#xf6;" horiz-adv-x="554" 
d="M60 0zM141.5 11.5q-45.5 21.5 -63.5 76.5t-18 162t18 162t63.5 76.5t135.5 21.5q91 0 136 -21.5t63 -76t18 -162.5q0 -107 -18 -162t-63.5 -76.5t-135.5 -21.5t-135.5 21.5zM342 72q29 0 38.5 5t9.5 20v331h-178q-29 0 -38.5 -5t-9.5 -20v-331h178zM144 587
q-10 12 -10 45t10 45.5t42 12.5q31 0 41 -12.5t10 -45.5t-10 -45t-41 -12q-32 0 -42 12zM327 587q-10 12 -10 45t10 45.5t42 12.5q31 0 41 -12.5t10 -45.5t-10 -45t-41 -12q-32 0 -42 12z" />
    <glyph glyph-name="ograve" unicode="&#xf2;" horiz-adv-x="554" 
d="M60 0zM141.5 11.5q-45.5 21.5 -63.5 76.5t-18 162t18 162t63.5 76.5t135.5 21.5q91 0 136 -21.5t63 -76t18 -162.5q0 -107 -18 -162t-63.5 -76.5t-135.5 -21.5t-135.5 21.5zM342 72q29 0 38.5 5t9.5 20v331h-178q-29 0 -38.5 -5t-9.5 -20v-331h178zM224 589q-14 4 -22 10
l-27 22q-7 6 -7 11q0 4 7 12l43 53q4 5 8 5q3 0 8 -4l152 -110l-22 -34z" />
    <glyph glyph-name="ohungarumlaut" unicode="&#x151;" horiz-adv-x="554" 
d="M60 0zM141.5 11.5q-45.5 21.5 -63.5 76.5t-18 162t18 162t63.5 76.5t135.5 21.5q91 0 136 -21.5t63 -76t18 -162.5q0 -107 -18 -162t-63.5 -76.5t-135.5 -21.5t-135.5 21.5zM342 72q29 0 38.5 5t9.5 20v331h-178q-29 0 -38.5 -5t-9.5 -20v-331h178zM87 603l133 105
q5 4 8 4q4 0 8 -5l44 -54q6 -8 6 -11q0 -4 -4 -8l-30 -25q-9 -7 -22 -10l-121 -30zM308 603l133 105q5 4 8 4q4 0 8 -5l44 -54q6 -8 6 -11q0 -4 -4 -8l-30 -25q-9 -7 -22 -10l-121 -30z" />
    <glyph glyph-name="omacron" unicode="&#x14d;" horiz-adv-x="554" 
d="M60 0zM141.5 11.5q-45.5 21.5 -63.5 76.5t-18 162t18 162t63.5 76.5t135.5 21.5q91 0 136 -21.5t63 -76t18 -162.5q0 -107 -18 -162t-63.5 -76.5t-135.5 -21.5t-135.5 21.5zM342 72q29 0 38.5 5t9.5 20v331h-178q-29 0 -38.5 -5t-9.5 -20v-331h178zM163 595.5
q-8 9.5 -8 36.5v35h199q29 0 36.5 -9t7.5 -36v-36h-198q-29 0 -37 9.5z" />
    <glyph glyph-name="oslash" unicode="&#xf8;" horiz-adv-x="554" 
d="M478.5 406q15.5 -54 15.5 -156q0 -107 -18 -162t-63.5 -76.5t-135.5 -21.5q-56 0 -91 7l-37 -75q-7 -15 -16 -20t-27 -5h-31l58 119q-41 25 -57 78.5t-16 155.5q0 107 18 162t63.5 76.5t135.5 21.5q56 0 92 -7l36 74q7 15 16 20t27 5h31l-57 -118q41 -24 56.5 -78z
M164 80l169 348h-121q-29 0 -38.5 -5t-9.5 -20v-323zM380.5 77q9.5 5 9.5 20v322l-168 -347h120q29 0 38.5 5z" />
    <glyph glyph-name="oslashacute" unicode="&#x1ff;" horiz-adv-x="554" 
d="M60 0zM478.5 406q15.5 -54 15.5 -156q0 -107 -18 -162t-63.5 -76.5t-135.5 -21.5q-56 0 -91 7l-37 -75q-7 -15 -16 -20t-27 -5h-31l58 119q-41 25 -57 78.5t-16 155.5q0 107 18 162t63.5 76.5t135.5 21.5q56 0 92 -7l36 74q7 15 16 20t27 5h31l-57 -118q41 -24 56.5 -78z
M164 80l169 348h-121q-29 0 -38.5 -5t-9.5 -20v-323zM380.5 77q9.5 5 9.5 20v322l-168 -347h120q29 0 38.5 5zM192 598l152 110q5 4 8 4q4 0 8 -5l43 -53q7 -8 7 -12q0 -5 -7 -11l-27 -22q-8 -6 -22 -10l-140 -35z" />
    <glyph glyph-name="otilde" unicode="&#xf5;" horiz-adv-x="554" 
d="M60 0zM141.5 11.5q-45.5 21.5 -63.5 76.5t-18 162t18 162t63.5 76.5t135.5 21.5q91 0 136 -21.5t63 -76t18 -162.5q0 -107 -18 -162t-63.5 -76.5t-135.5 -21.5t-135.5 21.5zM342 72q29 0 38.5 5t9.5 20v331h-178q-29 0 -38.5 -5t-9.5 -20v-331h178zM271.5 571.5
q-12.5 7.5 -43.5 35.5l-66 -33l-28 46q57 42 81.5 56t40.5 14q13 0 25 -7t45 -36l66 33l28 -46q-52 -40 -78.5 -55t-43.5 -15q-14 0 -26.5 7.5z" />
    <glyph glyph-name="oe" unicode="&#x153;" horiz-adv-x="869" 
d="M680 74.5q39 5.5 93 18.5l13 -73q-39 -14 -93 -22t-111 -8q-53 0 -87 11t-55 37q-23 -26 -62 -37t-101 -11q-90 0 -135.5 21.5t-63.5 76.5t-18 162t18 162t63.5 76.5t135.5 21.5q66 0 105.5 -11.5t61.5 -39.5q23 27 60.5 39t94.5 12q81 0 123.5 -13t59.5 -44.5t17 -92.5
q0 -73 -21 -105t-82.5 -43t-202.5 -11v-121q43 -11 107 -11q41 0 80 5.5zM390 428h-178q-29 0 -38.5 -5t-9.5 -20v-331h178q29 0 38.5 5t9.5 20v331zM510.5 416q-17.5 -12 -17.5 -46v-104h132q49 0 66.5 12t17.5 46v104h-133q-48 0 -65.5 -12z" />
    <glyph glyph-name="p" unicode="p" horiz-adv-x="569" 
d="M442 488.5q38 -21.5 52.5 -76t14.5 -162.5q0 -109 -15 -164.5t-53 -78t-112 -22.5q-50 0 -83 5.5t-56 18.5v-174l-100 -12v677h46l23 -42q21 30 60 41t110 11q75 0 113 -21.5zM404 428h-168q-26 0 -36 -4.5t-10 -15.5v-341h168q27 0 36.5 5t9.5 20v336z" />
    <glyph glyph-name="thorn" unicode="&#xfe;" horiz-adv-x="569" 
d="M442 488.5q38 -21.5 52.5 -76t14.5 -162.5q0 -109 -15 -164.5t-53 -78t-112 -22.5q-50 0 -83 5.5t-56 18.5v-174l-100 -12v827l100 15v-179q22 14 55 19t84 5q75 0 113 -21.5zM404 428h-168q-26 0 -36 -4.5t-10 -15.5v-341h168q27 0 36.5 5t9.5 20v336z" />
    <glyph glyph-name="q" unicode="q" horiz-adv-x="569" 
d="M479 500v-665l-100 -12v186q-23 -13 -56 -18.5t-83 -5.5q-74 0 -112 22.5t-53 78t-15 164.5q0 108 14.5 162.5t52.5 76t113 21.5q71 0 110 -11t60 -41l23 42h46zM369.5 72q9.5 5 9.5 20v336h-168q-26 0 -36 -4.5t-10 -15.5v-341h168q27 0 36.5 5z" />
    <glyph glyph-name="r" unicode="r" horiz-adv-x="334" 
d="M172 421q45 40 77 62t60 32l10 -98q-33 -10 -68.5 -27.5t-60.5 -36.5v-353h-100v500h47z" />
    <glyph glyph-name="racute" unicode="&#x155;" horiz-adv-x="334" 
d="M90 0zM172 421q45 40 77 62t60 32l10 -98q-33 -10 -68.5 -27.5t-60.5 -36.5v-353h-100v500h47zM112 598l152 110q5 4 8 4q4 0 8 -5l43 -53q7 -8 7 -12q0 -5 -7 -11l-27 -22q-8 -6 -22 -10l-140 -35z" />
    <glyph glyph-name="rcaron" unicode="&#x159;" horiz-adv-x="334" 
d="M79 0zM172 421q45 40 77 62t60 32l10 -98q-33 -10 -68.5 -27.5t-60.5 -36.5v-353h-100v500h47zM197 648l83 64l35 -34l-99 -116q-5 -6 -10 -6h-18q-5 0 -10 6l-99 116l35 34z" />
    <glyph glyph-name="rcommaaccent" unicode="&#x157;" horiz-adv-x="334" 
d="M72 0zM172 421q45 40 77 62t60 32l10 -98q-33 -10 -68.5 -27.5t-60.5 -36.5v-353h-100v500h47zM102 -273l21 98q-27 3 -39 17.5t-12 48.5q0 38 15.5 53.5t52.5 15.5t52.5 -15.5t15.5 -53.5q0 -33 -7 -54.5t-25 -58.5l-31 -64z" />
    <glyph glyph-name="s" unicode="s" horiz-adv-x="481" 
d="M101.5 479q45.5 36 143.5 36q87 0 166 -22l-14 -73q-25 7 -59 11.5t-63 4.5q-60 0 -114 -9v-118q120 -17 176.5 -34.5t77.5 -47t21 -86.5t-20.5 -91t-66.5 -49.5t-123 -15.5q-86 0 -181 29l16 80q77 -30 164 -30q30 0 53 3t53 11v118q-129 18 -184 35t-73 45.5t-18 89.5
q0 77 45.5 113z" />
    <glyph glyph-name="sacute" unicode="&#x15b;" horiz-adv-x="481" 
d="M45 0zM101.5 479q45.5 36 143.5 36q87 0 166 -22l-14 -73q-25 7 -59 11.5t-63 4.5q-60 0 -114 -9v-118q120 -17 176.5 -34.5t77.5 -47t21 -86.5t-20.5 -91t-66.5 -49.5t-123 -15.5q-86 0 -181 29l16 80q77 -30 164 -30q30 0 53 3t53 11v118q-129 18 -184 35t-73 45.5
t-18 89.5q0 77 45.5 113zM161 598l152 110q5 4 8 4q4 0 8 -5l43 -53q7 -8 7 -12q0 -5 -7 -11l-27 -22q-8 -6 -22 -10l-140 -35z" />
    <glyph glyph-name="scaron" unicode="&#x161;" horiz-adv-x="481" 
d="M45 0zM101.5 479q45.5 36 143.5 36q87 0 166 -22l-14 -73q-25 7 -59 11.5t-63 4.5q-60 0 -114 -9v-118q120 -17 176.5 -34.5t77.5 -47t21 -86.5t-20.5 -91t-66.5 -49.5t-123 -15.5q-86 0 -181 29l16 80q77 -30 164 -30q30 0 53 3t53 11v118q-129 18 -184 35t-73 45.5
t-18 89.5q0 77 45.5 113zM246 648l83 64l35 -34l-99 -116q-5 -6 -10 -6h-18q-5 0 -10 6l-99 116l35 34z" />
    <glyph glyph-name="scedilla" unicode="&#x15f;" horiz-adv-x="481" 
d="M399.5 30q-36.5 -36 -122.5 -43q23 -36 23 -78q0 -37 -26 -59t-70 -22q-33 0 -68 16l7 49h35q24 0 33.5 7t9.5 25v60q-84 1 -176 29l16 80q77 -30 164 -30q30 0 53 3t53 11v118q-129 18 -184 35t-73 45.5t-18 89.5q0 77 45.5 113t143.5 36q87 0 166 -22l-14 -73
q-25 7 -59 11.5t-63 4.5q-60 0 -114 -9v-118q120 -17 176.5 -34.5t77.5 -47t21 -86.5q0 -75 -36.5 -111z" />
    <glyph glyph-name="scircumflex" unicode="&#x15d;" horiz-adv-x="481" 
d="M45 0zM101.5 479q45.5 36 143.5 36q87 0 166 -22l-14 -73q-25 7 -59 11.5t-63 4.5q-60 0 -114 -9v-118q120 -17 176.5 -34.5t77.5 -47t21 -86.5t-20.5 -91t-66.5 -49.5t-123 -15.5q-86 0 -181 29l16 80q77 -30 164 -30q30 0 53 3t53 11v118q-129 18 -184 35t-73 45.5
t-18 89.5q0 77 45.5 113zM128 590l99 116q5 6 10 6h18q5 0 10 -6l99 -116l-35 -34l-83 64l-83 -64z" />
    <glyph glyph-name="scommaaccent" unicode="&#x219;" horiz-adv-x="481" 
d="M45 0zM101.5 479q45.5 36 143.5 36q87 0 166 -22l-14 -73q-25 7 -59 11.5t-63 4.5q-60 0 -114 -9v-118q120 -17 176.5 -34.5t77.5 -47t21 -86.5t-20.5 -91t-66.5 -49.5t-123 -15.5q-86 0 -181 29l16 80q77 -30 164 -30q30 0 53 3t53 11v118q-129 18 -184 35t-73 45.5
t-18 89.5q0 77 45.5 113zM203 -273l21 98q-27 3 -39 17.5t-12 48.5q0 38 15.5 53.5t52.5 15.5t52.5 -15.5t15.5 -53.5q0 -33 -7 -54.5t-25 -58.5l-31 -64z" />
    <glyph glyph-name="germandbls" unicode="&#xdf;" horiz-adv-x="630" 
d="M258 8l16 80q32 -11 68 -17.5t68 -6.5q51 0 75 7v125q-77 35 -109 53t-43 31.5t-11 34.5t10.5 38.5t32.5 43.5q27 30 41 55.5t14 58.5q0 44 -29.5 64.5t-90.5 20.5q-36 0 -80 -8v-588h-100v431h-70v69h70q5 65 25.5 103t60.5 55t106 17q106 0 157 -37t51 -113
q0 -45 -24 -89t-86 -112q71 -31 108 -57t52 -56t15 -75q0 -79 -44.5 -115t-140.5 -36q-67 0 -142 23z" />
    <glyph glyph-name="t" unicode="t" horiz-adv-x="354" 
d="M220 431v-357q36 -4 71 -5l-6 -68q-56 -11 -91 -11q-38 0 -56 18.5t-18 56.5v366h-70v69h70v107l100 25v-132h89v-69h-89z" />
    <glyph glyph-name="tbar" unicode="&#x167;" horiz-adv-x="354" 
d="M220 431v-136h82v-29q0 -25 -7.5 -33t-33.5 -8h-41v-151q36 -4 71 -5l-6 -68q-56 -11 -91 -11q-38 0 -56 18.5t-18 56.5v160h-82v28q0 25 8 33.5t33 8.5h41v136h-70v69h70v107l100 25v-132h89v-69h-89z" />
    <glyph glyph-name="tcaron" unicode="&#x165;" horiz-adv-x="420" 
d="M50 0zM220 431v-357q36 -4 71 -5l-6 -68q-56 -11 -91 -11q-38 0 -56 18.5t-18 56.5v366h-70v69h70v107l100 25v-132h89v-69h-89zM334 467l21 98q-27 3 -39 17.5t-12 48.5q0 38 15.5 53.5t52.5 15.5t52.5 -15.5t15.5 -53.5q0 -33 -7 -54.5t-25 -58.5l-31 -64z" />
    <glyph glyph-name="uni0163" unicode="&#x163;" horiz-adv-x="354" 
d="M220 431v-357q36 -4 71 -5l-6 -68q-43 -8 -74 -10q25 -38 25 -82q0 -37 -26 -59t-70 -22q-33 0 -68 16l7 49h35q24 0 33.5 7t9.5 25v71q-37 15 -37 69v366h-70v69h70v107l100 25v-132h89v-69h-89z" />
    <glyph glyph-name="uni021B" unicode="&#x21b;" horiz-adv-x="354" 
d="M50 0zM220 431v-357q36 -4 71 -5l-6 -68q-56 -11 -91 -11q-38 0 -56 18.5t-18 56.5v366h-70v69h70v107l100 25v-132h89v-69h-89zM139 -273l21 98q-27 3 -39 17.5t-12 48.5q0 38 15.5 53.5t52.5 15.5t52.5 -15.5t15.5 -53.5q0 -33 -7 -54.5t-25 -58.5l-31 -64z" />
    <glyph glyph-name="u" unicode="u" horiz-adv-x="576" 
d="M486 0h-46l-27 50q-40 -31 -87.5 -45.5t-108.5 -14.5q-68 0 -100 25.5t-32 79.5v405h100v-433h116q49 0 67 12t18 46v375h100v-500z" />
    <glyph glyph-name="uacute" unicode="&#xfa;" horiz-adv-x="576" 
d="M85 0zM486 0h-46l-27 50q-40 -31 -87.5 -45.5t-108.5 -14.5q-68 0 -100 25.5t-32 79.5v405h100v-433h116q49 0 67 12t18 46v375h100v-500zM203 598l152 110q5 4 8 4q4 0 8 -5l43 -53q7 -8 7 -12q0 -5 -7 -11l-27 -22q-8 -6 -22 -10l-140 -35z" />
    <glyph glyph-name="ubreve" unicode="&#x16d;" horiz-adv-x="576" 
d="M85 0zM486 0h-46l-27 50q-40 -31 -87.5 -45.5t-108.5 -14.5q-68 0 -100 25.5t-32 79.5v405h100v-433h116q49 0 67 12t18 46v375h100v-500zM170 675l65 11q6 -22 21 -34t32 -12t32 12t21 34l65 -11q-13 -54 -44 -81t-74 -27q-95 0 -118 108z" />
    <glyph glyph-name="ucircumflex" unicode="&#xfb;" horiz-adv-x="576" 
d="M85 0zM486 0h-46l-27 50q-40 -31 -87.5 -45.5t-108.5 -14.5q-68 0 -100 25.5t-32 79.5v405h100v-433h116q49 0 67 12t18 46v375h100v-500zM170 590l99 116q5 6 10 6h18q5 0 10 -6l99 -116l-35 -34l-83 64l-83 -64z" />
    <glyph glyph-name="udieresis" unicode="&#xfc;" horiz-adv-x="576" 
d="M85 0zM486 0h-46l-27 50q-40 -31 -87.5 -45.5t-108.5 -14.5q-68 0 -100 25.5t-32 79.5v405h100v-433h116q49 0 67 12t18 46v375h100v-500zM155 587q-10 12 -10 45t10 45.5t42 12.5q31 0 41 -12.5t10 -45.5t-10 -45t-41 -12q-32 0 -42 12zM338 587q-10 12 -10 45t10 45.5
t42 12.5q31 0 41 -12.5t10 -45.5t-10 -45t-41 -12q-32 0 -42 12z" />
    <glyph glyph-name="ugrave" unicode="&#xf9;" horiz-adv-x="576" 
d="M85 0zM486 0h-46l-27 50q-40 -31 -87.5 -45.5t-108.5 -14.5q-68 0 -100 25.5t-32 79.5v405h100v-433h116q49 0 67 12t18 46v375h100v-500zM235 589q-14 4 -22 10l-27 22q-7 6 -7 11q0 4 7 12l43 53q4 5 8 5q3 0 8 -4l152 -110l-22 -34z" />
    <glyph glyph-name="uhungarumlaut" unicode="&#x171;" horiz-adv-x="576" 
d="M85 0zM486 0h-46l-27 50q-40 -31 -87.5 -45.5t-108.5 -14.5q-68 0 -100 25.5t-32 79.5v405h100v-433h116q49 0 67 12t18 46v375h100v-500zM98 603l133 105q5 4 8 4q4 0 8 -5l44 -54q6 -8 6 -11q0 -4 -4 -8l-30 -25q-9 -7 -22 -10l-121 -30zM319 603l133 105q5 4 8 4
q4 0 8 -5l44 -54q6 -8 6 -11q0 -4 -4 -8l-30 -25q-9 -7 -22 -10l-121 -30z" />
    <glyph glyph-name="umacron" unicode="&#x16b;" horiz-adv-x="576" 
d="M85 0zM486 0h-46l-27 50q-40 -31 -87.5 -45.5t-108.5 -14.5q-68 0 -100 25.5t-32 79.5v405h100v-433h116q49 0 67 12t18 46v375h100v-500zM174 595.5q-8 9.5 -8 36.5v35h199q29 0 36.5 -9t7.5 -36v-36h-198q-29 0 -37 9.5z" />
    <glyph glyph-name="uogonek" unicode="&#x173;" horiz-adv-x="576" 
d="M509 -155q-39 -17 -76 -17q-42 0 -66.5 24t-24.5 65q0 32 24.5 58t65.5 39l-19 36q-40 -31 -87.5 -45.5t-108.5 -14.5q-68 0 -100 25.5t-32 79.5v405h100v-433h116q49 0 67 12t18 46v375h100v-500h-1l-20 -4q-27 -7 -35.5 -16t-8.5 -32v-21q0 -34 29 -34h51z" />
    <glyph glyph-name="uring" unicode="&#x16f;" horiz-adv-x="576" 
d="M85 0zM486 0h-46l-27 50q-40 -31 -87.5 -45.5t-108.5 -14.5q-68 0 -100 25.5t-32 79.5v405h100v-433h116q49 0 67 12t18 46v375h100v-500zM212.5 563.5q-23.5 24.5 -23.5 74.5t23.5 74t75.5 24t75 -24t23 -74t-23 -74.5t-75 -24.5t-75.5 24.5zM287 591q22 0 32 4.5
t10 21.5v67h-39q-24 0 -34.5 -4.5t-10.5 -20.5v-68h42z" />
    <glyph glyph-name="utilde" unicode="&#x169;" horiz-adv-x="576" 
d="M85 0zM486 0h-46l-27 50q-40 -31 -87.5 -45.5t-108.5 -14.5q-68 0 -100 25.5t-32 79.5v405h100v-433h116q49 0 67 12t18 46v375h100v-500zM282.5 571.5q-12.5 7.5 -43.5 35.5l-66 -33l-28 46q57 42 81.5 56t40.5 14q13 0 25 -7t45 -36l66 33l28 -46q-52 -40 -78.5 -55
t-43.5 -15q-14 0 -26.5 7.5z" />
    <glyph glyph-name="v" unicode="v" horiz-adv-x="460" 
d="M105 500l120 -415h10l120 415h99l-148 -500h-152l-148 500h99z" />
    <glyph glyph-name="w" unicode="w" horiz-adv-x="702" 
d="M696 500l-123 -500h-138l-84 356l-84 -356h-138l-123 500h99l95 -415h10l95 415h92l95 -415h10l95 415h99z" />
    <glyph glyph-name="wacute" unicode="&#x1e83;" horiz-adv-x="702" 
d="M6 0zM696 500l-123 -500h-138l-84 356l-84 -356h-138l-123 500h99l95 -415h10l95 415h92l95 -415h10l95 415h99zM266 598l152 110q5 4 8 4q4 0 8 -5l43 -53q7 -8 7 -12q0 -5 -7 -11l-27 -22q-8 -6 -22 -10l-140 -35z" />
    <glyph glyph-name="wcircumflex" unicode="&#x175;" horiz-adv-x="702" 
d="M6 0zM696 500l-123 -500h-138l-84 356l-84 -356h-138l-123 500h99l95 -415h10l95 415h92l95 -415h10l95 415h99zM233 590l99 116q5 6 10 6h18q5 0 10 -6l99 -116l-35 -34l-83 64l-83 -64z" />
    <glyph glyph-name="wdieresis" unicode="&#x1e85;" horiz-adv-x="702" 
d="M6 0zM696 500l-123 -500h-138l-84 356l-84 -356h-138l-123 500h99l95 -415h10l95 415h92l95 -415h10l95 415h99zM218 587q-10 12 -10 45t10 45.5t42 12.5q31 0 41 -12.5t10 -45.5t-10 -45t-41 -12q-32 0 -42 12zM401 587q-10 12 -10 45t10 45.5t42 12.5q31 0 41 -12.5
t10 -45.5t-10 -45t-41 -12q-32 0 -42 12z" />
    <glyph glyph-name="wgrave" unicode="&#x1e81;" horiz-adv-x="702" 
d="M6 0zM696 500l-123 -500h-138l-84 356l-84 -356h-138l-123 500h99l95 -415h10l95 415h92l95 -415h10l95 415h99zM298 589q-14 4 -22 10l-27 22q-7 6 -7 11q0 4 7 12l43 53q4 5 8 5q3 0 8 -4l152 -110l-22 -34z" />
    <glyph glyph-name="x" unicode="x" horiz-adv-x="506" 
d="M373 0l-125 183l-116 -183h-106l169 260l-164 240h107l120 -176l111 176h106l-165 -252l170 -248h-107z" />
    <glyph glyph-name="y" unicode="y" horiz-adv-x="450" 
d="M444 500l-143 -470q-24 -79 -51 -123t-64 -63t-93 -19q-49 0 -87 11l4 53l69 9q39 5 59.5 14.5t33.5 29.5t24 58l9 30h-56l-143 470h99l115 -385h10l115 385h99z" />
    <glyph glyph-name="yacute" unicode="&#xfd;" horiz-adv-x="450" 
d="M6 0zM444 500l-143 -470q-24 -79 -51 -123t-64 -63t-93 -19q-49 0 -87 11l4 53l69 9q39 5 59.5 14.5t33.5 29.5t24 58l9 30h-56l-143 470h99l115 -385h10l115 385h99zM140 598l152 110q5 4 8 4q4 0 8 -5l43 -53q7 -8 7 -12q0 -5 -7 -11l-27 -22q-8 -6 -22 -10l-140 -35z
" />
    <glyph glyph-name="ycircumflex" unicode="&#x177;" horiz-adv-x="450" 
d="M6 0zM444 500l-143 -470q-24 -79 -51 -123t-64 -63t-93 -19q-49 0 -87 11l4 53l69 9q39 5 59.5 14.5t33.5 29.5t24 58l9 30h-56l-143 470h99l115 -385h10l115 385h99zM107 590l99 116q5 6 10 6h18q5 0 10 -6l99 -116l-35 -34l-83 64l-83 -64z" />
    <glyph glyph-name="ydieresis" unicode="&#xff;" horiz-adv-x="450" 
d="M6 0zM444 500l-143 -470q-24 -79 -51 -123t-64 -63t-93 -19q-49 0 -87 11l4 53l69 9q39 5 59.5 14.5t33.5 29.5t24 58l9 30h-56l-143 470h99l115 -385h10l115 385h99zM92 587q-10 12 -10 45t10 45.5t42 12.5q31 0 41 -12.5t10 -45.5t-10 -45t-41 -12q-32 0 -42 12z
M275 587q-10 12 -10 45t10 45.5t42 12.5q31 0 41 -12.5t10 -45.5t-10 -45t-41 -12q-32 0 -42 12z" />
    <glyph glyph-name="ygrave" unicode="&#x1ef3;" horiz-adv-x="450" 
d="M6 0zM444 500l-143 -470q-24 -79 -51 -123t-64 -63t-93 -19q-49 0 -87 11l4 53l69 9q39 5 59.5 14.5t33.5 29.5t24 58l9 30h-56l-143 470h99l115 -385h10l115 385h99zM172 589q-14 4 -22 10l-27 22q-7 6 -7 11q0 4 7 12l43 53q4 5 8 5q3 0 8 -4l152 -110l-22 -34z" />
    <glyph glyph-name="z" unicode="z" horiz-adv-x="473" 
d="M305 428h-237l-8 72h373v-55l-269 -367l3 -6h261v-72h-388v55l269 367z" />
    <glyph glyph-name="zacute" unicode="&#x17a;" horiz-adv-x="473" 
d="M40 0zM305 428h-237l-8 72h373v-55l-269 -367l3 -6h261v-72h-388v55l269 367zM172 598l152 110q5 4 8 4q4 0 8 -5l43 -53q7 -8 7 -12q0 -5 -7 -11l-27 -22q-8 -6 -22 -10l-140 -35z" />
    <glyph glyph-name="zcaron" unicode="&#x17e;" horiz-adv-x="473" 
d="M40 0zM305 428h-237l-8 72h373v-55l-269 -367l3 -6h261v-72h-388v55l269 367zM257 648l83 64l35 -34l-99 -116q-5 -6 -10 -6h-18q-5 0 -10 6l-99 116l35 34z" />
    <glyph glyph-name="zdotaccent" unicode="&#x17c;" horiz-adv-x="473" 
d="M40 0zM305 428h-237l-8 72h373v-55l-269 -367l3 -6h261v-72h-388v55l269 367zM208.5 599.5q-12.5 12.5 -12.5 47.5q0 36 13 49t49 13q35 0 47.5 -13t12.5 -49q0 -35 -12 -47.5t-48 -12.5q-37 0 -49.5 12.5z" />
    <glyph glyph-name="ordfeminine" unicode="&#xaa;" horiz-adv-x="396" 
d="M319.5 721.5q33.5 -25.5 33.5 -86.5l-1 -285h-40l-23 39q-56 -47 -139 -47q-65 0 -93.5 27.5t-28.5 90.5q0 54 16 78.5t62 33t148 8.5h12v93q-29 7 -75 7q-55 0 -134 -18l-11 62q31 10 74.5 16.5t84.5 6.5q81 0 114.5 -25.5zM253 416q13 9 13 34v81h-97q-36 0 -49.5 -9.5
t-13.5 -34.5v-80h98q36 0 49 9zM54 280.5q9 8.5 36 8.5h245v-29q0 -26 -8.5 -33.5t-36.5 -7.5h-245v28q0 25 9 33.5z" />
    <glyph glyph-name="ordmasculine" unicode="&#xba;" horiz-adv-x="500" 
d="M138 370q-38 18 -53 61.5t-15 128.5t15 128.5t53 61.5t112 18q75 0 112.5 -17.5t52.5 -61t15 -129.5q0 -85 -15 -129t-53 -61.5t-112 -17.5t-112 18zM302 422q23 0 31 4t8 16v256h-143q-23 0 -31 -4t-8 -16v-256h143zM102 281.5q10 8.5 39 8.5h268v-29q0 -25 -9.5 -33
t-39.5 -8h-268v28q0 25 10 33.5z" />
    <glyph glyph-name="uni0394" unicode="&#x394;" horiz-adv-x="663" 
d="M50 0zM613 52l-19 -52h-525l-19 52l221 573h122zM482 103q0 9 -2 14l-152 397h-15l-167 -434h307q29 0 29 23z" />
    <glyph glyph-name="uni03A9" unicode="&#x3a9;" horiz-adv-x="666" 
d="M166 273q0 -38 10.5 -56.5t28.5 -24t48 -5.5l-15 -187h-193v63l130 8l6 68q-51 11 -76.5 34t-35.5 69t-10 133q0 112 23 167.5t80.5 76.5t170.5 21t170.5 -21t80.5 -76.5t23 -167.5q0 -87 -10 -133t-35.5 -69t-76.5 -34l6 -68l130 -8v-63h-193l-15 187h87v313
q0 40 -17.5 51.5t-56.5 11.5h-260v-290z" />
    <glyph glyph-name="pi" unicode="&#x3c0;" horiz-adv-x="617" 
d="M497 77q34 -4 46 -5l-6 -68q-43 -11 -66 -11q-38 0 -56 18.5t-18 56.5v347h-117q-46 0 -51 -38l-59 -377h-72l30 421l-48 12v67h392q5 14 6 36l77 -7q0 -45 -4.5 -67.5t-16.5 -33t-37 -12.5v-339z" />
    <glyph glyph-name="uni0621" unicode="&#x621;" horiz-adv-x="423" 
d="M403 206v-85l-383 -103v85l100 27q-29 44 -29 133q0 122 64 177t207 55v-90q-52 0 -102 -11t-84 -30v-152q0 -28 8 -40.5t28 -12.5q17 0 41 7z" />
    <glyph glyph-name="uni0627" unicode="&#x627;" horiz-adv-x="280" 
d="M100 630h80v-630h-80v630z" />
    <glyph glyph-name="uni0627.short" horiz-adv-x="280" 
d="M100 470h80v-470h-80v470z" />
    <glyph glyph-name="uniFE8E.short" horiz-adv-x="280" 
d="M100 470h80v-380h120v-90h-200v470z" />
    <glyph glyph-name="uni0623" unicode="&#x623;" horiz-adv-x="280" 
d="M26 0zM100 470h80v-470h-80v470zM254 685v-46l-228 -61v46l44 12q-12 26 -12 74q0 78 44 109t128 31v-56q-29 0 -58 -6t-49 -18l-1 -88q0 -13 5 -18.5t16 -5.5q12 0 25 4z" />
    <glyph glyph-name="uni0625" unicode="&#x625;" horiz-adv-x="280" 
d="M26 0zM100 630h80v-630h-80v630zM254 -244v-46l-228 -61v46l44 12q-12 25 -12 74q0 78 44 109t128 31v-56q-29 0 -58 -6t-49 -18l-1 -88q0 -13 5 -18.5t16 -5.5q12 0 25 4z" />
    <glyph glyph-name="uni0622" unicode="&#x622;" horiz-adv-x="280" 
d="M24 0zM100 470h80v-470h-80v470zM133 618q-10 7 -36 33l-59 -27l-14 28q45 32 64.5 43t32.5 11q11 0 19.5 -6.5t38.5 -34.5l59 27l14 -28q-40 -30 -61 -41.5t-35 -11.5q-13 0 -23 7z" />
    <glyph glyph-name="uni0671" unicode="&#x671;" horiz-adv-x="280" 
d="M0 0zM100 470h80v-470h-80v470zM247 803q23 -17 23 -58v-155h-287v45h30q3 88 42 136.5t112 48.5q57 0 80 -17zM210 635v134q-14 5 -43 5q-47 0 -69.5 -33.5t-24.5 -105.5h137z" />
    <glyph glyph-name="uni066E" unicode="&#x66e;" horiz-adv-x="884" 
d="M127.5 20q-30.5 20 -44 64.5t-13.5 121.5q0 45 7.5 94.5t20.5 83.5l76 -13q-24 -81 -24 -149q0 -83 16 -132h538v380h80v-470h-574q-52 0 -82.5 20z" />
    <glyph glyph-name="uni0628" unicode="&#x628;" horiz-adv-x="884" 
d="M70 0zM127.5 20q-30.5 20 -44 64.5t-13.5 121.5q0 45 7.5 94.5t20.5 83.5l76 -13q-24 -81 -24 -149q0 -83 16 -132h538v380h80v-470h-574q-52 0 -82.5 20zM404 -181q-20 20 -20 36t19.5 35t35.5 20q16 -1 35.5 -20t19.5 -35q0 -15 -20 -35.5t-35 -19.5q-15 -1 -35 19z
" />
    <glyph glyph-name="uni067E" unicode="&#x67e;" horiz-adv-x="884" 
d="M70 0zM127.5 20q-30.5 20 -44 64.5t-13.5 121.5q0 45 7.5 94.5t20.5 83.5l76 -13q-24 -81 -24 -149q0 -83 16 -132h538v380h80v-470h-574q-52 0 -82.5 20zM311 -90zM403 -331q-20 20 -20 36t19.5 35t35.5 20q16 -1 35.5 -20t19.5 -35q0 -15 -20 -35.5t-35 -19.5
q-15 -1 -35 19zM331 -181q-20 20 -20 36t19.5 35t35.5 20q16 -1 35.5 -20t19.5 -35q0 -15 -20 -35.5t-35 -19.5q-15 -1 -35 19zM475 -181q-20 20 -20 36t19.5 35t35.5 20q16 -1 35.5 -20t19.5 -35q0 -15 -20 -35.5t-35 -19.5q-15 -1 -35 19z" />
    <glyph glyph-name="uni062A" unicode="&#x62a;" horiz-adv-x="884" 
d="M70 0zM127.5 20q-30.5 20 -44 64.5t-13.5 121.5q0 45 7.5 94.5t20.5 83.5l76 -13q-24 -81 -24 -149q0 -83 16 -132h538v380h80v-470h-574q-52 0 -82.5 20zM332 509q-20 20 -20 36t19.5 35t35.5 20q16 -1 35.5 -20t19.5 -35q0 -15 -20 -35.5t-35 -19.5q-15 -1 -35 19z
M476 509q-20 20 -20 36t19.5 35t35.5 20q16 -1 35.5 -20t19.5 -35q0 -15 -20 -35.5t-35 -19.5q-15 -1 -35 19z" />
    <glyph glyph-name="uni062B" unicode="&#x62b;" horiz-adv-x="884" 
d="M70 0zM127.5 20q-30.5 20 -44 64.5t-13.5 121.5q0 45 7.5 94.5t20.5 83.5l76 -13q-24 -81 -24 -149q0 -83 16 -132h538v380h80v-470h-574q-52 0 -82.5 20zM332 509q-20 20 -20 36t19.5 35t35.5 20q16 -1 35.5 -20t19.5 -35q0 -15 -20 -35.5t-35 -19.5q-15 -1 -35 19z
M476 509q-20 20 -20 36t19.5 35t35.5 20q16 -1 35.5 -20t19.5 -35q0 -15 -20 -35.5t-35 -19.5q-15 -1 -35 19zM404 659q-20 20 -20 36t19.5 35t35.5 20q16 -1 35.5 -20t19.5 -35q0 -15 -20 -35.5t-35 -19.5q-15 -1 -35 19z" />
    <glyph glyph-name="uni0679" unicode="&#x679;" horiz-adv-x="884" 
d="M70 0zM127.5 20q-30.5 20 -44 64.5t-13.5 121.5q0 45 7.5 94.5t20.5 83.5l76 -13q-24 -81 -24 -149q0 -83 16 -132h538v380h80v-470h-574q-52 0 -82.5 20zM551.5 683.5q17.5 -16.5 17.5 -58.5v-135h-287v45h30v228h60v-120q18 28 46 42.5t71 14.5q45 0 62.5 -16.5z
M509 535v111q-18 8 -43 8q-47 0 -70 -29t-24 -90h137z" />
    <glyph glyph-name="uni062C" unicode="&#x62c;" horiz-adv-x="555" 
d="M555 168q-155 0 -246 -16.5t-132 -53.5t-41 -99v-177q51 -9 141 -9q37 0 74.5 5t94.5 17l12 -84q-37 -13 -92 -20.5t-117 -7.5q-84 0 -125.5 18t-57 64.5t-15.5 142.5q0 99 35.5 161.5t112.5 95t206 40.5l-5 12q-32 68 -93 100.5t-157 32.5q-50 0 -83 -4l-13 88
q59 6 106 6q136 0 215 -54t124 -178h56v-80zM272.5 22q19.5 19 35.5 20q16 -1 35.5 -20t19.5 -35q0 -15 -20 -35.5t-35 -19.5q-15 -1 -35 19t-20 36t19.5 35z" />
    <glyph glyph-name="uni0686" unicode="&#x686;" horiz-adv-x="549" 
d="M555 248v-80q-155 0 -246 -16.5t-132 -53.5t-41 -99v-177q35 -7 70 -7q39 0 101 8l12 -84q-59 -14 -103 -14q-67 0 -102.5 21t-49 68.5t-13.5 133.5q0 99 35.5 161.5t112.5 95t206 40.5l-5 12q-32 68 -93 100.5t-157 32.5q-50 0 -83 -4l-13 88q59 6 106 6q136 0 215 -54
t124 -178h56zM340.5 42q19.5 -19 19.5 -35q0 -15 -20 -35.5t-35 -19.5q-15 -1 -35 19t-20 36t19.5 35t35.5 20q16 -1 35.5 -20zM484.5 42q19.5 -19 19.5 -35q0 -15 -20 -35.5t-35 -19.5q-15 -1 -35 19t-20 36t19.5 35t35.5 20q16 -1 35.5 -20zM412.5 -108q19.5 -19 19.5 -35
q0 -15 -20 -35.5t-35 -19.5q-15 -1 -35 19t-20 36t19.5 35t35.5 20q16 -1 35.5 -20z" />
    <glyph glyph-name="uni062D" unicode="&#x62d;" horiz-adv-x="555" 
d="M309 151.5q-91 -16.5 -132 -53.5t-41 -99v-177q51 -9 141 -9q37 0 74.5 5t94.5 17l12 -84q-37 -13 -92 -20.5t-117 -7.5q-84 0 -125.5 18t-57 64.5t-15.5 142.5q0 99 35.5 161.5t112.5 95t206 40.5l-5 12q-32 68 -93 100.5t-157 32.5q-50 0 -83 -4l-13 88q59 6 106 6
q136 0 215 -54t124 -178h56v-80q-155 0 -246 -16.5z" />
    <glyph glyph-name="uni062E" unicode="&#x62e;" horiz-adv-x="555" 
d="M51 0zM309 151.5q-91 -16.5 -132 -53.5t-41 -99v-177q51 -9 141 -9q37 0 74.5 5t94.5 17l12 -84q-37 -13 -92 -20.5t-117 -7.5q-84 0 -125.5 18t-57 64.5t-15.5 142.5q0 99 35.5 161.5t112.5 95t206 40.5l-5 12q-32 68 -93 100.5t-157 32.5q-50 0 -83 -4l-13 88
q59 6 106 6q136 0 215 -54t124 -178h56v-80q-155 0 -246 -16.5zM244 632q-20 20 -20 36t19.5 35t35.5 20q16 -1 35.5 -20t19.5 -35q0 -15 -20 -35.5t-35 -19.5q-15 -1 -35 19z" />
    <glyph glyph-name="uni062F" unicode="&#x62f;" horiz-adv-x="513" 
d="M20 90h347q-38 137 -66 200.5t-62 87t-93 23.5q-38 0 -76 -10l-22 88q51 12 98 12q94 0 140 -26.5t82.5 -109.5t94.5 -285v-70h-443v90z" />
    <glyph glyph-name="uni0630" unicode="&#x630;" horiz-adv-x="513" 
d="M20 0zM20 90h347q-38 137 -66 200.5t-62 87t-93 23.5q-38 0 -76 -10l-22 88q51 12 98 12q94 0 140 -26.5t82.5 -109.5t94.5 -285v-70h-443v90zM140 609q-20 20 -20 36t19.5 35t35.5 20q16 -1 35.5 -20t19.5 -35q0 -15 -20 -35.5t-35 -19.5q-15 -1 -35 19z" />
    <glyph glyph-name="uni0688" unicode="&#x688;" horiz-adv-x="513" 
d="M18 0zM20 90h347q-38 137 -66 200.5t-62 87t-93 23.5q-38 0 -76 -10l-22 88q51 12 98 12q94 0 140 -26.5t82.5 -109.5t94.5 -285v-70h-443v90zM287.5 783.5q17.5 -16.5 17.5 -58.5v-135h-287v45h30v228h60v-120q18 28 46 42.5t71 14.5q45 0 62.5 -16.5zM245 635v111
q-18 8 -43 8q-47 0 -70 -29t-24 -90h137z" />
    <glyph glyph-name="uni0631" unicode="&#x631;" horiz-adv-x="311" 
d="M28 -189q58 28 80.5 69.5t22.5 119.5v470h80v-470q0 -99 -35 -160t-114 -99z" />
    <glyph glyph-name="uni0632" unicode="&#x632;" horiz-adv-x="311" 
d="M28 0zM28 -189q58 28 80.5 69.5t22.5 119.5v470h80v-470q0 -99 -35 -160t-114 -99zM136 609q-20 20 -20 36t19.5 35t35.5 20q16 -1 35.5 -20t19.5 -35q0 -15 -20 -35.5t-35 -19.5q-15 -1 -35 19z" />
    <glyph glyph-name="uni0691" unicode="&#x691;" horiz-adv-x="311" 
d="M14 0zM28 -189q58 28 80.5 69.5t22.5 119.5v470h80v-470q0 -99 -35 -160t-114 -99zM283.5 783.5q17.5 -16.5 17.5 -58.5v-135h-287v45h30v228h60v-120q18 28 46 42.5t71 14.5q45 0 62.5 -16.5zM241 635v111q-18 8 -43 8q-47 0 -70 -29t-24 -90h137z" />
    <glyph glyph-name="uni0698" unicode="&#x698;" horiz-adv-x="311" 
d="M28 0zM28 -189q58 28 80.5 69.5t22.5 119.5v470h80v-470q0 -99 -35 -160t-114 -99zM64 609q-20 20 -20 36t19.5 35t35.5 20q16 -1 35.5 -20t19.5 -35q0 -15 -20 -35.5t-35 -19.5q-15 -1 -35 19zM208 609q-20 20 -20 36t19.5 35t35.5 20q16 -1 35.5 -20t19.5 -35
q0 -15 -20 -35.5t-35 -19.5q-15 -1 -35 19zM136 759q-20 20 -20 36t19.5 35t35.5 20q16 -1 35.5 -20t19.5 -35q0 -15 -20 -35.5t-35 -19.5q-15 -1 -35 19z" />
    <glyph glyph-name="uni0633" unicode="&#x633;" horiz-adv-x="1257" 
d="M1159 365.5q8 -61.5 8 -106.5q0 -103 -15 -157.5t-53 -78t-112 -23.5q-65 0 -103 7.5t-60 26.5q-21 -19 -59.5 -26.5t-103.5 -7.5h-100v-36q0 -86 -20 -128.5t-74 -59t-167 -16.5q-105 0 -152.5 18t-62.5 63.5t-15 142.5q0 57 7.5 117.5t20.5 101.5l79 -13
q-27 -115 -27 -189q0 -92 12 -151h183q53 0 82 4.5t41.5 15.5t12.5 33v477h80v-290h145q44 0 61 11t17 42v237h80v-237q0 -31 17 -42t61 -11h133q12 63 12 166q0 84 -26 199l79 13q11 -41 19 -102.5z" />
    <glyph glyph-name="uni0634" unicode="&#x634;" horiz-adv-x="1257" 
d="M70 0zM1159 365.5q8 -61.5 8 -106.5q0 -103 -15 -157.5t-53 -78t-112 -23.5q-65 0 -103 7.5t-60 26.5q-21 -19 -59.5 -26.5t-103.5 -7.5h-100v-36q0 -86 -20 -128.5t-74 -59t-167 -16.5q-105 0 -152.5 18t-62.5 63.5t-15 142.5q0 57 7.5 117.5t20.5 101.5l79 -13
q-27 -115 -27 -189q0 -92 12 -151h183q53 0 82 4.5t41.5 15.5t12.5 33v477h80v-290h145q44 0 61 11t17 42v237h80v-237q0 -31 17 -42t61 -11h133q12 63 12 166q0 84 -26 199l79 13q11 -41 19 -102.5zM727 609q-20 20 -20 36t19.5 35t35.5 20q16 -1 35.5 -20t19.5 -35
q0 -15 -20 -35.5t-35 -19.5q-15 -1 -35 19zM871 609q-20 20 -20 36t19.5 35t35.5 20q16 -1 35.5 -20t19.5 -35q0 -15 -20 -35.5t-35 -19.5q-15 -1 -35 19zM799 759q-20 20 -20 36t19.5 35t35.5 20q16 -1 35.5 -20t19.5 -35q0 -15 -20 -35.5t-35 -19.5q-15 -1 -35 19z" />
    <glyph glyph-name="uni0635" unicode="&#x635;" horiz-adv-x="1150" 
d="M991 469q33 -11 47.5 -37t14.5 -72v-360h-492v-36q0 -86 -20 -128.5t-74 -59t-167 -16.5q-105 0 -152.5 18t-62.5 63.5t-15 142.5q0 57 7.5 117.5t20.5 101.5l79 -13q-27 -115 -27 -189q0 -92 12 -151h183q53 0 82 4.5t41.5 15.5t12.5 33v567h80v-184q34 93 122 143.5
t216 50.5q59 0 92 -11zM973 90v289q-35 11 -111 11q-145 0 -218.5 -74t-81.5 -226h411z" />
    <glyph glyph-name="uni0636" unicode="&#x636;" horiz-adv-x="1150" 
d="M70 0zM991 469q33 -11 47.5 -37t14.5 -72v-360h-492v-36q0 -86 -20 -128.5t-74 -59t-167 -16.5q-105 0 -152.5 18t-62.5 63.5t-15 142.5q0 57 7.5 117.5t20.5 101.5l79 -13q-27 -115 -27 -189q0 -92 12 -151h183q53 0 82 4.5t41.5 15.5t12.5 33v567h80v-184
q34 93 122 143.5t216 50.5q59 0 92 -11zM973 90v289q-35 11 -111 11q-145 0 -218.5 -74t-81.5 -226h411zM788 609q-20 20 -20 36t19.5 35t35.5 20q16 -1 35.5 -20t19.5 -35q0 -15 -20 -35.5t-35 -19.5q-15 -1 -35 19z" />
    <glyph glyph-name="uni0637" unicode="&#x637;" horiz-adv-x="807" 
d="M650 469q33 -11 47.5 -37t14.5 -72v-360h-692v90h120v540h80v-344q34 93 122 143.5t216 50.5q59 0 92 -11zM632 90v289q-35 11 -111 11q-145 0 -218.5 -74t-81.5 -226h411z" />
    <glyph glyph-name="uni0638" unicode="&#x638;" horiz-adv-x="807" 
d="M20 0zM650 469q33 -11 47.5 -37t14.5 -72v-360h-692v90h120v540h80v-344q34 93 122 143.5t216 50.5q59 0 92 -11zM632 90v289q-35 11 -111 11q-145 0 -218.5 -74t-81.5 -226h411zM465 609q-20 20 -20 36t19.5 35t35.5 20q16 -1 35.5 -20t19.5 -35q0 -15 -20 -35.5
t-35 -19.5q-15 -1 -35 19z" />
    <glyph glyph-name="uni0639" unicode="&#x639;" horiz-adv-x="572" 
d="M213 380v-257q88 27 248 27v-75q-115 0 -186 -14.5t-105 -46.5t-34 -85v-157q51 -9 141 -9q37 0 74.5 5t94.5 17l12 -84q-37 -13 -92 -20.5t-117 -7.5q-84 0 -125.5 18t-57 64.5t-15.5 142.5q0 70 23 118t73 78q-19 49 -19 151q0 97 16 146.5t57 69.5t124 20
q47 0 96.5 -8.5t82.5 -21.5l-13 -84q-88 24 -169 24q-72 0 -109 -11z" />
    <glyph glyph-name="uni063A" unicode="&#x63a;" horiz-adv-x="572" 
d="M51 0zM213 380v-257q88 27 248 27v-75q-115 0 -186 -14.5t-105 -46.5t-34 -85v-157q51 -9 141 -9q37 0 74.5 5t94.5 17l12 -84q-37 -13 -92 -20.5t-117 -7.5q-84 0 -125.5 18t-57 64.5t-15.5 142.5q0 70 23 118t73 78q-19 49 -19 151q0 97 16 146.5t57 69.5t124 20
q47 0 96.5 -8.5t82.5 -21.5l-13 -84q-88 24 -169 24q-72 0 -109 -11zM290 609q-20 20 -20 36t19.5 35t35.5 20q16 -1 35.5 -20t19.5 -35q0 -15 -20 -35.5t-35 -19.5q-15 -1 -35 19z" />
    <glyph glyph-name="uni0641" unicode="&#x641;" horiz-adv-x="984" 
d="M70 0zM127.5 20q-30.5 20 -44 64.5t-13.5 121.5q0 45 7.5 94.5t20.5 83.5l76 -13q-24 -81 -24 -149q0 -83 16 -132h309q-10 53 -10 170q0 89 17.5 135.5t61.5 65.5t131 19q55 0 102 -7t107 -24v-449h-674q-52 0 -82.5 20zM794 100.5q10 10.5 10 39.5v248h-208
q-27 0 -36.5 -11t-9.5 -44v-243h208q26 0 36 10.5zM668 609q-20 20 -20 36t19.5 35t35.5 20q16 -1 35.5 -20t19.5 -35q0 -15 -20 -35.5t-35 -19.5q-15 -1 -35 19z" />
    <glyph glyph-name="uni06A4" unicode="&#x6a4;" horiz-adv-x="984" 
d="M70 0zM127.5 20q-30.5 20 -44 64.5t-13.5 121.5q0 45 7.5 94.5t20.5 83.5l76 -13q-24 -81 -24 -149q0 -83 16 -132h309q-10 53 -10 170q0 89 17.5 135.5t61.5 65.5t131 19q55 0 102 -7t107 -24v-449h-674q-52 0 -82.5 20zM794 100.5q10 10.5 10 39.5v248h-208
q-27 0 -36.5 -11t-9.5 -44v-243h208q26 0 36 10.5zM596 609q-20 20 -20 36t19.5 35t35.5 20q16 -1 35.5 -20t19.5 -35q0 -15 -20 -35.5t-35 -19.5q-15 -1 -35 19zM740 609q-20 20 -20 36t19.5 35t35.5 20q16 -1 35.5 -20t19.5 -35q0 -15 -20 -35.5t-35 -19.5q-15 -1 -35 19z
M668 759q-20 20 -20 36t19.5 35t35.5 20q16 -1 35.5 -20t19.5 -35q0 -15 -20 -35.5t-35 -19.5q-15 -1 -35 19z" />
    <glyph glyph-name="uni06A1" unicode="&#x6a1;" horiz-adv-x="984" 
d="M127.5 20q-30.5 20 -44 64.5t-13.5 121.5q0 45 7.5 94.5t20.5 83.5l76 -13q-24 -81 -24 -149q0 -83 16 -132h309q-10 53 -10 170q0 89 17.5 135.5t61.5 65.5t131 19q55 0 102 -7t107 -24v-449h-674q-52 0 -82.5 20zM794 100.5q10 10.5 10 39.5v248h-208q-27 0 -36.5 -11
t-9.5 -44v-243h208q26 0 36 10.5z" />
    <glyph glyph-name="uni066F" unicode="&#x66f;" horiz-adv-x="882" 
d="M684 473q47 -7 98 -24v-549q0 -88 -34.5 -124t-120.5 -36h-427q-52 0 -82.5 23.5t-44 75.5t-13.5 142q0 54 7.5 113t20.5 100l76 -13q-24 -100 -24 -184q0 -104 16 -167h546v170h-194q-59 0 -89.5 20.5t-43 71.5t-12.5 148q0 100 17.5 150t61.5 70t131 20q64 0 111 -7z
M692 100.5q10 10.5 10 39.5v250h-208q-27 0 -36.5 -11t-9.5 -44v-245h208q26 0 36 10.5z" />
    <glyph glyph-name="uni0642" unicode="&#x642;" horiz-adv-x="882" 
d="M60 0zM684 473q47 -7 98 -24v-549q0 -88 -34.5 -124t-120.5 -36h-427q-52 0 -82.5 23.5t-44 75.5t-13.5 142q0 54 7.5 113t20.5 100l76 -13q-24 -100 -24 -184q0 -104 16 -167h546v170h-194q-59 0 -89.5 20.5t-43 71.5t-12.5 148q0 100 17.5 150t61.5 70t131 20
q64 0 111 -7zM692 100.5q10 10.5 10 39.5v250h-208q-27 0 -36.5 -11t-9.5 -44v-245h208q26 0 36 10.5zM468 609q-20 20 -20 36t19.5 35t35.5 20q16 -1 35.5 -20t19.5 -35q0 -15 -20 -35.5t-35 -19.5q-15 -1 -35 19zM612 609q-20 20 -20 36t19.5 35t35.5 20q16 -1 35.5 -20
t19.5 -35q0 -15 -20 -35.5t-35 -19.5q-15 -1 -35 19z" />
    <glyph glyph-name="uni0643" unicode="&#x643;" horiz-adv-x="870" 
d="M545 485v-46l-228 -61v46l44 12q-12 26 -12 74q0 78 44 109t128 31v-56q-29 0 -58 -6t-49 -18l-1 -88q0 -13 5 -18.5t16 -5.5q12 0 25 4zM704 90v540h80v-630h-574q-52 0 -82.5 20t-44 64.5t-13.5 121.5q0 45 7.5 94.5t20.5 83.5l76 -13q-24 -81 -24 -149q0 -83 16 -132
h538z" />
    <glyph glyph-name="uni06A9" unicode="&#x6a9;" horiz-adv-x="844" 
d="M127.5 20q-30.5 20 -44 64.5t-13.5 121.5q0 45 7.5 94.5t20.5 83.5l76 -13q-24 -81 -24 -149q0 -83 16 -132h498v223h-261q-94 0 -94 85q0 43 20.5 101t54.5 114.5t73 95.5l68 -36q-56 -60 -94.5 -132t-49.5 -138h253q43 0 66.5 -10t33.5 -33.5t10 -66.5v-293h-534
q-52 0 -82.5 20z" />
    <glyph glyph-name="uni06AF" unicode="&#x6af;" horiz-adv-x="844" 
d="M70 0zM127.5 20q-30.5 20 -44 64.5t-13.5 121.5q0 45 7.5 94.5t20.5 83.5l76 -13q-24 -81 -24 -149q0 -83 16 -132h498v223h-261q-94 0 -94 85q0 43 20.5 101t54.5 114.5t73 95.5l68 -36q-56 -60 -94.5 -132t-49.5 -138h253q43 0 66.5 -10t33.5 -33.5t10 -66.5v-293h-534
q-52 0 -82.5 20zM222.5 648q-39.5 -84 -48.5 -157l73 -25q10 74 46.5 148.5t89.5 132.5l-68 36q-53 -51 -92.5 -135z" />
    <glyph glyph-name="uni0644" unicode="&#x644;" horiz-adv-x="663" 
d="M345 -150q53 0 82 4.5t41.5 15.5t12.5 33v727h80v-666q0 -86 -20 -128.5t-74 -59t-167 -16.5q-100 0 -148 18.5t-65 64.5t-17 141q0 63 8.5 132t21.5 117l74 -13q-24 -118 -24 -219q0 -92 12 -151h183z" />
    <glyph glyph-name="uni0645" unicode="&#x645;" horiz-adv-x="655" 
d="M116 0q-16 -57 -16 -142q0 -66 28 -177l-78 -15q-13 39 -21.5 97t-8.5 112q0 112 24 161t82 53q-16 53 -16 139q0 100 44 212q39 18 98 29t119 11q69 0 109 -12.5t57.5 -40.5t17.5 -77v-350h-439zM364 390q-74 0 -149 -16q-25 -85 -25 -146q0 -85 18 -138h267v289
q-41 11 -111 11z" />
    <glyph glyph-name="uni0646" unicode="&#x646;" horiz-adv-x="663" 
d="M70 0zM345 -150q53 0 82 4.5t41.5 15.5t12.5 33v567h80v-506q0 -86 -20 -128.5t-74 -59t-167 -16.5q-100 0 -148 18.5t-65 64.5t-17 141q0 63 8.5 132t21.5 117l74 -13q-24 -118 -24 -219q0 -92 12 -151h183zM285 609q-20 20 -20 36t19.5 35t35.5 20q16 -1 35.5 -20
t19.5 -35q0 -15 -20 -35.5t-35 -19.5q-15 -1 -35 19z" />
    <glyph glyph-name="uni06BA" unicode="&#x6ba;" horiz-adv-x="663" 
d="M345 -150q53 0 82 4.5t41.5 15.5t12.5 33v567h80v-506q0 -86 -20 -128.5t-74 -59t-167 -16.5q-100 0 -148 18.5t-65 64.5t-17 141q0 63 8.5 132t21.5 117l74 -13q-24 -118 -24 -219q0 -92 12 -151h183z" />
    <glyph glyph-name="uni0647" unicode="&#x647;" horiz-adv-x="632" 
d="M532 0h-244q-90 0 -131.5 17.5t-56.5 65.5t-15 152t15 152t56.5 65.5t131.5 17.5h244v-470zM239 380q-37 0 -53 -13t-16 -43v-178q0 -30 16 -43t53 -13h213v290h-213z" />
    <glyph glyph-name="uni06C1" unicode="&#x6c1;" horiz-adv-x="632" 
d="M85 0zM532 0h-244q-90 0 -131.5 17.5t-56.5 65.5t-15 152t15 152t56.5 65.5t131.5 17.5h244v-470zM239 380q-37 0 -53 -13t-16 -43v-178q0 -30 16 -43t53 -13h213v290h-213z" />
    <glyph glyph-name="uni06C2" unicode="&#x6c2;" horiz-adv-x="632" 
d="M85 0zM532 0h-244q-90 0 -131.5 17.5t-56.5 65.5t-15 152t15 152t56.5 65.5t131.5 17.5h244v-470zM239 380q-37 0 -53 -13t-16 -43v-178q0 -30 16 -43t53 -13h213v290h-213zM437 685v-46l-228 -61v46l44 12q-12 26 -12 74q0 78 44 109t128 31v-56q-29 0 -58 -6t-49 -18
l-1 -88q0 -13 5 -18.5t16 -5.5q12 0 25 4z" />
    <glyph glyph-name="uni06BE" unicode="&#x6be;" horiz-adv-x="730" 
d="M680 69v-69h-660v90h74q1 100 13 143t45.5 57t112.5 14q84 0 119.5 -14t48 -56.5t13.5 -143.5h147l-50 194q-18 68 -55 106.5t-96 54.5t-151 16l5 87q112 0 184.5 -20t118 -70.5t68.5 -142.5zM164 90h212v149h-161q-28 0 -39.5 -8.5t-11.5 -30.5v-110z" />
    <glyph glyph-name="uni0629" unicode="&#x629;" horiz-adv-x="632" 
d="M85 0zM532 0h-244q-90 0 -131.5 17.5t-56.5 65.5t-15 152t15 152t56.5 65.5t131.5 17.5h244v-470zM239 380q-37 0 -53 -13t-16 -43v-178q0 -30 16 -43t53 -13h213v290h-213zM216 609q-20 20 -20 36t19.5 35t35.5 20q16 -1 35.5 -20t19.5 -35q0 -15 -20 -35.5t-35 -19.5
q-15 -1 -35 19zM360 609q-20 20 -20 36t19.5 35t35.5 20q16 -1 35.5 -20t19.5 -35q0 -15 -20 -35.5t-35 -19.5q-15 -1 -35 19z" />
    <glyph glyph-name="uni06C3" unicode="&#x6c3;" horiz-adv-x="632" 
d="M85 0zM532 0h-244q-90 0 -131.5 17.5t-56.5 65.5t-15 152t15 152t56.5 65.5t131.5 17.5h244v-470zM239 380q-37 0 -53 -13t-16 -43v-178q0 -30 16 -43t53 -13h213v290h-213zM216 609q-20 20 -20 36t19.5 35t35.5 20q16 -1 35.5 -20t19.5 -35q0 -15 -20 -35.5t-35 -19.5
q-15 -1 -35 19zM360 609q-20 20 -20 36t19.5 35t35.5 20q16 -1 35.5 -20t19.5 -35q0 -15 -20 -35.5t-35 -19.5q-15 -1 -35 19z" />
    <glyph glyph-name="uni0648" unicode="&#x648;" horiz-adv-x="604" 
d="M406 473q47 -7 98 -24v-359q0 -55 -28.5 -122.5t-77.5 -130.5t-106 -104l-50 62q51 40 94 95t67 110h-173q-59 0 -89.5 20.5t-43 71.5t-12.5 148q0 100 17.5 150t61.5 70t131 20q64 0 111 -7zM378 90q26 0 36 10.5t10 39.5v250h-208q-27 0 -36.5 -11t-9.5 -44v-245h208z
" />
    <glyph glyph-name="uni0624" unicode="&#x624;" horiz-adv-x="604" 
d="M85 0zM406 473q47 -7 98 -24v-359q0 -55 -28.5 -122.5t-77.5 -130.5t-106 -104l-50 62q51 40 94 95t67 110h-173q-59 0 -89.5 20.5t-43 71.5t-12.5 148q0 100 17.5 150t61.5 70t131 20q64 0 111 -7zM378 90q26 0 36 10.5t10 39.5v250h-208q-27 0 -36.5 -11t-9.5 -44v-245
h208zM409 685v-46l-228 -61v46l44 12q-12 26 -12 74q0 78 44 109t128 31v-56q-29 0 -58 -6t-49 -18l-1 -88q0 -13 5 -18.5t16 -5.5q12 0 25 4z" />
    <glyph glyph-name="uni0649" unicode="&#x649;" horiz-adv-x="851" 
d="M78.5 36q8.5 64 21.5 107l78 -14q-28 -122 -28 -193q0 -72 12 -121h283q95 0 144.5 4.5t70.5 15.5t21 33v211l-140 17q-67 8 -101.5 27t-48 56.5t-13.5 105.5q0 74 16 115.5t54.5 60.5t108.5 19q95 0 190 -19l-15 -86q-86 15 -167 15q-64 0 -102 -5v-193l162 -17
q54 -5 83.5 -25t41 -58t11.5 -102v-71q0 -79 -28.5 -119.5t-105 -57.5t-229.5 -17q-143 0 -208.5 12t-92.5 51t-27 126q0 58 8.5 122z" />
    <glyph glyph-name="uni064A" unicode="&#x64a;" horiz-adv-x="851" 
d="M70 0zM78.5 36q8.5 64 21.5 107l78 -14q-28 -122 -28 -193q0 -72 12 -121h283q95 0 144.5 4.5t70.5 15.5t21 33v211l-140 17q-67 8 -101.5 27t-48 56.5t-13.5 105.5q0 74 16 115.5t54.5 60.5t108.5 19q95 0 190 -19l-15 -86q-86 15 -167 15q-64 0 -102 -5v-193l162 -17
q54 -5 83.5 -25t41 -58t11.5 -102v-71q0 -79 -28.5 -119.5t-105 -57.5t-229.5 -17q-143 0 -208.5 12t-92.5 51t-27 126q0 58 8.5 122zM304 -270zM324 -421q-20 20 -20 36t19.5 35t35.5 20q16 -1 35.5 -20t19.5 -35q0 -15 -20 -35.5t-35 -19.5q-15 -1 -35 19zM324 -271
q-20 20 -20 36t19.5 35t35.5 20q16 -1 35.5 -20t19.5 -35q0 -15 -20 -35.5t-35 -19.5q-15 -1 -35 19z" />
    <glyph glyph-name="uni0626" unicode="&#x626;" horiz-adv-x="851" 
d="M56 0zM78.5 36q8.5 64 21.5 107l78 -14q-28 -122 -28 -193q0 -72 12 -121h283q95 0 144.5 4.5t70.5 15.5t21 33v211l-140 17q-67 8 -101.5 27t-48 56.5t-13.5 105.5q0 74 16 115.5t54.5 60.5t108.5 19q95 0 190 -19l-15 -86q-86 15 -167 15q-64 0 -102 -5v-193l162 -17
q54 -5 83.5 -25t41 -58t11.5 -102v-71q0 -79 -28.5 -119.5t-105 -57.5t-229.5 -17q-143 0 -208.5 12t-92.5 51t-27 126q0 58 8.5 122zM284 375v-46l-228 -61v46l44 12q-12 26 -12 74q0 78 44 109t128 31v-56q-29 0 -58 -6t-49 -18l-1 -88q0 -13 5 -18.5t16 -5.5q12 0 25 4z
" />
    <glyph glyph-name="uni06CC" unicode="&#x6cc;" horiz-adv-x="851" 
d="M70 0zM78.5 36q8.5 64 21.5 107l78 -14q-28 -122 -28 -193q0 -72 12 -121h283q95 0 144.5 4.5t70.5 15.5t21 33v211l-140 17q-67 8 -101.5 27t-48 56.5t-13.5 105.5q0 74 16 115.5t54.5 60.5t108.5 19q95 0 190 -19l-15 -86q-86 15 -167 15q-64 0 -102 -5v-193l162 -17
q54 -5 83.5 -25t41 -58t11.5 -102v-71q0 -79 -28.5 -119.5t-105 -57.5t-229.5 -17q-143 0 -208.5 12t-92.5 51t-27 126q0 58 8.5 122z" />
    <glyph glyph-name="uni06D2" unicode="&#x6d2;" horiz-adv-x="769" 
d="M492 -180.5q55 4.5 140 19.5l13 -84q-51 -13 -128 -21.5t-149 -8.5q-136 0 -202.5 16.5t-91 57.5t-24.5 125v166h547q12 53 12 156q0 40 -3 83h80q3 -36 3 -70q0 -108 -15 -162t-52.5 -75.5t-112.5 -21.5h-379v-132q0 -22 19 -33t64.5 -15.5t132.5 -4.5q91 0 146 4.5z
" />
    <glyph glyph-name="uni06D3" unicode="&#x6d3;" horiz-adv-x="769" 
d="M50 0zM492 -180.5q55 4.5 140 19.5l13 -84q-51 -13 -128 -21.5t-149 -8.5q-136 0 -202.5 16.5t-91 57.5t-24.5 125v166h547q12 53 12 156q0 40 -3 83h80q3 -36 3 -70q0 -108 -15 -162t-52.5 -75.5t-112.5 -21.5h-379v-132q0 -22 19 -33t64.5 -15.5t132.5 -4.5
q91 0 146 4.5zM419 310v-46l-228 -61v46l44 12q-12 26 -12 74q0 78 44 109t128 31v-56q-29 0 -58 -6t-49 -18l-1 -88q0 -13 5 -18.5t16 -5.5q12 0 25 4z" />
    <glyph glyph-name="uni0640" unicode="&#x640;" horiz-adv-x="244" 
d="M-20 90h284v-90h-284v90z" />
    <glyph glyph-name="uni06280626.fina" horiz-adv-x="1131" 
d="M56 0zM1151 90v-90h-200v380h-488v-188l162 -17q54 -5 83.5 -25t41 -58t11.5 -102v-71q0 -79 -28.5 -119.5t-105 -57.5t-229.5 -17q-143 0 -208.5 12t-92.5 51t-27 126q0 58 8.5 122t21.5 107l78 -14q-28 -122 -28 -193q0 -72 12 -121h283q95 0 144.5 4.5t70.5 15.5
t21 33v211l-140 17q-67 8 -101.5 28t-48 57.5t-13.5 103.5q0 70 16 109.5t54.5 57.5t108.5 18h474v-380h120zM956 -151q-20 20 -20 36t19.5 35t35.5 20q16 -1 35.5 -20t19.5 -35q0 -15 -20 -35.5t-35 -19.5q-15 -1 -35 19zM284 375v-46l-228 -61v46l44 12q-12 26 -12 74
q0 78 44 109t128 31v-56q-29 0 -58 -6t-49 -18l-1 -88q0 -13 5 -18.5t16 -5.5q12 0 25 4z" />
    <glyph glyph-name="uni067E0631.fina" horiz-adv-x="641" 
d="M28 0zM661 90v-90h-200v380h-250v-380q0 -99 -35 -160t-114 -99l-34 70q58 28 80.5 69.5t22.5 119.5v470h410v-380h120zM465 -321q-20 20 -20 36t19.5 35t35.5 20q16 -1 35.5 -20t19.5 -35q0 -15 -20 -35.5t-35 -19.5q-15 -1 -35 19zM393 -171q-20 20 -20 36t19.5 35
t35.5 20q16 -1 35.5 -20t19.5 -35q0 -15 -20 -35.5t-35 -19.5q-15 -1 -35 19zM537 -171q-20 20 -20 36t19.5 35t35.5 20q16 -1 35.5 -20t19.5 -35q0 -15 -20 -35.5t-35 -19.5q-15 -1 -35 19z" />
    <glyph glyph-name="uni067E0632.fina" horiz-adv-x="641" 
d="M28 0zM661 90v-90h-200v380h-250v-380q0 -99 -35 -160t-114 -99l-34 70q58 28 80.5 69.5t22.5 119.5v470h410v-380h120zM465 -321q-20 20 -20 36t19.5 35t35.5 20q16 -1 35.5 -20t19.5 -35q0 -15 -20 -35.5t-35 -19.5q-15 -1 -35 19zM393 -171q-20 20 -20 36t19.5 35
t35.5 20q16 -1 35.5 -20t19.5 -35q0 -15 -20 -35.5t-35 -19.5q-15 -1 -35 19zM537 -171q-20 20 -20 36t19.5 35t35.5 20q16 -1 35.5 -20t19.5 -35q0 -15 -20 -35.5t-35 -19.5q-15 -1 -35 19zM136 609q-20 20 -20 36t19.5 35t35.5 20q16 -1 35.5 -20t19.5 -35
q0 -15 -20 -35.5t-35 -19.5q-15 -1 -35 19z" />
    <glyph glyph-name="uni067E0646.fina" horiz-adv-x="991" 
d="M70 0zM285 629q-20 20 -20 36t19.5 35t35.5 20q16 -1 35.5 -20t19.5 -35q0 -15 -20 -35.5t-35 -19.5q-15 -1 -35 19zM1011 90v-90h-200v380h-250v-416q0 -86 -20 -128.5t-74 -59t-167 -16.5q-100 0 -148 18.5t-65 64.5t-17 141q0 63 8.5 132t21.5 117l74 -13
q-24 -118 -24 -219q0 -92 12 -151h183q53 0 82 4.5t41.5 15.5t12.5 33v567h410v-380h120zM817 -321q-20 20 -20 36t19.5 35t35.5 20q16 -1 35.5 -20t19.5 -35q0 -15 -20 -35.5t-35 -19.5q-15 -1 -35 19zM745 -171q-20 20 -20 36t19.5 35t35.5 20q16 -1 35.5 -20t19.5 -35
q0 -15 -20 -35.5t-35 -19.5q-15 -1 -35 19zM889 -171q-20 20 -20 36t19.5 35t35.5 20q16 -1 35.5 -20t19.5 -35q0 -15 -20 -35.5t-35 -19.5q-15 -1 -35 19z" />
    <glyph glyph-name="uni067E0649.fina" horiz-adv-x="1131" 
d="M70 0zM1151 90v-90h-200v380h-488v-188l162 -17q54 -5 83.5 -25t41 -58t11.5 -102v-71q0 -79 -28.5 -119.5t-105 -57.5t-229.5 -17q-143 0 -208.5 12t-92.5 51t-27 126q0 58 8.5 122t21.5 107l78 -14q-28 -122 -28 -193q0 -72 12 -121h283q95 0 144.5 4.5t70.5 15.5
t21 33v211l-140 17q-67 8 -101.5 28t-48 57.5t-13.5 103.5q0 70 16 109.5t54.5 57.5t108.5 18h474v-380h120zM955 -301q-20 20 -20 36t19.5 35t35.5 20q16 -1 35.5 -20t19.5 -35q0 -15 -20 -35.5t-35 -19.5q-15 -1 -35 19zM883 -151q-20 20 -20 36t19.5 35t35.5 20
q16 -1 35.5 -20t19.5 -35q0 -15 -20 -35.5t-35 -19.5q-15 -1 -35 19zM1027 -151q-20 20 -20 36t19.5 35t35.5 20q16 -1 35.5 -20t19.5 -35q0 -15 -20 -35.5t-35 -19.5q-15 -1 -35 19z" />
    <glyph glyph-name="uni067E064A.fina" horiz-adv-x="1131" 
d="M70 0zM1151 90v-90h-200v380h-488v-188l162 -17q54 -5 83.5 -25t41 -58t11.5 -102v-71q0 -79 -28.5 -119.5t-105 -57.5t-229.5 -17q-143 0 -208.5 12t-92.5 51t-27 126q0 58 8.5 122t21.5 107l78 -14q-28 -122 -28 -193q0 -72 12 -121h283q95 0 144.5 4.5t70.5 15.5
t21 33v211l-140 17q-67 8 -101.5 28t-48 57.5t-13.5 103.5q0 70 16 109.5t54.5 57.5t108.5 18h474v-380h120zM955 -301q-20 20 -20 36t19.5 35t35.5 20q16 -1 35.5 -20t19.5 -35q0 -15 -20 -35.5t-35 -19.5q-15 -1 -35 19zM883 -151q-20 20 -20 36t19.5 35t35.5 20
q16 -1 35.5 -20t19.5 -35q0 -15 -20 -35.5t-35 -19.5q-15 -1 -35 19zM1027 -151q-20 20 -20 36t19.5 35t35.5 20q16 -1 35.5 -20t19.5 -35q0 -15 -20 -35.5t-35 -19.5q-15 -1 -35 19zM324 -421q-20 20 -20 36t19.5 35t35.5 20q16 -1 35.5 -20t19.5 -35q0 -15 -20 -35.5
t-35 -19.5q-15 -1 -35 19zM468 -421q-20 20 -20 36t19.5 35t35.5 20q16 -1 35.5 -20t19.5 -35q0 -15 -20 -35.5t-35 -19.5q-15 -1 -35 19z" />
    <glyph glyph-name="uni067E0626.fina" horiz-adv-x="1131" 
d="M56 0zM1151 90v-90h-200v380h-488v-188l162 -17q54 -5 83.5 -25t41 -58t11.5 -102v-71q0 -79 -28.5 -119.5t-105 -57.5t-229.5 -17q-143 0 -208.5 12t-92.5 51t-27 126q0 58 8.5 122t21.5 107l78 -14q-28 -122 -28 -193q0 -72 12 -121h283q95 0 144.5 4.5t70.5 15.5
t21 33v211l-140 17q-67 8 -101.5 28t-48 57.5t-13.5 103.5q0 70 16 109.5t54.5 57.5t108.5 18h474v-380h120zM955 -301q-20 20 -20 36t19.5 35t35.5 20q16 -1 35.5 -20t19.5 -35q0 -15 -20 -35.5t-35 -19.5q-15 -1 -35 19zM883 -151q-20 20 -20 36t19.5 35t35.5 20
q16 -1 35.5 -20t19.5 -35q0 -15 -20 -35.5t-35 -19.5q-15 -1 -35 19zM1027 -151q-20 20 -20 36t19.5 35t35.5 20q16 -1 35.5 -20t19.5 -35q0 -15 -20 -35.5t-35 -19.5q-15 -1 -35 19zM284 375v-46l-228 -61v46l44 12q-12 26 -12 74q0 78 44 109t128 31v-56q-29 0 -58 -6
t-49 -18l-1 -88q0 -13 5 -18.5t16 -5.5q12 0 25 4z" />
    <glyph glyph-name="uni062A0626.fina" horiz-adv-x="1131" 
d="M56 0zM1151 90v-90h-200v380h-488v-188l162 -17q54 -5 83.5 -25t41 -58t11.5 -102v-71q0 -79 -28.5 -119.5t-105 -57.5t-229.5 -17q-143 0 -208.5 12t-92.5 51t-27 126q0 58 8.5 122t21.5 107l78 -14q-28 -122 -28 -193q0 -72 12 -121h283q95 0 144.5 4.5t70.5 15.5
t21 33v211l-140 17q-67 8 -101.5 28t-48 57.5t-13.5 103.5q0 70 16 109.5t54.5 57.5t108.5 18h474v-380h120zM883 609q-20 20 -20 36t19.5 35t35.5 20q16 -1 35.5 -20t19.5 -35q0 -15 -20 -35.5t-35 -19.5q-15 -1 -35 19zM1027 609q-20 20 -20 36t19.5 35t35.5 20
q16 -1 35.5 -20t19.5 -35q0 -15 -20 -35.5t-35 -19.5q-15 -1 -35 19zM284 375v-46l-228 -61v46l44 12q-12 26 -12 74q0 78 44 109t128 31v-56q-29 0 -58 -6t-49 -18l-1 -88q0 -13 5 -18.5t16 -5.5q12 0 25 4z" />
    <glyph glyph-name="uni062B0626.fina" horiz-adv-x="1131" 
d="M56 0zM1151 90v-90h-200v380h-488v-188l162 -17q54 -5 83.5 -25t41 -58t11.5 -102v-71q0 -79 -28.5 -119.5t-105 -57.5t-229.5 -17q-143 0 -208.5 12t-92.5 51t-27 126q0 58 8.5 122t21.5 107l78 -14q-28 -122 -28 -193q0 -72 12 -121h283q95 0 144.5 4.5t70.5 15.5
t21 33v211l-140 17q-67 8 -101.5 28t-48 57.5t-13.5 103.5q0 70 16 109.5t54.5 57.5t108.5 18h474v-380h120zM883 609q-20 20 -20 36t19.5 35t35.5 20q16 -1 35.5 -20t19.5 -35q0 -15 -20 -35.5t-35 -19.5q-15 -1 -35 19zM1027 609q-20 20 -20 36t19.5 35t35.5 20
q16 -1 35.5 -20t19.5 -35q0 -15 -20 -35.5t-35 -19.5q-15 -1 -35 19zM955 759q-20 20 -20 36t19.5 35t35.5 20q16 -1 35.5 -20t19.5 -35q0 -15 -20 -35.5t-35 -19.5q-15 -1 -35 19zM284 375v-46l-228 -61v46l44 12q-12 26 -12 74q0 78 44 109t128 31v-56q-29 0 -58 -6
t-49 -18l-1 -88q0 -13 5 -18.5t16 -5.5q12 0 25 4z" />
    <glyph glyph-name="uni06330632" horiz-adv-x="1237" 
d="M28 0zM1139 365.5q8 -61.5 8 -106.5q0 -103 -15 -157.5t-53 -78t-112 -23.5q-65 0 -103 7.5t-60 26.5q-21 -19 -59.5 -26.5t-103.5 -7.5h-180v380h-250v-380q0 -99 -35 -160t-114 -99l-34 70q58 28 80.5 69.5t22.5 119.5v470h410v-380h145q44 0 61 11t17 42v237h80v-237
q0 -31 17 -42t61 -11h133q12 63 12 166q0 84 -26 199l79 13q11 -41 19 -102.5zM136 609q-20 20 -20 36t19.5 35t35.5 20q16 -1 35.5 -20t19.5 -35q0 -15 -20 -35.5t-35 -19.5q-15 -1 -35 19z" />
    <glyph glyph-name="uni06330632.fina" horiz-adv-x="1247" 
d="M28 0zM1267 90v-90h-300q-65 0 -103 7.5t-60 26.5q-21 -19 -59.5 -26.5t-103.5 -7.5h-180v380h-250v-380q0 -99 -35 -160t-114 -99l-34 70q58 28 80.5 69.5t22.5 119.5v470h410v-380h145q44 0 61 11t17 42v237h80v-237q0 -31 17 -42t61 -11h133q12 63 12 166
q0 84 -26 199l79 13q11 -41 19 -102.5t8 -106.5q0 -115 -19 -169h139zM136 609q-20 20 -20 36t19.5 35t35.5 20q16 -1 35.5 -20t19.5 -35q0 -15 -20 -35.5t-35 -19.5q-15 -1 -35 19z" />
    <glyph glyph-name="uni06330626" horiz-adv-x="1727" 
d="M56 0zM1629 365.5q8 -61.5 8 -106.5q0 -103 -15 -157.5t-53 -78t-112 -23.5q-65 0 -103 7.5t-60 26.5q-21 -19 -59.5 -26.5t-103.5 -7.5h-180v380h-488v-188l162 -17q54 -5 83.5 -25t41 -58t11.5 -102v-71q0 -79 -28.5 -119.5t-105 -57.5t-229.5 -17q-143 0 -208.5 12
t-92.5 51t-27 126q0 58 8.5 122t21.5 107l78 -14q-28 -122 -28 -193q0 -72 12 -121h283q95 0 144.5 4.5t70.5 15.5t21 33v211l-140 17q-67 8 -101.5 28t-48 57.5t-13.5 103.5q0 70 16 109.5t54.5 57.5t108.5 18h474v-380h145q44 0 61 11t17 42v237h80v-237q0 -31 17 -42
t61 -11h133q12 63 12 166q0 84 -26 199l79 13q11 -41 19 -102.5zM284 375v-46l-228 -61v46l44 12q-12 26 -12 74q0 78 44 109t128 31v-56q-29 0 -58 -6t-49 -18l-1 -88q0 -13 5 -18.5t16 -5.5q12 0 25 4z" />
    <glyph glyph-name="uni06330626.fina" horiz-adv-x="1737" 
d="M56 0zM1757 90v-90h-300q-65 0 -103 7.5t-60 26.5q-21 -19 -59.5 -26.5t-103.5 -7.5h-180v380h-488v-188l162 -17q54 -5 83.5 -25t41 -58t11.5 -102v-71q0 -79 -28.5 -119.5t-105 -57.5t-229.5 -17q-143 0 -208.5 12t-92.5 51t-27 126q0 58 8.5 122t21.5 107l78 -14
q-28 -122 -28 -193q0 -72 12 -121h283q95 0 144.5 4.5t70.5 15.5t21 33v211l-140 17q-67 8 -101.5 28t-48 57.5t-13.5 103.5q0 70 16 109.5t54.5 57.5t108.5 18h474v-380h145q44 0 61 11t17 42v237h80v-237q0 -31 17 -42t61 -11h133q12 63 12 166q0 84 -26 199l79 13
q11 -41 19 -102.5t8 -106.5q0 -115 -19 -169h139zM284 375v-46l-228 -61v46l44 12q-12 26 -12 74q0 78 44 109t128 31v-56q-29 0 -58 -6t-49 -18l-1 -88q0 -13 5 -18.5t16 -5.5q12 0 25 4z" />
    <glyph glyph-name="uni06340632" horiz-adv-x="1237" 
d="M28 0zM1139 365.5q8 -61.5 8 -106.5q0 -103 -15 -157.5t-53 -78t-112 -23.5q-65 0 -103 7.5t-60 26.5q-21 -19 -59.5 -26.5t-103.5 -7.5h-180v380h-250v-380q0 -99 -35 -160t-114 -99l-34 70q58 28 80.5 69.5t22.5 119.5v470h410v-380h145q44 0 61 11t17 42v237h80v-237
q0 -31 17 -42t61 -11h133q12 63 12 166q0 84 -26 199l79 13q11 -41 19 -102.5zM697 609q-20 20 -20 36t19.5 35t35.5 20q16 -1 35.5 -20t19.5 -35q0 -15 -20 -35.5t-35 -19.5q-15 -1 -35 19zM841 609q-20 20 -20 36t19.5 35t35.5 20q16 -1 35.5 -20t19.5 -35
q0 -15 -20 -35.5t-35 -19.5q-15 -1 -35 19zM769 759q-20 20 -20 36t19.5 35t35.5 20q16 -1 35.5 -20t19.5 -35q0 -15 -20 -35.5t-35 -19.5q-15 -1 -35 19zM136 609q-20 20 -20 36t19.5 35t35.5 20q16 -1 35.5 -20t19.5 -35q0 -15 -20 -35.5t-35 -19.5q-15 -1 -35 19z" />
    <glyph glyph-name="uni06340632.fina" horiz-adv-x="1247" 
d="M28 0zM1267 90v-90h-300q-65 0 -103 7.5t-60 26.5q-21 -19 -59.5 -26.5t-103.5 -7.5h-180v380h-250v-380q0 -99 -35 -160t-114 -99l-34 70q58 28 80.5 69.5t22.5 119.5v470h410v-380h145q44 0 61 11t17 42v237h80v-237q0 -31 17 -42t61 -11h133q12 63 12 166
q0 84 -26 199l79 13q11 -41 19 -102.5t8 -106.5q0 -115 -19 -169h139zM697 609q-20 20 -20 36t19.5 35t35.5 20q16 -1 35.5 -20t19.5 -35q0 -15 -20 -35.5t-35 -19.5q-15 -1 -35 19zM841 609q-20 20 -20 36t19.5 35t35.5 20q16 -1 35.5 -20t19.5 -35q0 -15 -20 -35.5
t-35 -19.5q-15 -1 -35 19zM769 759q-20 20 -20 36t19.5 35t35.5 20q16 -1 35.5 -20t19.5 -35q0 -15 -20 -35.5t-35 -19.5q-15 -1 -35 19zM136 609q-20 20 -20 36t19.5 35t35.5 20q16 -1 35.5 -20t19.5 -35q0 -15 -20 -35.5t-35 -19.5q-15 -1 -35 19z" />
    <glyph glyph-name="uni06350632" horiz-adv-x="1128" 
d="M28 0zM971 469q33 -11 47.5 -37t14.5 -72v-360h-572v380h-250v-380q0 -99 -35 -160t-114 -99l-34 70q58 28 80.5 69.5t22.5 119.5v470h410v-184q34 93 122 143.5t216 50.5q59 0 92 -11zM953 90v289q-35 11 -111 11q-145 0 -218.5 -74t-81.5 -226h411zM136 609
q-20 20 -20 36t19.5 35t35.5 20q16 -1 35.5 -20t19.5 -35q0 -15 -20 -35.5t-35 -19.5q-15 -1 -35 19z" />
    <glyph glyph-name="uni06350632.fina" horiz-adv-x="1133" 
d="M28 0zM1153 90v-90h-692v380h-250v-380q0 -99 -35 -160t-114 -99l-34 70q58 28 80.5 69.5t22.5 119.5v470h410v-184q34 93 122 143.5t216 50.5q59 0 92 -11t47.5 -37t14.5 -72v-270h120zM953 90v289q-35 11 -111 11q-145 0 -218.5 -74t-81.5 -226h411zM136 609
q-20 20 -20 36t19.5 35t35.5 20q16 -1 35.5 -20t19.5 -35q0 -15 -20 -35.5t-35 -19.5q-15 -1 -35 19z" />
    <glyph glyph-name="uni06360632" horiz-adv-x="1128" 
d="M28 0zM971 469q33 -11 47.5 -37t14.5 -72v-360h-572v380h-250v-380q0 -99 -35 -160t-114 -99l-34 70q58 28 80.5 69.5t22.5 119.5v470h410v-184q34 93 122 143.5t216 50.5q59 0 92 -11zM953 90v289q-35 11 -111 11q-145 0 -218.5 -74t-81.5 -226h411zM756 609
q-20 20 -20 36t19.5 35t35.5 20q16 -1 35.5 -20t19.5 -35q0 -15 -20 -35.5t-35 -19.5q-15 -1 -35 19zM136 609q-20 20 -20 36t19.5 35t35.5 20q16 -1 35.5 -20t19.5 -35q0 -15 -20 -35.5t-35 -19.5q-15 -1 -35 19z" />
    <glyph glyph-name="uni06360632.fina" horiz-adv-x="1133" 
d="M28 0zM1153 90v-90h-692v380h-250v-380q0 -99 -35 -160t-114 -99l-34 70q58 28 80.5 69.5t22.5 119.5v470h410v-184q34 93 122 143.5t216 50.5q59 0 92 -11t47.5 -37t14.5 -72v-270h120zM953 90v289q-35 11 -111 11q-145 0 -218.5 -74t-81.5 -226h411zM756 609
q-20 20 -20 36t19.5 35t35.5 20q16 -1 35.5 -20t19.5 -35q0 -15 -20 -35.5t-35 -19.5q-15 -1 -35 19zM136 609q-20 20 -20 36t19.5 35t35.5 20q16 -1 35.5 -20t19.5 -35q0 -15 -20 -35.5t-35 -19.5q-15 -1 -35 19z" />
    <glyph glyph-name="uni06450631.fina" horiz-adv-x="960" 
d="M864 21q-60 -17 -107 -24t-102 -7q-87 0 -131 19t-61.5 65.5t-17.5 135.5q0 117 10 170h-244v-380q0 -99 -35 -160t-114 -99l-34 70q58 28 80.5 69.5t22.5 119.5v470h733v-449zM784 380h-208q-26 0 -36 -10.5t-10 -39.5v-248h208q27 0 36.5 11t9.5 44v243z" />
    <glyph glyph-name="uni06450632.fina" horiz-adv-x="960" 
d="M28 0zM864 21q-60 -17 -107 -24t-102 -7q-87 0 -131 19t-61.5 65.5t-17.5 135.5q0 117 10 170h-244v-380q0 -99 -35 -160t-114 -99l-34 70q58 28 80.5 69.5t22.5 119.5v470h733v-449zM784 380h-208q-26 0 -36 -10.5t-10 -39.5v-248h208q27 0 36.5 11t9.5 44v243zM135 609
q-20 20 -20 36t19.5 35t35.5 20q16 -1 35.5 -20t19.5 -35q0 -15 -20 -35.5t-35 -19.5q-15 -1 -35 19z" />
    <glyph glyph-name="uni06460626.fina" horiz-adv-x="1131" 
d="M56 0zM1151 90v-90h-200v380h-488v-188l162 -17q54 -5 83.5 -25t41 -58t11.5 -102v-71q0 -79 -28.5 -119.5t-105 -57.5t-229.5 -17q-143 0 -208.5 12t-92.5 51t-27 126q0 58 8.5 122t21.5 107l78 -14q-28 -122 -28 -193q0 -72 12 -121h283q95 0 144.5 4.5t70.5 15.5
t21 33v211l-140 17q-67 8 -101.5 28t-48 57.5t-13.5 103.5q0 70 16 109.5t54.5 57.5t108.5 18h474v-380h120zM955 609q-20 20 -20 36t19.5 35t35.5 20q16 -1 35.5 -20t19.5 -35q0 -15 -20 -35.5t-35 -19.5q-15 -1 -35 19zM284 375v-46l-228 -61v46l44 12q-12 26 -12 74
q0 78 44 109t128 31v-56q-29 0 -58 -6t-49 -18l-1 -88q0 -13 5 -18.5t16 -5.5q12 0 25 4z" />
    <glyph glyph-name="uni06490631.fina" horiz-adv-x="641" 
d="M661 90v-90h-200v380h-250v-380q0 -99 -35 -160t-114 -99l-34 70q58 28 80.5 69.5t22.5 119.5v470h410v-380h120z" />
    <glyph glyph-name="uni06490632.fina" horiz-adv-x="641" 
d="M28 0zM661 90v-90h-200v380h-250v-380q0 -99 -35 -160t-114 -99l-34 70q58 28 80.5 69.5t22.5 119.5v470h410v-380h120zM136 609q-20 20 -20 36t19.5 35t35.5 20q16 -1 35.5 -20t19.5 -35q0 -15 -20 -35.5t-35 -19.5q-15 -1 -35 19z" />
    <glyph glyph-name="uni06490645.init" horiz-adv-x="991" 
d="M285 629q-20 20 -20 36t19.5 35t35.5 20q16 -1 35.5 -20t19.5 -35q0 -15 -20 -35.5t-35 -19.5q-15 -1 -35 19zM1011 90v-90h-200v380h-250v-416q0 -86 -20 -128.5t-74 -59t-167 -16.5q-100 0 -148 18.5t-65 64.5t-17 141q0 63 8.5 132t21.5 117l74 -13q-24 -118 -24 -219
q0 -92 12 -151h183q53 0 82 4.5t41.5 15.5t12.5 33v567h410v-380h120z" />
    <glyph glyph-name="uni06260626.fina" horiz-adv-x="1131" 
d="M56 0zM1151 90v-90h-200v380h-488v-188l162 -17q54 -5 83.5 -25t41 -58t11.5 -102v-71q0 -79 -28.5 -119.5t-105 -57.5t-229.5 -17q-143 0 -208.5 12t-92.5 51t-27 126q0 58 8.5 122t21.5 107l78 -14q-28 -122 -28 -193q0 -72 12 -121h283q95 0 144.5 4.5t70.5 15.5
t21 33v211l-140 17q-67 8 -101.5 28t-48 57.5t-13.5 103.5q0 70 16 109.5t54.5 57.5t108.5 18h474v-380h120zM1104 685v-46l-228 -61v46l44 12q-12 26 -12 74q0 78 44 109t128 31v-56q-29 0 -58 -6t-49 -18l-1 -88q0 -13 5 -18.5t16 -5.5q12 0 25 4zM284 375v-46l-228 -61
v46l44 12q-12 26 -12 74q0 78 44 109t128 31v-56q-29 0 -58 -6t-49 -18l-1 -88q0 -13 5 -18.5t16 -5.5q12 0 25 4z" />
    <glyph glyph-name="zero" unicode="0" horiz-adv-x="623" 
d="M78.5 524.5q18.5 66.5 70 91t163.5 24.5t163 -24t69.5 -91t18.5 -213q0 -149 -17.5 -215t-68.5 -89t-165 -23t-165 23t-69 89.5t-18 214.5q0 146 18.5 212.5zM167 123q0 -22 7.5 -33t27 -15.5t58.5 -4.5h196v432q0 22 -8.5 33t-29.5 15.5t-61 4.5h-190v-432z" />
    <glyph glyph-name="one" unicode="1" horiz-adv-x="435" 
d="M35 83h148v457l-158 -18v88l258 30v-557h122v-83h-370v83z" />
    <glyph glyph-name="two" unicode="2" horiz-adv-x="550" 
d="M55 85q0 83 20 124.5t84 78.5t224 103v157q-29 7 -94 7q-101 0 -206 -19l-13 78q87 26 206 26q111 0 162.5 -38.5t51.5 -120.5q0 -68 -22 -106t-89.5 -75t-228.5 -104v-113h329v-83h-424v85z" />
    <glyph glyph-name="three" unicode="3" horiz-adv-x="501" 
d="M30 11l12 78q41 -9 93 -14t100 -5q81 0 109 7v191l-174 22v53l174 28v177q-27 7 -88 7q-48 0 -100 -5t-93 -14l-11 78q81 26 200 26q199 0 199 -169q0 -52 -20.5 -92t-57.5 -60v-5q40 -22 59 -58.5t19 -92.5q0 -67 -22 -105.5t-71.5 -55.5t-135.5 -17q-114 0 -192 26z
" />
    <glyph glyph-name="four" unicode="4" horiz-adv-x="574" 
d="M30 139v50l228 436h201v-403h65v-83h-65v-139h-100v139h-329zM359 222v328h-39l-172 -328h211z" />
    <glyph glyph-name="five" unicode="5" horiz-adv-x="530" 
d="M60 11l13 78q100 -19 196 -19q72 0 104 7v167l-83 8q-91 10 -134 22.5t-59.5 36t-16.5 68.5l10 246h362l-8 -83h-254v-192l59 -6q92 -9 141 -28t69.5 -54.5t20.5 -97.5q0 -93 -51.5 -136t-162.5 -43q-122 0 -206 26z" />
    <glyph glyph-name="six" unicode="6" horiz-adv-x="564" 
d="M487 66.5q-22 -43.5 -71 -62.5t-134 -19q-98 0 -145 25t-64.5 93t-17.5 209q0 134 21 203t74 97t155 28q38 0 94 -8t84 -18l-13 -78q-35 8 -85.5 13.5t-92.5 5.5q-43 0 -80 -2t-50 -5v-183h146q105 0 153 -43t48 -137q0 -75 -22 -118.5zM225 286q-38 0 -50.5 -8
t-12.5 -34v-180h177q38 0 50.5 8.5t12.5 33.5v180h-177z" />
    <glyph glyph-name="seven" unicode="7" horiz-adv-x="467" 
d="M116 0l202 542h-285l-8 83h402v-62l-210 -563h-101z" />
    </font>
</defs>
</svg>
